SplineFontDB: 3.0
FontName: Jinko-Bold
FullName: Jinko-Bold
FamilyName: Jinko Bold
Weight: Bold
Copyright: 2012 vernon adams
Version: 1.0
ItalicAngle: 0
UnderlinePosition: -50
UnderlineWidth: 50
Ascent: 1638
Descent: 410
sfntRevision: 0x00000000
LayerCount: 2
Layer: 0 1 "Back"  1
Layer: 1 1 "Fore"  0
NeedsXUIDChange: 1
XUID: [1021 14 500265001 8454268]
FSType: 0
OS2Version: 4
OS2_WeightWidthSlopeOnly: 0
OS2_UseTypoMetrics: 1
CreationTime: 1337180443
ModificationTime: 1337185057
PfmFamily: 81
TTFWeight: 700
TTFWidth: 5
LineGap: 0
VLineGap: 0
Panose: 0 0 0 0 0 0 0 0 0 0
OS2TypoAscent: 426
OS2TypoAOffset: 1
OS2TypoDescent: -221
OS2TypoDOffset: 1
OS2TypoLinegap: 0
OS2WinAscent: -153
OS2WinAOffset: 1
OS2WinDescent: -88
OS2WinDOffset: 1
HheadAscent: -153
HheadAOffset: 1
HheadDescent: 88
HheadDOffset: 1
OS2SubXSize: 1331
OS2SubYSize: 1228
OS2SubXOff: 0
OS2SubYOff: 153
OS2SupXSize: 1331
OS2SupYSize: 1228
OS2SupXOff: 0
OS2SupYOff: 716
OS2StrikeYSize: 50
OS2StrikeYPos: 621
OS2Vendor: 'newt'
OS2CodePages: 20000093.00000000
OS2UnicodeRanges: a00000ef.4000204a.00000000.00000000
Lookup: 4 0 1 "'liga' Standard Ligatures lookup 0"  {"'liga' Standard Ligatures lookup 0 subtable"  } ['liga' ('DFLT' <'dflt' > 'grek' <'dflt' > 'latn' <'dflt' > ) ]
Lookup: 258 0 0 "'kern' Horizontal Kerning in Latin lookup 0"  {"'kern' Horizontal Kerning in Latin lookup 0 per glyph data 0"  "'kern' Horizontal Kerning in Latin lookup 0 kerning class 1"  } ['kern' ('DFLT' <'dflt' > 'latn' <'dflt' > ) ]
MarkAttachClasses: 1
DEI: 91125
KernClass2: 29 33 "'kern' Horizontal Kerning in Latin lookup 0 kerning class 1" 
 81 A Agrave Aacute Acircumflex Atilde Adieresis Aring Amacron Abreve Aogonek uni0202
 9 B uni1E02
 111 D O Q Eth Ograve Oacute Ocircumflex Otilde Odieresis Oslash Dcaron Omacron Obreve Ohungarumlaut uni020E uni1E0A
 1 F
 1 J
 1 K
 1 L
 9 P uni1E56
 36 R Racute Rcommaaccent Rcaron uni0212
 24 T Tcaron uni021A uni1E6A

StartChar: .notdef
Encoding: 65536 -1 0
Width: 1024
Flags: HW
LayerCount: 2
Fore
SplineSet
102 -391 m 1,0,-1
 102 1481 l 1,1,-1
 922 1481 l 1,2,-1
 922 -391 l 1,3,-1
 102 -391 l 1,0,-1
204 -289 m 1,4,-1
 820 -289 l 1,5,-1
 820 1379 l 1,6,-1
 204 1379 l 1,7,-1
 204 -289 l 1,4,-1
EndSplineSet
EndChar

StartChar: exclam
Encoding: 33 33 4
Width: 573
GlyphClass: 2
Flags: HW
LayerCount: 2
Fore
SplineSet
424 39 m 128,-1,1
 367 -18 367 -18 286.5 -18 c 128,-1,2
 206 -18 206 -18 149 39 c 128,-1,3
 92 96 92 96 92 176.5 c 128,-1,4
 92 257 92 257 149 314 c 128,-1,5
 206 371 206 371 286.5 371 c 128,-1,6
 367 371 367 371 424 314 c 128,-1,7
 481 257 481 257 481 176.5 c 128,-1,0
 481 96 481 96 424 39 c 128,-1,1
204 523 m 1,8,-1
 101 1481 l 1,9,-1
 471 1481 l 1,10,-1
 371 523 l 1,11,-1
 204 523 l 1,8,-1
EndSplineSet
EndChar

StartChar: quotedbl
Encoding: 34 34 5
Width: 896
GlyphClass: 2
Flags: HW
LayerCount: 2
Fore
SplineSet
155 964 m 1,0,-1
 108 1481 l 1,1,-1
 398 1481 l 1,2,-1
 353 964 l 1,3,-1
 155 964 l 1,0,-1
547 964 m 1,4,-1
 502 1481 l 1,5,-1
 791 1481 l 1,6,-1
 745 964 l 1,7,-1
 547 964 l 1,4,-1
EndSplineSet
EndChar

StartChar: numbersign
Encoding: 35 35 6
Width: 1444
GlyphClass: 2
Flags: HW
LayerCount: 2
Fore
SplineSet
215 10 m 1,0,-1
 295 387 l 1,1,-1
 58 387 l 1,2,-1
 58 583 l 1,3,-1
 338 583 l 1,4,-1
 418 918 l 1,5,-1
 157 918 l 1,6,-1
 157 1111 l 1,7,-1
 461 1111 l 1,8,-1
 537 1467 l 1,9,-1
 762 1467 l 1,10,-1
 688 1111 l 1,11,-1
 942 1111 l 1,12,-1
 1018 1467 l 1,13,-1
 1243 1467 l 1,14,-1
 1166 1111 l 1,15,-1
 1389 1111 l 1,16,-1
 1389 918 l 1,17,-1
 1121 918 l 1,18,-1
 1042 583 l 1,19,-1
 1294 583 l 1,20,-1
 1294 387 l 1,21,-1
 1000 387 l 1,22,-1
 918 10 l 1,23,-1
 696 10 l 1,24,-1
 776 387 l 1,25,-1
 519 387 l 1,26,-1
 437 10 l 1,27,-1
 215 10 l 1,0,-1
563 581 m 1,28,-1
 822 581 l 1,29,-1
 900 921 l 1,30,-1
 642 921 l 1,31,-1
 563 581 l 1,28,-1
EndSplineSet
EndChar

StartChar: dollar
Encoding: 36 36 7
Width: 1219
GlyphClass: 2
Flags: HW
LayerCount: 2
Fore
SplineSet
538 -275 m 1,0,-1
 538 -10 l 1,1,2
 418 -8 418 -8 282.5 29.5 c 128,-1,3
 147 67 147 67 66 123 c 1,4,-1
 114 354 l 1,5,-1
 155 354 l 1,6,7
 208 308 208 308 323.5 273 c 128,-1,8
 439 238 439 238 541 234 c 1,9,-1
 541 590 l 1,10,11
 266 652 266 652 166 762 c 0,12,13
 76 862 76 862 75.5 1025 c 128,-1,14
 75 1188 75 1188 199.5 1296.5 c 128,-1,15
 324 1405 324 1405 538 1427 c 1,16,-1
 538 1601 l 1,17,-1
 688 1601 l 1,18,-1
 688 1429 l 1,19,20
 786 1426 786 1426 901 1396 c 128,-1,21
 1016 1366 1016 1366 1087 1324 c 1,22,-1
 1049 1099 l 1,23,-1
 1005 1099 l 1,24,25
 873 1179 873 1179 684 1185 c 1,26,-1
 684 852 l 1,27,28
 948 794 948 794 1058.5 699.5 c 128,-1,29
 1169 605 1169 605 1169 427.5 c 128,-1,30
 1169 250 1169 250 1036.5 130 c 128,-1,31
 904 10 904 10 688 -6 c 1,32,-1
 688 -275 l 1,33,-1
 538 -275 l 1,0,-1
681 237 m 1,34,35
 689 239 689 239 694 241 c 1,36,37
 767 255 767 255 807 297.5 c 128,-1,38
 847 340 847 340 847 402 c 0,39,40
 847 530 847 530 681 567 c 1,41,-1
 681 237 l 1,34,35
547 875 m 1,42,-1
 547 1183 l 1,43,44
 478 1175 478 1175 435 1132.5 c 128,-1,45
 392 1090 392 1090 392 1029 c 128,-1,46
 392 968 392 968 424 933 c 128,-1,47
 456 898 456 898 547 875 c 1,42,-1
EndSplineSet
EndChar

StartChar: percent
Encoding: 37 37 8
Width: 2064
GlyphClass: 2
Flags: HW
LayerCount: 2
Fore
SplineSet
353.5 910.5 m 128,-1,1
 391 848 391 848 457.5 848 c 128,-1,2
 524 848 524 848 562.5 917 c 128,-1,3
 601 986 601 986 601 1074 c 128,-1,4
 601 1162 601 1162 564 1223.5 c 128,-1,5
 527 1285 527 1285 460.5 1285 c 128,-1,6
 394 1285 394 1285 355 1217.5 c 128,-1,7
 316 1150 316 1150 316 1061.5 c 128,-1,0
 316 973 316 973 353.5 910.5 c 128,-1,1
450 651 m 0,8,9
 368 651 368 651 293.5 686 c 0,10,11
 218 722 218 722 172 780 c 0,12,13
 76 900 76 900 77 1063 c 0,14,15
 77 1226 77 1226 172 1350 c 0,16,17
 218 1410 218 1410 292.5 1445.5 c 128,-1,18
 367 1481 367 1481 459.5 1481 c 128,-1,19
 552 1481 552 1481 625.5 1446.5 c 0,20,21
 698 1412 698 1412 744 1354 c 0,22,23
 836 1237 836 1237 837 1074 c 0,24,25
 837 867 837 867 700 739 c 0,26,27
 606 651 606 651 450 651 c 0,8,9
525 0 m 1,28,-1
 1288 1481 l 1,29,-1
 1541 1481 l 1,30,-1
 777 0 l 1,31,-1
 525 0 l 1,28,-1
1502 258 m 128,-1,33
 1539 196 1539 196 1605.5 196 c 128,-1,34
 1672 196 1672 196 1709 262.5 c 128,-1,35
 1746 329 1746 329 1746 418 c 128,-1,36
 1746 507 1746 507 1708.5 571 c 128,-1,37
 1671 635 1671 635 1605.5 635 c 128,-1,38
 1540 635 1540 635 1502.5 565.5 c 128,-1,39
 1465 496 1465 496 1465 408 c 128,-1,32
 1465 320 1465 320 1502 258 c 128,-1,33
1769.5 35.5 m 0,40,41
 1696 -1 1696 -1 1605.5 -1 c 128,-1,42
 1515 -1 1515 -1 1440.5 34 c 0,43,44
 1366 70 1366 70 1320 128 c 0,45,46
 1224 248 1224 248 1224 411 c 0,47,48
 1224 576 1224 576 1320 698 c 0,49,50
 1366 758 1366 758 1440.5 793.5 c 128,-1,51
 1515 829 1515 829 1607 829 c 128,-1,52
 1699 829 1699 829 1772.5 795 c 128,-1,53
 1846 761 1846 761 1891 703 c 0,54,55
 1983 584 1983 584 1983 423 c 0,56,57
 1982 258 1982 258 1888 132 c 0,58,59
 1842 72 1842 72 1769.5 35.5 c 0,40,41
EndSplineSet
EndChar

StartChar: ampersand
Encoding: 38 38 9
Width: 1557
GlyphClass: 2
Flags: HW
LayerCount: 2
Fore
SplineSet
1089 479 m 1,0,1
 1142 563 1142 563 1142 755 c 2,2,-1
 1142 775 l 1,3,-1
 1447 751 l 1,4,5
 1430 518 1430 518 1362 402 c 0,6,7
 1330 348 1330 348 1280 302 c 1,8,-1
 1615 0 l 1,9,-1
 1192 0 l 1,10,11
 1081 97 1081 97 1069 109 c 1,12,13
 863 -24 863 -24 617 -24 c 128,-1,14
 371 -24 371 -24 218.5 104 c 128,-1,15
 66 232 66 232 66 433 c 0,16,17
 66 696 66 696 346 837 c 1,18,19
 262 914 262 914 215.5 986.5 c 128,-1,20
 169 1059 169 1059 169 1139.5 c 128,-1,21
 169 1220 169 1220 195 1279.5 c 128,-1,22
 221 1339 221 1339 274.5 1390.5 c 128,-1,23
 328 1442 328 1442 424 1473 c 128,-1,24
 520 1504 520 1504 647 1504 c 0,25,26
 864 1504 864 1504 980.5 1411.5 c 128,-1,27
 1097 1319 1097 1319 1097 1187 c 128,-1,28
 1097 1055 1097 1055 1022.5 962.5 c 128,-1,29
 948 870 948 870 772 800 c 1,30,31
 897 671 897 671 1089 479 c 1,0,1
394 465 m 0,32,33
 394 344 394 344 478 278.5 c 128,-1,34
 562 213 562 213 692 213 c 0,35,36
 801 213 801 213 905 274 c 1,37,38
 701 472 701 472 505 668 c 1,39,40
 457 635 457 635 425.5 579 c 128,-1,41
 394 523 394 523 394 465 c 0,32,33
783 1149 m 0,42,43
 783 1296 783 1296 630 1296 c 1,44,45
 628 1296 628 1296 627 1296 c 0,46,47
 574 1296 574 1296 534 1264 c 0,48,49
 492 1230 492 1230 492.5 1169.5 c 128,-1,50
 493 1109 493 1109 525.5 1063 c 128,-1,51
 558 1017 558 1017 630 943 c 1,52,53
 783 1033 783 1033 783 1149 c 0,42,43
EndSplineSet
EndChar

StartChar: quotesingle
Encoding: 39 39 10
Width: 514
GlyphClass: 2
Flags: HW
LayerCount: 2
Fore
SplineSet
156 850 m 1,0,-1
 114 1481 l 1,1,-1
 404 1481 l 1,2,-1
 350 850 l 1,3,-1
 156 850 l 1,0,-1
EndSplineSet
EndChar

StartChar: parenleft
Encoding: 40 40 11
Width: 747
GlyphClass: 2
Flags: HW
LayerCount: 2
Fore
SplineSet
702 -349 m 1,0,-1
 415 -349 l 1,1,2
 49 67 49 67 49 566 c 0,3,4
 49 847 49 847 142 1063 c 128,-1,5
 235 1279 235 1279 415 1481 c 1,6,-1
 702 1481 l 1,7,-1
 702 1421 l 1,8,9
 353 1025 353 1025 353 561 c 0,10,11
 353 97 353 97 702 -289 c 1,12,-1
 702 -349 l 1,0,-1
EndSplineSet
EndChar

StartChar: parenright
Encoding: 41 41 12
Width: 748
GlyphClass: 2
Flags: HW
LayerCount: 2
Fore
SplineSet
46 -349 m 1,0,-1
 46 -289 l 1,1,2
 395 97 395 97 395 561 c 0,3,4
 395 1025 395 1025 46 1421 c 1,5,-1
 46 1481 l 1,6,-1
 333 1481 l 1,7,8
 513 1279 513 1279 606 1063 c 128,-1,9
 699 847 699 847 699 566 c 0,10,11
 699 67 699 67 333 -349 c 1,12,-1
 46 -349 l 1,0,-1
EndSplineSet
EndChar

StartChar: asterisk
Encoding: 42 42 13
Width: 991
GlyphClass: 2
Flags: HW
LayerCount: 2
Fore
SplineSet
122.5 790.5 m 0,0,1
 92 819 92 819 92 870.5 c 128,-1,2
 92 922 92 922 134.5 947 c 128,-1,3
 177 972 177 972 279.5 1001 c 128,-1,4
 382 1030 382 1030 405 1038 c 1,5,6
 382 1046 382 1046 279.5 1075 c 128,-1,7
 177 1104 177 1104 134.5 1129 c 128,-1,8
 92 1154 92 1154 92 1205.5 c 128,-1,9
 92 1257 92 1257 122.5 1285.5 c 128,-1,10
 153 1314 153 1314 187.5 1314.5 c 128,-1,11
 222 1315 222 1315 246.5 1301 c 128,-1,12
 271 1287 271 1287 305.5 1256 c 128,-1,13
 340 1225 340 1225 382.5 1182.5 c 128,-1,14
 425 1140 425 1140 450 1118 c 1,15,16
 446 1139 446 1139 419.5 1242.5 c 128,-1,17
 393 1346 393 1346 393 1388.5 c 128,-1,18
 393 1431 393 1431 425 1460.5 c 128,-1,19
 457 1490 457 1490 496 1490 c 128,-1,20
 535 1490 535 1490 567 1460.5 c 128,-1,21
 599 1431 599 1431 599 1388 c 1,22,23
 550 1159 550 1159 542 1118 c 1,24,25
 568 1140 568 1140 610 1182 c 0,26,27
 706 1278 706 1278 738 1297 c 0,28,29
 770 1315 770 1315 803 1315 c 0,30,31
 804 1314 804 1314 805 1314 c 0,32,33
 840 1314 840 1314 870 1285.5 c 128,-1,34
 900 1257 900 1257 900 1205.5 c 128,-1,35
 900 1154 900 1154 857.5 1129 c 128,-1,36
 815 1104 815 1104 712.5 1075 c 128,-1,37
 610 1046 610 1046 588 1038 c 1,38,39
 610 1030 610 1030 712.5 1001 c 128,-1,40
 815 972 815 972 857.5 947 c 128,-1,41
 900 922 900 922 900 870.5 c 128,-1,42
 900 819 900 819 870 790.5 c 128,-1,43
 840 762 840 762 805 761.5 c 128,-1,44
 770 761 770 761 745.5 775 c 128,-1,45
 721 789 721 789 686.5 820 c 128,-1,46
 652 851 652 851 609.5 893.5 c 128,-1,47
 567 936 567 936 542 958 c 1,48,49
 546 937 546 937 572.5 833.5 c 128,-1,50
 599 730 599 730 599 687.5 c 128,-1,51
 599 645 599 645 567 615.5 c 128,-1,52
 535 586 535 586 496 586 c 128,-1,53
 457 586 457 586 425 615.5 c 128,-1,54
 393 645 393 645 393 688 c 1,55,56
 442 917 442 917 450 958 c 1,57,58
 424 936 424 936 382 894 c 0,59,60
 286 798 286 798 254 779 c 0,61,62
 222 761 222 761 189 761 c 0,63,64
 188 762 l 0,65,66
 154 762 154 762 122.5 790.5 c 0,0,1
EndSplineSet
EndChar

StartChar: plus
Encoding: 43 43 14
Width: 1423
GlyphClass: 2
Flags: HW
LayerCount: 2
Fore
SplineSet
595 6 m 1,0,-1
 595 466 l 1,1,-1
 134 466 l 1,2,-1
 134 686 l 1,3,-1
 595 686 l 1,4,-1
 595 1134 l 1,5,-1
 830 1134 l 1,6,-1
 830 686 l 1,7,-1
 1291 686 l 1,8,-1
 1291 466 l 1,9,-1
 830 466 l 1,10,-1
 830 6 l 1,11,-1
 595 6 l 1,0,-1
EndSplineSet
EndChar

StartChar: comma
Encoding: 44 44 15
Width: 467
GlyphClass: 2
Flags: HW
LayerCount: 2
Fore
SplineSet
63 -263 m 1,0,-1
 114 299 l 1,1,-1
 418 299 l 1,2,-1
 225 -263 l 1,3,-1
 63 -263 l 1,0,-1
EndSplineSet
EndChar

StartChar: hyphen
Encoding: 45 45 16
Width: 836
GlyphClass: 2
Flags: HW
LayerCount: 2
Fore
SplineSet
94 480 m 1,0,-1
 94 706 l 1,1,-1
 743 706 l 1,2,-1
 743 480 l 1,3,-1
 94 480 l 1,0,-1
EndSplineSet
EndChar

StartChar: period
Encoding: 46 46 17
Width: 574
GlyphClass: 2
Flags: HW
LayerCount: 2
Fore
SplineSet
425 39 m 128,-1,1
 368 -18 368 -18 287.5 -18 c 128,-1,2
 207 -18 207 -18 149.5 39 c 128,-1,3
 92 96 92 96 92 176.5 c 128,-1,4
 92 257 92 257 149.5 314 c 128,-1,5
 207 371 207 371 287.5 371 c 128,-1,6
 368 371 368 371 425 314 c 128,-1,7
 482 257 482 257 482 176.5 c 128,-1,0
 482 96 482 96 425 39 c 128,-1,1
EndSplineSet
EndChar

StartChar: slash
Encoding: 47 47 18
Width: 1040
GlyphClass: 2
Flags: HW
LayerCount: 2
Fore
SplineSet
102 0 m 1,0,-1
 634 1481 l 1,1,-1
 916 1481 l 1,2,-1
 382 0 l 1,3,-1
 102 0 l 1,0,-1
EndSplineSet
EndChar

StartChar: zero
Encoding: 48 48 19
Width: 1353
GlyphClass: 2
Flags: HW
LayerCount: 2
Fore
SplineSet
767 247.5 m 128,-1,1
 805 262 805 262 831 294 c 128,-1,2
 857 326 857 326 873.5 366.5 c 0,3,4
 890 408 890 408 899 470 c 0,5,6
 914 574 914 574 914 714 c 128,-1,7
 914 854 914 854 909 927 c 128,-1,8
 904 1000 904 1000 889 1064.5 c 0,9,10
 874 1128 874 1128 848 1166 c 0,11,12
 791 1246 791 1246 677 1247 c 1,13,14
 560 1246 560 1246 504 1166 c 0,15,16
 438 1071 438 1071 438 750 c 0,17,18
 438 502 438 502 465 406 c 0,19,20
 491 314 491 314 537 276 c 0,21,22
 590 233 590 233 659.5 233 c 128,-1,0
 729 233 729 233 767 247.5 c 128,-1,1
896 13 m 0,23,24
 799 -24 799 -24 673.5 -24 c 128,-1,25
 548 -24 548 -24 449.5 12 c 128,-1,26
 351 48 351 48 285 113.5 c 0,27,28
 219 178 219 178 177 276 c 0,29,30
 99 457 99 457 99 750 c 0,31,32
 98 1336 98 1336 456 1468 c 0,33,34
 554 1504 554 1504 680 1504 c 128,-1,35
 806 1504 806 1504 904.5 1469 c 128,-1,36
 1003 1434 1003 1434 1069 1371 c 0,37,38
 1134 1308 1134 1308 1176 1213 c 0,39,40
 1254 1036 1254 1036 1254 750 c 0,41,42
 1254 150 1254 150 896 13 c 0,23,24
EndSplineSet
EndChar

StartChar: one
Encoding: 49 49 20
Width: 1088
GlyphClass: 2
Flags: HW
LayerCount: 2
Fore
SplineSet
175 0 m 1,0,-1
 175 248 l 1,1,-1
 432 248 l 1,2,-1
 432 1152 l 1,3,-1
 168 1093 l 1,4,-1
 168 1300 l 1,5,6
 292 1317 292 1317 354 1359 c 128,-1,7
 416 1401 416 1401 440 1482 c 1,8,9
 602 1482 602 1482 765 1482 c 1,10,-1
 765 248 l 1,11,-1
 1013 248 l 1,12,-1
 1013 0 l 1,13,-1
 175 0 l 1,0,-1
EndSplineSet
EndChar

StartChar: two
Encoding: 50 50 21
Width: 1222
GlyphClass: 2
Flags: HW
LayerCount: 2
Fore
SplineSet
1116 1066 m 0,0,1
 1116 725 1116 725 540 254 c 1,2,-1
 1151 254 l 1,3,-1
 1151 0 l 1,4,-1
 106 0 l 1,5,-1
 106 218 l 1,6,7
 775 793 775 793 775 1041 c 0,8,9
 775 1247 775 1247 566 1247 c 0,10,11
 475 1247 475 1247 369.5 1211 c 128,-1,12
 264 1175 264 1175 198 1133 c 1,13,-1
 130 1373 l 1,14,15
 187 1423 187 1423 333 1463.5 c 128,-1,16
 479 1504 479 1504 604 1504 c 0,17,18
 853 1504 853 1504 984.5 1387 c 128,-1,19
 1116 1270 1116 1270 1116 1066 c 0,0,1
EndSplineSet
EndChar

StartChar: three
Encoding: 51 51 22
Width: 1207
GlyphClass: 2
Flags: HW
LayerCount: 2
Fore
SplineSet
990 97 m 128,-1,1
 833 -24 833 -24 546.5 -24 c 128,-1,2
 260 -24 260 -24 94 95 c 1,3,-1
 94 369 l 1,4,-1
 161 369 l 1,5,6
 171 354 171 354 208 326 c 128,-1,7
 245 298 245 298 282 280 c 0,8,9
 379 233 379 233 487.5 233 c 128,-1,10
 596 233 596 233 660.5 253.5 c 128,-1,11
 725 274 725 274 766.5 325.5 c 128,-1,12
 808 377 808 377 808 455 c 0,13,14
 808 674 808 674 515 674 c 2,15,-1
 382 674 l 1,16,-1
 382 880 l 1,17,-1
 459 880 l 2,18,19
 607 880 607 880 682 925.5 c 128,-1,20
 757 971 757 971 757 1070 c 0,21,22
 758 1130 758 1130 720 1172 c 0,23,24
 653 1246 653 1246 507 1247 c 0,25,26
 346 1247 346 1247 218 1160 c 0,27,28
 188 1140 188 1140 163 1112 c 1,29,-1
 94 1112 l 1,30,-1
 94 1379 l 1,31,32
 167 1431 167 1431 296.5 1467.5 c 128,-1,33
 426 1504 426 1504 557.5 1504 c 128,-1,34
 689 1504 689 1504 794.5 1472 c 128,-1,35
 900 1440 900 1440 964 1384 c 0,36,37
 1093 1272 1093 1272 1093 1109 c 0,38,39
 1094 921 1094 921 936 821 c 0,40,41
 894 794 894 794 844 778 c 1,42,43
 969 748 969 748 1058 655 c 128,-1,44
 1147 562 1147 562 1147 425 c 0,45,0
 1147 218 1147 218 990 97 c 128,-1,1
EndSplineSet
EndChar

StartChar: four
Encoding: 52 52 23
Width: 1277
GlyphClass: 2
Flags: HW
LayerCount: 2
Fore
SplineSet
724 0 m 1,0,-1
 724 245 l 1,1,-1
 51 245 l 1,2,-1
 51 485 l 1,3,-1
 582 1481 l 1,4,-1
 1057 1481 l 1,5,-1
 1057 480 l 1,6,-1
 1230 480 l 1,7,-1
 1230 245 l 1,8,-1
 1057 245 l 1,9,-1
 1057 0 l 1,10,-1
 724 0 l 1,0,-1
356 480 m 1,11,-1
 724 480 l 1,12,-1
 724 1209 l 1,13,-1
 356 480 l 1,11,-1
EndSplineSet
EndChar

StartChar: five
Encoding: 53 53 24
Width: 1216
GlyphClass: 2
Flags: HW
LayerCount: 2
Fore
SplineSet
1007.5 99 m 128,-1,1
 853 -24 853 -24 557.5 -24 c 128,-1,2
 262 -24 262 -24 102 111 c 1,3,-1
 102 369 l 1,4,-1
 165 369 l 1,5,6
 178 353 178 353 218 325.5 c 128,-1,7
 258 298 258 298 297 280 c 0,8,9
 399 233 399 233 529 233 c 1,10,11
 822 233 822 233 822 464 c 0,12,13
 822 690 822 690 480 715 c 1,14,-1
 134 738 l 1,15,-1
 134 1481 l 1,16,-1
 1051 1481 l 1,17,-1
 1051 1227 l 1,18,-1
 447 1227 l 1,19,-1
 447 942 l 1,20,-1
 480 939 l 2,21,22
 512 936 512 936 554 933 c 128,-1,23
 596 930 596 930 641.5 926 c 128,-1,24
 687 922 687 922 756.5 907 c 128,-1,25
 826 892 826 892 902.5 858 c 128,-1,26
 979 824 979 824 1034 775.5 c 128,-1,27
 1089 727 1089 727 1125.5 648.5 c 128,-1,28
 1162 570 1162 570 1162 471 c 0,29,0
 1162 222 1162 222 1007.5 99 c 128,-1,1
EndSplineSet
EndChar

StartChar: six
Encoding: 54 54 25
Width: 1252
GlyphClass: 2
Flags: HW
LayerCount: 2
Fore
SplineSet
1020.5 113 m 128,-1,1
 875 -24 875 -24 628 -24 c 128,-1,2
 381 -24 381 -24 235 130 c 128,-1,3
 89 284 89 284 89 555 c 0,4,5
 89 977 89 977 314 1220 c 128,-1,6
 539 1463 539 1463 965 1482 c 1,7,-1
 1017 1247 l 1,8,9
 788 1226 788 1226 649 1129 c 128,-1,10
 510 1032 510 1032 462 845 c 1,11,12
 517 888 517 888 595.5 916.5 c 128,-1,13
 674 945 674 945 743 945 c 0,14,15
 935 945 935 945 1050.5 826 c 128,-1,16
 1166 707 1166 707 1166 478.5 c 128,-1,0
 1166 250 1166 250 1020.5 113 c 128,-1,1
465 279.5 m 128,-1,18
 518 205 518 205 623 205 c 128,-1,19
 728 205 728 205 782 278 c 128,-1,20
 836 351 836 351 836 471 c 0,21,22
 836 592 836 592 776 652 c 0,23,24
 717 712 717 712 623 712 c 0,25,26
 622 712 622 712 621 712 c 0,27,28
 525 712 525 712 468.5 638 c 128,-1,29
 412 564 412 564 412 459 c 128,-1,17
 412 354 412 354 465 279.5 c 128,-1,18
EndSplineSet
EndChar

StartChar: seven
Encoding: 55 55 26
Width: 1199
GlyphClass: 2
Flags: HW
LayerCount: 2
Fore
SplineSet
215 0 m 1,0,-1
 768 1239 l 1,1,-1
 319 1239 l 1,2,-1
 319 1087 l 1,3,-1
 99 1087 l 1,4,-1
 99 1481 l 1,5,-1
 1131 1481 l 1,6,-1
 1131 1242 l 1,7,-1
 590 0 l 1,8,-1
 215 0 l 1,0,-1
EndSplineSet
EndChar

StartChar: eight
Encoding: 56 56 27
Width: 1309
GlyphClass: 2
Flags: HW
LayerCount: 2
Fore
SplineSet
1071 98.5 m 128,-1,1
 917 -25 917 -25 650 -25 c 128,-1,2
 383 -25 383 -25 233.5 96 c 128,-1,3
 84 217 84 217 84 402 c 0,4,5
 84 525 84 525 156 610 c 128,-1,6
 228 695 228 695 359 756 c 1,7,8
 275 799 275 799 219 864 c 0,9,10
 122 977 122 977 122 1110 c 0,11,12
 122 1272 122 1272 262 1386 c 0,13,14
 407 1504 407 1504 654 1504.5 c 128,-1,15
 901 1505 901 1505 1038 1408 c 128,-1,16
 1175 1311 1175 1311 1184 1156 c 1,17,18
 1184 1153 1184 1153 1184 1150 c 0,19,20
 1184 1016 1184 1016 1090 898 c 0,21,22
 1036 830 1036 830 956 792 c 1,23,24
 1225 671 1225 671 1225 420 c 0,25,0
 1225 222 1225 222 1071 98.5 c 128,-1,1
482.5 276.5 m 128,-1,27
 551 216 551 216 654.5 216 c 128,-1,28
 758 216 758 216 824 268 c 128,-1,29
 890 320 890 320 890 404 c 0,30,31
 890 556 890 556 718 627 c 0,32,33
 658 652 658 652 575 665 c 1,34,35
 516 636 516 636 465 575 c 128,-1,36
 414 514 414 514 414 425.5 c 128,-1,26
 414 337 414 337 482.5 276.5 c 128,-1,27
742 881 m 1,37,38
 862 979 862 979 862 1096 c 0,39,40
 862 1174 862 1174 806 1220.5 c 128,-1,41
 750 1267 750 1267 666 1267 c 128,-1,42
 582 1267 582 1267 520 1225.5 c 128,-1,43
 458 1184 458 1184 458 1110 c 0,44,45
 458 1021 458 1021 536 970 c 0,46,47
 604 925 604 925 742 881 c 1,37,38
EndSplineSet
EndChar

StartChar: nine
Encoding: 57 57 28
Width: 1243
GlyphClass: 2
Flags: HW
LayerCount: 2
Fore
SplineSet
271 -8 m 1,0,1
 230 173 230 173 219 213 c 1,2,3
 320 221 320 221 421.5 258.5 c 128,-1,4
 523 296 523 296 590.5 338 c 128,-1,5
 658 380 658 380 717.5 453.5 c 128,-1,6
 777 527 777 527 798 619 c 1,7,8
 743 572 743 572 654 550 c 128,-1,9
 565 528 565 528 502 528 c 128,-1,10
 439 528 439 528 381 543 c 128,-1,11
 323 558 323 558 266.5 592.5 c 0,12,13
 210 626 210 626 167 678 c 0,14,15
 71 793 71 793 71 985 c 0,16,17
 71 1219 71 1219 219 1357 c 128,-1,18
 367 1495 367 1495 615.5 1495 c 128,-1,19
 864 1495 864 1495 1009 1337.5 c 128,-1,20
 1154 1180 1154 1180 1154 893 c 1,21,22
 1151 404 1151 404 842 162 c 0,23,24
 624 -8 624 -8 271 -8 c 1,0,1
464 825 m 128,-1,26
 521 765 521 765 618 765 c 128,-1,27
 715 765 715 765 765 832 c 128,-1,28
 815 899 815 899 815 1007 c 128,-1,29
 815 1115 815 1115 764 1187 c 128,-1,30
 713 1259 713 1259 619 1259 c 128,-1,31
 525 1259 525 1259 466 1196.5 c 128,-1,32
 407 1134 407 1134 407 1009.5 c 128,-1,25
 407 885 407 885 464 825 c 128,-1,26
EndSplineSet
EndChar

StartChar: colon
Encoding: 58 58 29
Width: 569
GlyphClass: 2
Flags: HW
LayerCount: 2
Fore
SplineSet
283 0 m 128,-1,1
 203 0 203 0 147 56 c 128,-1,2
 91 112 91 112 91 192 c 128,-1,3
 91 272 91 272 147 327.5 c 128,-1,4
 203 383 203 383 283 383 c 128,-1,5
 363 383 363 383 419.5 327 c 0,6,7
 476 272 476 272 476 192 c 128,-1,8
 476 112 476 112 419.5 56 c 128,-1,0
 363 0 363 0 283 0 c 128,-1,1
283 650 m 128,-1,10
 203 650 203 650 147 706 c 128,-1,11
 91 762 91 762 91 842 c 128,-1,12
 91 922 91 922 147.5 978 c 128,-1,13
 204 1034 204 1034 284 1034 c 128,-1,14
 364 1034 364 1034 420 978 c 128,-1,15
 476 922 476 922 476 842 c 128,-1,16
 476 762 476 762 419.5 706 c 128,-1,9
 363 650 363 650 283 650 c 128,-1,10
EndSplineSet
EndChar

StartChar: semicolon
Encoding: 59 59 30
Width: 584
GlyphClass: 2
Flags: HW
LayerCount: 2
Fore
SplineSet
119 -263 m 1,0,-1
 170 299 l 1,1,-1
 475 299 l 1,2,-1
 282 -263 l 1,3,-1
 119 -263 l 1,0,-1
291 650 m 128,-1,5
 211 650 211 650 155 706 c 128,-1,6
 99 762 99 762 99 842 c 128,-1,7
 99 922 99 922 155.5 978 c 128,-1,8
 212 1034 212 1034 292 1034 c 0,9,10
 372 1034 372 1034 428 978 c 128,-1,11
 484 922 484 922 484 842 c 128,-1,12
 484 762 484 762 427.5 706 c 128,-1,4
 371 650 371 650 291 650 c 128,-1,5
EndSplineSet
EndChar

StartChar: less
Encoding: 60 60 31
Width: 1437
GlyphClass: 2
Flags: HW
LayerCount: 2
Fore
SplineSet
1321 -15 m 1,0,-1
 101 471 l 1,1,-1
 101 678 l 1,2,-1
 1321 1163 l 1,3,-1
 1321 916 l 1,4,5
 493 601 493 601 427 580 c 1,6,7
 1321 234 l 1,8,-1
 1321 -15 l 1,0,-1
EndSplineSet
EndChar

StartChar: equal
Encoding: 61 61 32
Width: 1452
GlyphClass: 2
Flags: HW
LayerCount: 2
Fore
SplineSet
148 228 m 1,0,-1
 148 458 l 1,1,-1
 1307 458 l 1,2,-1
 1307 228 l 1,3,-1
 148 228 l 1,0,-1
148 693 m 1,4,-1
 148 923 l 1,5,-1
 1307 923 l 1,6,-1
 1307 693 l 1,7,-1
 148 693 l 1,4,-1
EndSplineSet
EndChar

StartChar: greater
Encoding: 62 62 33
Width: 1437
GlyphClass: 2
Flags: HW
LayerCount: 2
Fore
SplineSet
119 -15 m 1,0,-1
 119 234 l 1,1,-1
 989 574 l 1,2,-1
 119 916 l 1,3,-1
 119 1163 l 1,4,-1
 1339 678 l 1,5,-1
 1339 470 l 1,6,-1
 119 -15 l 1,0,-1
EndSplineSet
EndChar

StartChar: question
Encoding: 63 63 34
Width: 1052
GlyphClass: 2
Flags: HW
LayerCount: 2
Fore
SplineSet
525 518 m 1,0,-1
 359 535 l 1,1,2
 572 797 572 797 620 929 c 0,3,4
 642 989 642 989 642 1041 c 0,5,6
 642 1142 642 1142 582.5 1194 c 128,-1,7
 523 1246 523 1246 432.5 1246 c 128,-1,8
 342 1246 342 1246 238 1201.5 c 128,-1,9
 134 1157 134 1157 87 1113 c 1,10,-1
 87 1376 l 1,11,12
 241 1466 241 1466 330.5 1484.5 c 128,-1,13
 420 1503 420 1503 484 1503 c 0,14,15
 709 1503 709 1503 839.5 1394.5 c 128,-1,16
 970 1286 970 1286 970 1116 c 0,17,18
 970 986 970 986 910 887 c 0,19,20
 860 804 860 804 823 767 c 128,-1,21
 786 730 786 730 766 710.5 c 128,-1,22
 746 691 746 691 705.5 657.5 c 0,23,24
 664 624 664 624 646 610 c 0,25,26
 598 572 598 572 525 518 c 1,0,-1
424 -19 m 128,-1,28
 339 -19 339 -19 280 40 c 128,-1,29
 221 99 221 99 221 183.5 c 128,-1,30
 221 268 221 268 280.5 328 c 128,-1,31
 340 388 340 388 424.5 388 c 128,-1,32
 509 388 509 388 568.5 328 c 128,-1,33
 628 268 628 268 628 183.5 c 128,-1,34
 628 99 628 99 568.5 40 c 128,-1,27
 509 -19 509 -19 424 -19 c 128,-1,28
EndSplineSet
EndChar

StartChar: at
Encoding: 64 64 35
Width: 1792
GlyphClass: 2
Flags: HW
LayerCount: 2
Fore
SplineSet
1421 8 m 1,0,1
 1217 -137 1217 -137 953 -137 c 0,2,3
 768 -137 768 -137 610.5 -78.5 c 128,-1,4
 453 -20 453 -20 343 83.5 c 128,-1,5
 233 187 233 187 171 334.5 c 128,-1,6
 109 482 109 482 109 655.5 c 128,-1,7
 109 829 109 829 173 980 c 128,-1,8
 237 1131 237 1131 348.5 1237.5 c 128,-1,9
 460 1344 460 1344 617 1405 c 128,-1,10
 774 1466 774 1466 950 1466 c 128,-1,11
 1126 1466 1126 1466 1273 1411 c 128,-1,12
 1420 1356 1420 1356 1523 1259 c 128,-1,13
 1626 1162 1626 1162 1684.5 1025.5 c 128,-1,14
 1743 889 1743 889 1743 732 c 0,15,16
 1743 487 1743 487 1630 336 c 128,-1,17
 1517 185 1517 185 1339 185 c 128,-1,18
 1161 185 1161 185 1114 321 c 1,19,20
 1074 272 1074 272 994.5 241.5 c 128,-1,21
 915 211 915 211 840 211 c 0,22,23
 673 211 673 211 573.5 325.5 c 128,-1,24
 474 440 474 440 474 603 c 0,25,26
 474 822 474 822 596 973.5 c 128,-1,27
 718 1125 718 1125 903 1125 c 0,28,29
 990 1125 990 1125 1031.5 1103.5 c 128,-1,30
 1073 1082 1073 1082 1086.5 1074.5 c 128,-1,31
 1100 1067 1100 1067 1126.5 1044.5 c 128,-1,32
 1153 1022 1153 1022 1155 1021 c 1,33,-1
 1167 1089 l 1,34,-1
 1337 1089 l 1,35,-1
 1270 503 l 2,36,37
 1265 465 1265 465 1265 421 c 128,-1,38
 1265 377 1265 377 1289 349 c 128,-1,39
 1313 321 1313 321 1367 321 c 128,-1,40
 1421 321 1421 321 1462.5 356 c 0,41,42
 1504 392 1504 392 1528 450 c 0,43,44
 1574 563 1574 563 1573.5 723.5 c 128,-1,45
 1573 884 1573 884 1498.5 1018.5 c 128,-1,46
 1424 1153 1424 1153 1284 1229.5 c 128,-1,47
 1144 1306 1144 1306 976 1306 c 128,-1,48
 808 1306 808 1306 680.5 1255 c 0,49,50
 554 1204 554 1204 468 1116 c 0,51,52
 288 930 288 930 288 650.5 c 128,-1,53
 288 371 288 371 469 195.5 c 128,-1,54
 650 20 650 20 955 20 c 0,55,56
 1177 20 1177 20 1372 126 c 1,57,-1
 1421 8 l 1,0,1
1129 869 m 1,58,59
 1052 975 1052 975 934 975 c 128,-1,60
 816 975 816 975 738.5 873 c 128,-1,61
 661 771 661 771 661 630.5 c 128,-1,62
 661 490 661 490 717.5 419.5 c 128,-1,63
 774 349 774 349 873 349 c 128,-1,64
 972 349 972 349 1082 413 c 1,65,-1
 1129 869 l 1,58,59
EndSplineSet
EndChar

StartChar: A
Encoding: 65 65 36
Width: 1397
GlyphClass: 2
Flags: HW
LayerCount: 2
Fore
SplineSet
2 0 m 1,0,-1
 515 1481 l 1,1,-1
 879 1481 l 1,2,-1
 1395 0 l 1,3,-1
 1046 0 l 1,4,-1
 948 305 l 1,5,-1
 446 305 l 1,6,-1
 349 0 l 1,7,-1
 2 0 l 1,0,-1
523 550 m 1,8,-1
 871 550 l 1,9,-1
 695 1117 l 1,10,-1
 523 550 l 1,8,-1
EndSplineSet
EndChar

StartChar: B
Encoding: 66 66 37
Width: 1392
GlyphClass: 2
Flags: HW
LayerCount: 2
Fore
SplineSet
146 0 m 1,0,-1
 146 1481 l 1,1,-1
 565 1481 l 2,2,3
 976 1481 976 1481 1118 1365 c 0,4,5
 1232 1271 1232 1271 1233 1083 c 0,6,7
 1233 989 1233 989 1180.5 912 c 128,-1,8
 1128 835 1128 835 1031 798 c 1,9,-1
 1031 792 l 1,10,11
 1167 765 1167 765 1250 672 c 128,-1,12
 1333 579 1333 579 1333 453.5 c 128,-1,13
 1333 328 1333 328 1287.5 240.5 c 0,14,15
 1242 154 1242 154 1159 102 c 0,16,17
 995 1 995 1 734 0 c 2,18,-1
 146 0 l 1,0,-1
488 244 m 1,19,-1
 715 244 l 2,20,21
 843 244 843 244 910.5 300.5 c 128,-1,22
 978 357 978 357 978 453 c 0,23,24
 978 621 978 621 730 642 c 0,25,26
 682 646 682 646 620 646 c 2,27,-1
 488 646 l 1,28,-1
 488 244 l 1,19,-1
488 876 m 1,29,-1
 595 876 l 2,30,31
 765 876 765 876 838 916 c 128,-1,32
 911 956 911 956 911 1058 c 128,-1,33
 911 1160 911 1160 838.5 1198.5 c 128,-1,34
 766 1237 766 1237 604 1237 c 2,35,-1
 488 1237 l 1,36,-1
 488 876 l 1,29,-1
EndSplineSet
EndChar

StartChar: C
Encoding: 67 67 38
Width: 1355
GlyphClass: 2
Flags: HW
LayerCount: 2
Fore
SplineSet
825 -24 m 0,0,1
 461 -24 461 -24 280 173 c 128,-1,2
 99 370 99 370 99 737.5 c 128,-1,3
 99 1105 99 1105 294.5 1304.5 c 128,-1,4
 490 1504 490 1504 829 1504 c 0,5,6
 1077 1504 1077 1504 1288 1387 c 1,7,-1
 1219 1128 l 1,8,9
 1130 1202 1130 1202 980 1234 c 0,10,11
 920 1247 920 1247 859 1247 c 0,12,13
 448 1247 448 1247 448 738 c 0,14,15
 448 482 448 482 549.5 357.5 c 128,-1,16
 651 233 651 233 863 233 c 0,17,18
 951 233 951 233 1043 262 c 128,-1,19
 1135 291 1135 291 1182 320 c 1,20,-1
 1230 348 l 1,21,-1
 1289 103 l 1,22,23
 1181 39 1181 39 1072.5 7.5 c 128,-1,24
 964 -24 964 -24 825 -24 c 0,0,1
EndSplineSet
EndChar

StartChar: D
Encoding: 68 68 39
Width: 1514
GlyphClass: 2
Flags: HW
LayerCount: 2
Fore
SplineSet
489 249 m 1,0,-1
 632 249 l 2,1,2
 865 249 865 249 966 361.5 c 128,-1,3
 1067 474 1067 474 1067 728.5 c 128,-1,4
 1067 983 1067 983 967.5 1107.5 c 128,-1,5
 868 1232 868 1232 680 1232 c 2,6,-1
 489 1232 l 1,7,-1
 489 249 l 1,0,-1
146 0 m 1,8,-1
 146 1481 l 1,9,-1
 596 1481 l 2,10,11
 1210 1481 1210 1481 1360 1083 c 0,12,13
 1414 939 1414 939 1414.5 758 c 128,-1,14
 1415 577 1415 577 1378 452 c 128,-1,15
 1341 327 1341 327 1272.5 242 c 0,16,17
 1204 156 1204 156 1102 102 c 0,18,19
 909 0 909 0 594 0 c 2,20,-1
 146 0 l 1,8,-1
EndSplineSet
EndChar

StartChar: E
Encoding: 69 69 40
Width: 1203
GlyphClass: 2
Flags: HW
LayerCount: 2
Fore
SplineSet
146 0 m 1,0,-1
 146 1481 l 1,1,-1
 1127 1481 l 1,2,-1
 1127 1233 l 1,3,-1
 488 1233 l 1,4,-1
 488 900 l 1,5,-1
 1042 900 l 1,6,-1
 1042 653 l 1,7,-1
 488 653 l 1,8,-1
 488 249 l 1,9,-1
 1126 249 l 1,10,-1
 1126 0 l 1,11,-1
 146 0 l 1,0,-1
EndSplineSet
EndChar

StartChar: F
Encoding: 70 70 41
Width: 1167
GlyphClass: 2
Flags: HW
LayerCount: 2
Fore
SplineSet
146 0 m 1,0,-1
 146 1481 l 1,1,-1
 1137 1481 l 1,2,-1
 1137 1232 l 1,3,-1
 488 1232 l 1,4,-1
 488 883 l 1,5,-1
 1079 883 l 1,6,-1
 1079 636 l 1,7,-1
 488 636 l 1,8,-1
 488 0 l 1,9,-1
 146 0 l 1,0,-1
EndSplineSet
EndChar

StartChar: G
Encoding: 71 71 42
Width: 1473
GlyphClass: 2
Flags: HW
LayerCount: 2
Fore
SplineSet
851 233 m 0,0,1
 968 233 968 233 1100 266 c 1,2,-1
 1100 595 l 1,3,-1
 754 595 l 1,4,-1
 754 831 l 1,5,-1
 1367 831 l 1,6,-1
 1367 132 l 1,7,8
 1297 69 1297 69 1143 22.5 c 128,-1,9
 989 -24 989 -24 824 -24 c 0,10,11
 465 -24 465 -24 282 177.5 c 128,-1,12
 99 379 99 379 99 745.5 c 128,-1,13
 99 1112 99 1112 286.5 1308 c 128,-1,14
 474 1504 474 1504 831 1504 c 0,15,16
 952 1504 952 1504 1052.5 1481.5 c 128,-1,17
 1153 1459 1153 1459 1209.5 1432.5 c 128,-1,18
 1266 1406 1266 1406 1341 1360 c 1,19,-1
 1274 1112 l 1,20,21
 1274 1120 1274 1120 1217 1150.5 c 0,22,23
 1160 1180 1160 1180 1114 1200 c 0,24,25
 1003 1246 1003 1246 880 1247 c 0,26,27
 657 1247 657 1247 552.5 1122.5 c 128,-1,28
 448 998 448 998 448 743 c 128,-1,29
 448 488 448 488 545.5 360.5 c 128,-1,30
 643 233 643 233 851 233 c 0,0,1
EndSplineSet
EndChar

StartChar: H
Encoding: 72 72 43
Width: 1512
GlyphClass: 2
Flags: HW
LayerCount: 2
Fore
SplineSet
146 0 m 1,0,-1
 146 1481 l 1,1,-1
 489 1481 l 1,2,-1
 489 894 l 1,3,-1
 1023 894 l 1,4,-1
 1023 1481 l 1,5,-1
 1367 1481 l 1,6,-1
 1367 0 l 1,7,-1
 1023 0 l 1,8,-1
 1023 646 l 1,9,-1
 489 646 l 1,10,-1
 489 0 l 1,11,-1
 146 0 l 1,0,-1
EndSplineSet
EndChar

StartChar: I
Encoding: 73 73 44
Width: 901
GlyphClass: 2
Flags: HW
LayerCount: 2
Fore
SplineSet
64 0 m 1,0,-1
 64 249 l 1,1,-1
 277 249 l 1,2,-1
 277 1232 l 1,3,-1
 64 1232 l 1,4,-1
 64 1481 l 1,5,-1
 833 1481 l 1,6,-1
 833 1232 l 1,7,-1
 620 1232 l 1,8,-1
 620 249 l 1,9,-1
 833 249 l 1,10,-1
 833 0 l 1,11,-1
 64 0 l 1,0,-1
EndSplineSet
EndChar

StartChar: J
Encoding: 74 74 45
Width: 1061
GlyphClass: 2
Flags: HW
LayerCount: 2
Fore
SplineSet
772.5 101 m 128,-1,1
 630 -24 630 -24 399 -24 c 128,-1,2
 168 -24 168 -24 24 62 c 1,3,-1
 84 304 l 1,4,5
 133 276 133 276 212 254.5 c 128,-1,6
 291 233 291 233 356 233 c 0,7,8
 468 233 468 233 520 313 c 128,-1,9
 572 393 572 393 572 566 c 2,10,-1
 572 1210 l 1,11,-1
 290 1210 l 1,12,-1
 290 1481 l 1,13,-1
 915 1481 l 1,14,-1
 915 443 l 2,15,0
 915 226 915 226 772.5 101 c 128,-1,1
EndSplineSet
EndChar

StartChar: K
Encoding: 75 75 46
Width: 1435
GlyphClass: 2
Flags: HW
LayerCount: 2
Fore
SplineSet
146 0 m 1,0,-1
 146 1481 l 1,1,-1
 488 1481 l 1,2,-1
 488 799 l 1,3,-1
 489 799 l 1,4,-1
 656 1012 l 1,5,6
 704 1079 704 1079 838.5 1252.5 c 128,-1,7
 973 1426 973 1426 1012 1481 c 1,8,-1
 1412 1481 l 1,9,-1
 913 833 l 1,10,-1
 1441 0 l 1,11,-1
 1036 0 l 1,12,13
 1034 4 1034 4 904.5 220 c 128,-1,14
 775 436 775 436 717 535 c 1,15,-1
 642 657 l 1,16,-1
 488 478 l 1,17,-1
 488 0 l 1,18,-1
 146 0 l 1,0,-1
EndSplineSet
EndChar

StartChar: L
Encoding: 76 76 47
Width: 1148
GlyphClass: 2
Flags: HW
LayerCount: 2
Fore
SplineSet
146 0 m 1,0,-1
 146 1481 l 1,1,-1
 489 1481 l 1,2,-1
 489 249 l 1,3,-1
 1124 249 l 1,4,-1
 1124 0 l 1,5,-1
 146 0 l 1,0,-1
EndSplineSet
EndChar

StartChar: M
Encoding: 77 77 48
Width: 1780
GlyphClass: 2
Flags: HW
LayerCount: 2
Fore
SplineSet
146 0 m 1,0,-1
 146 1481 l 1,1,-1
 516 1481 l 1,2,-1
 893 687 l 1,3,-1
 1271 1481 l 1,4,-1
 1635 1481 l 1,5,-1
 1635 0 l 1,6,-1
 1293 0 l 1,7,-1
 1293 748 l 1,8,9
 1298 929 l 1,10,-1
 1010 324 l 1,11,-1
 759 324 l 1,12,-1
 473 929 l 1,13,14
 477 782 477 782 477 748 c 2,15,-1
 477 0 l 1,16,-1
 146 0 l 1,0,-1
EndSplineSet
EndChar

StartChar: N
Encoding: 78 78 49
Width: 1584
GlyphClass: 2
Flags: HW
LayerCount: 2
Fore
SplineSet
146 0 m 1,0,-1
 146 1481 l 1,1,-1
 505 1481 l 1,2,3
 1113 598 1113 598 1121 586 c 1,4,-1
 1115 836 l 1,5,-1
 1115 1481 l 1,6,-1
 1439 1481 l 1,7,-1
 1439 0 l 1,8,-1
 1123 0 l 1,9,-1
 464 998 l 1,10,11
 470 761 470 761 470 724 c 2,12,-1
 470 0 l 1,13,-1
 146 0 l 1,0,-1
EndSplineSet
EndChar

StartChar: O
Encoding: 79 79 50
Width: 1577
GlyphClass: 2
Flags: HW
LayerCount: 2
Fore
SplineSet
626.5 269.5 m 128,-1,1
 695 233 695 233 790.5 233 c 128,-1,2
 886 233 886 233 953.5 271 c 0,3,4
 1021 310 1021 310 1059 380 c 0,5,6
 1130 512 1130 512 1130 740 c 0,7,8
 1130 1032 1130 1032 1022 1154 c 0,9,10
 940 1246 940 1246 791 1247 c 1,11,12
 503 1247 503 1247 458 909 c 0,13,14
 448 834 448 834 448 728.5 c 128,-1,15
 448 623 448 623 465 534 c 128,-1,16
 482 445 482 445 520 375.5 c 128,-1,0
 558 306 558 306 626.5 269.5 c 128,-1,1
1304 175 m 128,-1,18
 1130 -24 1130 -24 789.5 -24 c 128,-1,19
 449 -24 449 -24 274 175 c 128,-1,20
 99 374 99 374 99 741 c 128,-1,21
 99 1108 99 1108 274.5 1306 c 128,-1,22
 450 1504 450 1504 790 1504 c 128,-1,23
 1130 1504 1130 1504 1304 1306.5 c 128,-1,24
 1478 1109 1478 1109 1478 741.5 c 128,-1,17
 1478 374 1478 374 1304 175 c 128,-1,18
EndSplineSet
EndChar

StartChar: P
Encoding: 80 80 51
Width: 1328
GlyphClass: 2
Flags: HW
LayerCount: 2
Fore
SplineSet
146 0 m 1,0,-1
 146 1481 l 1,1,-1
 724 1481 l 2,2,3
 1030 1480 1030 1480 1178 1324 c 0,4,5
 1286 1210 1286 1210 1285.5 999.5 c 128,-1,6
 1285 789 1285 789 1129 661 c 128,-1,7
 973 533 973 533 701 533 c 2,8,-1
 489 533 l 1,9,-1
 489 0 l 1,10,-1
 146 0 l 1,0,-1
489 777 m 1,11,-1
 562 777 l 2,12,13
 788 778 788 778 864 836 c 0,14,15
 936 892 936 892 937 1010 c 0,16,17
 936 1144 936 1144 840 1194 c 0,18,19
 757 1237 757 1237 619 1237 c 2,20,-1
 489 1237 l 1,21,-1
 489 777 l 1,11,-1
EndSplineSet
EndChar

StartChar: Q
Encoding: 81 81 52
Width: 1577
GlyphClass: 2
Flags: HW
LayerCount: 2
Fore
SplineSet
790 -24 m 0,0,1
 449 -24 449 -24 274 175 c 128,-1,2
 99 374 99 374 99 741 c 128,-1,3
 99 1108 99 1108 274.5 1306 c 128,-1,4
 450 1504 450 1504 790 1504 c 128,-1,5
 1130 1504 1130 1504 1304 1306.5 c 128,-1,6
 1478 1109 1478 1109 1478 740 c 0,7,8
 1478 457 1478 457 1373.5 272.5 c 128,-1,9
 1269 88 1269 88 1063 17 c 1,10,-1
 1215 -330 l 1,11,-1
 1030 -412 l 1,12,-1
 855 -22 l 1,13,14
 813 -24 813 -24 790 -24 c 0,0,1
952 270 m 1,15,16
 1130 370 1130 370 1130 740 c 0,17,18
 1130 1113 1130 1113 953 1211 c 0,19,20
 886 1248 886 1248 799.5 1248 c 128,-1,21
 713 1248 713 1248 654 1223.5 c 128,-1,22
 595 1199 595 1199 556 1156 c 0,23,24
 516 1112 516 1112 492 1048 c 0,25,26
 448 931 448 931 448 781 c 128,-1,27
 448 631 448 631 462.5 546.5 c 128,-1,28
 477 462 477 462 510 394 c 0,29,30
 577 255 577 255 740 235 c 1,31,-1
 651 433 l 1,32,-1
 881 433 l 1,33,-1
 952 270 l 1,15,16
EndSplineSet
EndChar

StartChar: R
Encoding: 82 82 53
Width: 1415
GlyphClass: 2
Flags: HW
LayerCount: 2
Fore
SplineSet
146 0 m 1,0,-1
 146 1481 l 1,1,-1
 641 1481 l 2,2,3
 833 1481 833 1481 903.5 1469 c 128,-1,4
 974 1457 974 1457 1028.5 1442 c 128,-1,5
 1083 1427 1083 1427 1120 1406.5 c 128,-1,6
 1157 1386 1157 1386 1196 1354 c 0,7,8
 1234 1322 1234 1322 1258 1282 c 0,9,10
 1312 1191 1312 1191 1312 1046.5 c 128,-1,11
 1312 902 1312 902 1242 804.5 c 128,-1,12
 1172 707 1172 707 1013 648 c 1,13,-1
 1374 72 l 1,14,-1
 1374 0 l 1,15,-1
 1021 0 l 1,16,-1
 687 595 l 1,17,-1
 488 595 l 1,18,-1
 488 0 l 1,19,-1
 146 0 l 1,0,-1
488 839 m 1,20,-1
 666 839 l 2,21,22
 824 839 824 839 895.5 883 c 128,-1,23
 967 927 967 927 967 1037.5 c 128,-1,24
 967 1148 967 1148 898.5 1192.5 c 128,-1,25
 830 1237 830 1237 658 1237 c 2,26,-1
 488 1237 l 1,27,-1
 488 839 l 1,20,-1
EndSplineSet
EndChar

StartChar: S
Encoding: 83 83 54
Width: 1325
GlyphClass: 2
Flags: HW
LayerCount: 2
Fore
SplineSet
1081.5 103 m 128,-1,1
 910 -24 910 -24 615.5 -24 c 128,-1,2
 321 -24 321 -24 77 125 c 1,3,-1
 123 390 l 1,4,-1
 175 390 l 1,5,6
 270 313 270 313 392 273 c 128,-1,7
 514 233 514 233 633.5 233 c 128,-1,8
 753 233 753 233 830.5 275.5 c 128,-1,9
 908 318 908 318 908 401.5 c 128,-1,10
 908 485 908 485 834 529 c 0,11,12
 781 560 781 560 616 599 c 0,13,14
 607 602 607 602 587 606 c 2,15,-1
 539 618 l 1,16,17
 306 675 306 675 208 770.5 c 128,-1,18
 110 866 110 866 110 1057 c 128,-1,19
 110 1248 110 1248 274.5 1376 c 128,-1,20
 439 1504 439 1504 694 1504 c 0,21,22
 969 1504 969 1504 1200 1383 c 1,23,-1
 1159 1122 l 1,24,-1
 1108 1122 l 1,25,26
 924 1247 924 1247 693 1247 c 0,27,28
 574 1247 574 1247 510 1200.5 c 128,-1,29
 446 1154 446 1154 446 1079 c 128,-1,30
 446 1004 446 1004 510 967 c 128,-1,31
 574 930 574 930 752 895 c 1,32,33
 1023 836 1023 836 1138 733 c 128,-1,34
 1253 630 1253 630 1253 430 c 128,-1,0
 1253 230 1253 230 1081.5 103 c 128,-1,1
EndSplineSet
EndChar

StartChar: T
Encoding: 84 84 55
Width: 1191
GlyphClass: 2
Flags: HW
LayerCount: 2
Fore
SplineSet
424 0 m 1,0,-1
 424 1232 l 1,1,-1
 0 1232 l 1,2,-1
 0 1481 l 1,3,-1
 1192 1481 l 1,4,-1
 1192 1232 l 1,5,-1
 769 1232 l 1,6,-1
 769 0 l 1,7,-1
 424 0 l 1,0,-1
EndSplineSet
EndChar

StartChar: U
Encoding: 85 85 56
Width: 1478
GlyphClass: 2
Flags: HW
LayerCount: 2
Fore
SplineSet
1189 115 m 128,-1,1
 1028 -24 1028 -24 742 -24 c 128,-1,2
 456 -24 456 -24 292 114 c 128,-1,3
 128 252 128 252 128 496 c 2,4,-1
 128 1481 l 1,5,-1
 472 1481 l 1,6,-1
 472 516 l 2,7,8
 472 233 472 233 739.5 233 c 128,-1,9
 1007 233 1007 233 1007 518 c 2,10,-1
 1007 1481 l 1,11,-1
 1350 1481 l 1,12,-1
 1350 497 l 2,13,0
 1350 254 1350 254 1189 115 c 128,-1,1
EndSplineSet
EndChar

StartChar: V
Encoding: 86 86 57
Width: 1346
GlyphClass: 2
Flags: HW
LayerCount: 2
Fore
SplineSet
503 0 m 1,0,-1
 -21 1481 l 1,1,-1
 337 1481 l 1,2,3
 365 1391 365 1391 476 1055 c 128,-1,4
 587 719 587 719 616 629 c 2,5,-1
 677 436 l 1,6,-1
 679 436 l 1,7,8
 686 464 686 464 709.5 539 c 128,-1,9
 733 614 733 614 750 670 c 0,10,11
 767 726 767 726 878.5 1062 c 128,-1,12
 990 1398 990 1398 1016 1481 c 1,13,-1
 1368 1481 l 1,14,-1
 847 0 l 1,15,-1
 503 0 l 1,0,-1
EndSplineSet
EndChar

StartChar: W
Encoding: 87 87 58
Width: 2038
GlyphClass: 2
Flags: HW
LayerCount: 2
Fore
SplineSet
1460 485 m 1,0,-1
 1684 1481 l 1,1,-1
 2034 1481 l 1,2,-1
 1644 0 l 1,3,-1
 1288 0 l 1,4,5
 1269 68 1269 68 1206 302 c 0,6,7
 1044 903 1044 903 1020 981 c 1,8,-1
 745 0 l 1,9,-1
 393 0 l 1,10,-1
 5 1481 l 1,11,-1
 362 1481 l 1,12,13
 379 1397 379 1397 443 1108 c 128,-1,14
 507 819 507 819 525 731 c 2,15,-1
 577 483 l 1,16,-1
 580 483 l 1,17,-1
 655 759 l 2,18,19
 679 849 679 849 758 1132.5 c 128,-1,20
 837 1416 837 1416 855 1481 c 1,21,-1
 1194 1481 l 1,22,-1
 1395 727 l 1,23,24
 1443 533 1443 533 1460 485 c 1,0,-1
EndSplineSet
EndChar

StartChar: X
Encoding: 88 88 59
Width: 1375
GlyphClass: 2
Flags: HW
LayerCount: 2
Fore
SplineSet
-22 0 m 1,0,-1
 482 750 l 1,1,-1
 4 1481 l 1,2,-1
 393 1481 l 1,3,4
 410 1452 410 1452 494.5 1321.5 c 0,5,6
 578 1190 578 1190 594 1164 c 128,-1,7
 610 1138 610 1138 643.5 1084.5 c 128,-1,8
 677 1031 677 1031 688 1011 c 1,9,10
 695 1022 695 1022 730.5 1076.5 c 128,-1,11
 766 1131 766 1131 780 1155 c 1,12,-1
 991 1481 l 1,13,-1
 1378 1481 l 1,14,-1
 891 755 l 1,15,-1
 1389 0 l 1,16,-1
 995 0 l 1,17,-1
 777 347 l 2,18,19
 767 363 767 363 730 419.5 c 128,-1,20
 693 476 693 476 682 494 c 1,21,22
 671 476 671 476 634.5 420 c 128,-1,23
 598 364 598 364 587 346 c 2,24,-1
 363 0 l 1,25,-1
 -22 0 l 1,0,-1
EndSplineSet
EndChar

StartChar: Y
Encoding: 89 89 60
Width: 1360
GlyphClass: 2
Flags: HW
LayerCount: 2
Fore
SplineSet
512 0 m 1,0,-1
 512 614 l 1,1,-1
 -22 1481 l 1,2,-1
 350 1481 l 1,3,-1
 690 924 l 1,4,-1
 1021 1481 l 1,5,-1
 1382 1481 l 1,6,-1
 852 626 l 1,7,-1
 852 0 l 1,8,-1
 512 0 l 1,0,-1
EndSplineSet
EndChar

StartChar: Z
Encoding: 90 90 61
Width: 1204
GlyphClass: 2
Flags: HW
LayerCount: 2
Fore
SplineSet
67 0 m 1,0,-1
 67 246 l 1,1,-1
 716 1232 l 1,2,-1
 102 1232 l 1,3,-1
 102 1481 l 1,4,-1
 1131 1481 l 1,5,-1
 1131 1236 l 1,6,-1
 485 249 l 1,7,-1
 1166 249 l 1,8,-1
 1166 0 l 1,9,-1
 67 0 l 1,0,-1
EndSplineSet
EndChar

StartChar: bracketleft
Encoding: 91 91 62
Width: 792
GlyphClass: 2
Flags: HW
LayerCount: 2
Fore
SplineSet
128 -337 m 1,0,-1
 128 1481 l 1,1,-1
 699 1481 l 1,2,-1
 699 1268 l 1,3,-1
 418 1268 l 1,4,-1
 418 -125 l 1,5,-1
 699 -125 l 1,6,-1
 699 -337 l 1,7,-1
 128 -337 l 1,0,-1
EndSplineSet
EndChar

StartChar: backslash
Encoding: 92 92 63
Width: 1040
GlyphClass: 2
Flags: HW
LayerCount: 2
Fore
SplineSet
662 0 m 1,0,-1
 141 1481 l 1,1,-1
 421 1481 l 1,2,-1
 943 0 l 1,3,-1
 662 0 l 1,0,-1
EndSplineSet
EndChar

StartChar: bracketright
Encoding: 93 93 64
Width: 792
GlyphClass: 2
Flags: HW
LayerCount: 2
Fore
SplineSet
94 -337 m 1,0,-1
 94 -125 l 1,1,-1
 377 -125 l 1,2,-1
 377 1268 l 1,3,-1
 94 1268 l 1,4,-1
 94 1481 l 1,5,-1
 666 1481 l 1,6,-1
 666 -337 l 1,7,-1
 94 -337 l 1,0,-1
EndSplineSet
EndChar

StartChar: asciicircum
Encoding: 94 94 65
Width: 1448
GlyphClass: 2
Flags: HW
LayerCount: 2
Fore
SplineSet
117 601 m 1,0,-1
 596 1395 l 1,1,-1
 828 1395 l 1,2,-1
 1333 603 l 1,3,-1
 1043 603 l 1,4,-1
 711 1143 l 1,5,-1
 406 601 l 1,6,-1
 117 601 l 1,0,-1
EndSplineSet
EndChar

StartChar: underscore
Encoding: 95 95 66
Width: 1041
GlyphClass: 2
Flags: HW
LayerCount: 2
Fore
SplineSet
-8 -254 m 1,0,-1
 -8 -93 l 1,1,-1
 1050 -93 l 1,2,-1
 1050 -254 l 1,3,-1
 -8 -254 l 1,0,-1
EndSplineSet
EndChar

StartChar: grave
Encoding: 96 96 67
Width: 736
GlyphClass: 2
Flags: HW
LayerCount: 2
Fore
SplineSet
393 1160 m 1,0,-1
 108 1506 l 1,1,-1
 410 1506 l 1,2,-1
 606 1160 l 1,3,-1
 393 1160 l 1,0,-1
EndSplineSet
EndChar

StartChar: a
Encoding: 97 97 68
Width: 1122
GlyphClass: 2
Flags: HW
LayerCount: 2
Fore
SplineSet
590 42 m 128,-1,1
 505 -22 505 -22 374 -22 c 128,-1,2
 243 -22 243 -22 151.5 68 c 128,-1,3
 60 158 60 158 60 295 c 0,4,5
 60 451 60 451 152 527 c 0,6,7
 247 606 247 606 389 628 c 0,8,9
 527 650 527 650 717 649 c 1,10,11
 717 751 717 751 673.5 793 c 128,-1,12
 630 835 630 835 532 835 c 0,13,14
 345 835 345 835 193 771 c 1,15,-1
 132 978 l 1,16,17
 174 1005 174 1005 293.5 1032 c 128,-1,18
 413 1059 413 1059 523 1059 c 0,19,20
 787 1059 787 1059 906 968.5 c 128,-1,21
 1025 878 1025 878 1025 693 c 2,22,-1
 1025 0 l 1,23,-1
 716 0 l 1,24,-1
 716 210 l 1,25,0
 675 106 675 106 590 42 c 128,-1,1
494 186 m 0,26,27
 592 186 592 186 654.5 259 c 128,-1,28
 717 332 717 332 717 498 c 1,29,30
 542 486 542 486 476.5 460.5 c 128,-1,31
 411 435 411 435 388.5 402.5 c 128,-1,32
 366 370 366 370 366 315.5 c 128,-1,33
 366 261 366 261 401.5 223.5 c 128,-1,34
 437 186 437 186 494 186 c 0,26,27
EndSplineSet
EndChar

StartChar: b
Encoding: 98 98 69
Width: 1226
GlyphClass: 2
Flags: HW
LayerCount: 2
Fore
SplineSet
710 -22 m 0,0,1
 624 -22 624 -22 550.5 14.5 c 128,-1,2
 477 51 477 51 427 110 c 1,3,-1
 427 0 l 1,4,-1
 118 0 l 1,5,-1
 118 1481 l 1,6,-1
 427 1481 l 1,7,-1
 427 933 l 1,8,9
 562 1059 562 1059 754 1059 c 128,-1,10
 946 1059 946 1059 1046.5 919.5 c 128,-1,11
 1147 780 1147 780 1147 531 c 128,-1,12
 1147 282 1147 282 1031 130 c 128,-1,13
 915 -22 915 -22 710 -22 c 0,0,1
594 215 m 0,14,15
 832 215 832 215 832 530 c 0,16,17
 832 676 832 676 773 749 c 128,-1,18
 714 822 714 822 605 822 c 0,19,20
 554 822 554 822 498.5 799.5 c 128,-1,21
 443 777 443 777 427 764 c 1,22,-1
 427 247 l 1,23,24
 441 238 441 238 499.5 226.5 c 128,-1,25
 558 215 558 215 594 215 c 0,14,15
EndSplineSet
EndChar

StartChar: c
Encoding: 99 99 70
Width: 1059
GlyphClass: 2
Flags: HW
LayerCount: 2
Fore
SplineSet
639 -22 m 0,0,1
 402 -22 402 -22 246 106 c 0,2,3
 82 241 82 241 81 515 c 0,4,5
 81 658 81 658 127.5 766.5 c 128,-1,6
 174 875 174 875 254 937 c 0,7,8
 410 1059 410 1059 619 1059 c 128,-1,9
 828 1059 828 1059 1010 957 c 1,10,-1
 963 739 l 1,11,12
 910 780 910 780 829.5 807.5 c 128,-1,13
 749 835 749 835 680 835 c 0,14,15
 554 835 554 835 474.5 755.5 c 128,-1,16
 395 676 395 676 395 515.5 c 128,-1,17
 395 355 395 355 471.5 278.5 c 128,-1,18
 548 202 548 202 686.5 202 c 128,-1,19
 825 202 825 202 962 293 c 1,20,-1
 1010 77 l 1,21,22
 830 -22 830 -22 639 -22 c 0,0,1
EndSplineSet
EndChar

StartChar: d
Encoding: 100 100 71
Width: 1219
GlyphClass: 2
Flags: HW
LayerCount: 2
Fore
SplineSet
795 121 m 1,0,1
 699 -22 699 -22 518 -22 c 0,2,3
 382 -22 382 -22 282 48 c 0,4,5
 80 191 80 191 81 525 c 0,6,7
 81 780 81 780 191 919.5 c 128,-1,8
 301 1059 301 1059 516 1059 c 0,9,10
 666 1059 666 1059 795 961 c 1,11,-1
 795 1481 l 1,12,-1
 1104 1481 l 1,13,-1
 1104 0 l 1,14,-1
 795 0 l 1,15,-1
 795 121 l 1,0,1
456.5 287.5 m 128,-1,17
 519 202 519 202 621.5 202 c 128,-1,18
 724 202 724 202 795 238 c 1,19,-1
 795 776 l 1,20,21
 705 835 705 835 600.5 835 c 128,-1,22
 496 835 496 835 445 747 c 128,-1,23
 394 659 394 659 394 516 c 128,-1,16
 394 373 394 373 456.5 287.5 c 128,-1,17
EndSplineSet
EndChar

StartChar: e
Encoding: 101 101 72
Width: 1162
GlyphClass: 2
Flags: HW
LayerCount: 2
Fore
SplineSet
694 202 m 0,0,1
 862 202 862 202 987 289 c 1,2,-1
 1031 289 l 1,3,-1
 1077 93 l 1,4,5
 922 -22 922 -22 665 -22 c 0,6,7
 402 -22 402 -22 244 107 c 0,8,9
 80 240 80 240 80 507.5 c 128,-1,10
 80 775 80 775 224 917 c 128,-1,11
 368 1059 368 1059 604.5 1059 c 128,-1,12
 841 1059 841 1059 966.5 924.5 c 128,-1,13
 1092 790 1092 790 1092 561 c 2,14,-1
 1092 446 l 1,15,-1
 390 446 l 1,16,17
 406 202 406 202 694 202 c 0,0,1
388 634 m 1,18,-1
 821 634 l 1,19,20
 817 736 817 736 763 796 c 128,-1,21
 709 856 709 856 611 856 c 128,-1,22
 513 856 513 856 455 794.5 c 128,-1,23
 397 733 397 733 388 634 c 1,18,-1
EndSplineSet
EndChar

StartChar: f
Encoding: 102 102 73
Width: 736
GlyphClass: 2
Flags: HW
LayerCount: 2
Fore
SplineSet
172 0 m 1,0,-1
 172 835 l 1,1,-1
 26 835 l 1,2,-1
 26 1035 l 1,3,-1
 172 1035 l 1,4,-1
 172 1076 l 2,5,6
 172 1265 172 1265 264.5 1354 c 128,-1,7
 357 1443 357 1443 557 1443 c 0,8,9
 632 1443 632 1443 751 1430 c 1,10,-1
 751 1214 l 1,11,12
 649 1225 649 1225 617 1225 c 0,13,14
 541 1225 541 1225 506.5 1185 c 128,-1,15
 472 1145 472 1145 472 1035 c 1,16,-1
 729 1035 l 1,17,-1
 729 835 l 1,18,-1
 481 835 l 1,19,-1
 481 0 l 1,20,-1
 172 0 l 1,0,-1
EndSplineSet
EndChar

StartChar: g
Encoding: 103 103 74
Width: 1183
GlyphClass: 2
Flags: HW
LayerCount: 2
Fore
SplineSet
165 -317 m 1,0,-1
 216 -102 l 1,1,2
 267 -125 267 -125 354 -146.5 c 128,-1,3
 441 -168 441 -168 524 -168 c 0,4,5
 663 -168 663 -168 717.5 -111.5 c 128,-1,6
 772 -55 772 -55 774 79 c 1,7,-1
 774 108 l 1,8,9
 737 58 737 58 673 29 c 128,-1,10
 609 0 609 0 538 0 c 0,11,12
 321 0 321 0 201 137 c 128,-1,13
 81 274 81 274 81 527.5 c 128,-1,14
 81 781 81 781 187.5 920 c 128,-1,15
 294 1059 294 1059 485 1059 c 128,-1,16
 676 1059 676 1059 766 924 c 1,17,-1
 764 1035 l 1,18,-1
 1081 1035 l 1,19,-1
 1081 96 l 2,20,21
 1081 -216 1081 -216 868 -332 c 0,22,23
 744 -399 744 -399 543 -399 c 128,-1,24
 342 -399 342 -399 165 -317 c 1,0,-1
394 543 m 0,25,26
 394 226 394 226 596 226 c 0,27,28
 692 226 692 226 766 287 c 1,29,-1
 766 799 l 1,30,31
 680 835 680 835 613 835 c 0,32,33
 514 835 514 835 454 759 c 128,-1,34
 394 683 394 683 394 543 c 0,25,26
EndSplineSet
EndChar

StartChar: h
Encoding: 104 104 75
Width: 1186
GlyphClass: 2
Flags: HW
LayerCount: 2
Fore
SplineSet
119 0 m 1,0,-1
 119 1481 l 1,1,-1
 428 1481 l 1,2,-1
 428 870 l 1,3,4
 450 913 450 913 507 963 c 0,5,6
 619 1059 619 1059 759.5 1059 c 128,-1,7
 900 1059 900 1059 992.5 961 c 128,-1,8
 1085 863 1085 863 1085 684 c 2,9,-1
 1085 0 l 1,10,-1
 776 0 l 1,11,-1
 776 592 l 2,12,13
 776 714 776 714 738 766 c 128,-1,14
 700 818 700 818 621 818 c 128,-1,15
 542 818 542 818 485 768 c 128,-1,16
 428 718 428 718 428 662 c 2,17,-1
 428 0 l 1,18,-1
 119 0 l 1,0,-1
EndSplineSet
EndChar

StartChar: i
Encoding: 105 105 76
Width: 603
GlyphClass: 2
Flags: HW
LayerCount: 2
Fore
SplineSet
147 0 m 1,0,-1
 147 1035 l 1,1,-1
 456 1035 l 1,2,-1
 456 0 l 1,3,-1
 147 0 l 1,0,-1
301 1224 m 128,-1,5
 220 1224 220 1224 177 1263 c 128,-1,6
 134 1302 134 1302 134 1364 c 128,-1,7
 134 1426 134 1426 177 1465 c 128,-1,8
 220 1504 220 1504 301 1504 c 128,-1,9
 382 1504 382 1504 425.5 1465.5 c 0,10,11
 469 1426 469 1426 469 1364 c 128,-1,12
 469 1302 469 1302 425.5 1263 c 128,-1,4
 382 1224 382 1224 301 1224 c 128,-1,5
EndSplineSet
EndChar

StartChar: j
Encoding: 106 106 77
Width: 626
GlyphClass: 2
Flags: HW
LayerCount: 2
Fore
SplineSet
352 1224 m 128,-1,1
 271 1224 271 1224 228 1263 c 128,-1,2
 185 1302 185 1302 185 1364.5 c 128,-1,3
 185 1427 185 1427 228 1465.5 c 128,-1,4
 271 1504 271 1504 352 1504 c 128,-1,5
 433 1504 433 1504 476.5 1465.5 c 128,-1,6
 520 1427 520 1427 520 1364.5 c 128,-1,7
 520 1302 520 1302 476.5 1263 c 128,-1,0
 433 1224 433 1224 352 1224 c 128,-1,1
131 -391 m 0,8,9
 53 -391 53 -391 -75 -379 c 1,10,-1
 -75 -159 l 1,11,12
 -20 -164 -20 -164 23.5 -164 c 128,-1,13
 67 -164 67 -164 94 -156.5 c 0,14,15
 120 -150 120 -150 144 -126 c 0,16,17
 190 -80 190 -80 190 66 c 2,18,-1
 190 1035 l 1,19,-1
 499 1035 l 1,20,-1
 499 -42 l 2,21,22
 499 -207 499 -207 401.5 -299 c 128,-1,23
 304 -391 304 -391 131 -391 c 0,8,9
EndSplineSet
EndChar

StartChar: k
Encoding: 107 107 78
Width: 1160
GlyphClass: 2
Flags: HW
LayerCount: 2
Fore
SplineSet
118 0 m 1,0,-1
 118 1481 l 1,1,-1
 427 1481 l 1,2,-1
 427 624 l 1,3,-1
 799 1035 l 1,4,-1
 1127 1035 l 1,5,-1
 1127 991 l 1,6,-1
 777 610 l 1,7,-1
 1144 73 l 1,8,-1
 1144 0 l 1,9,-1
 832 0 l 1,10,-1
 526 467 l 1,11,-1
 427 366 l 1,12,-1
 427 0 l 1,13,-1
 118 0 l 1,0,-1
EndSplineSet
EndChar

StartChar: l
Encoding: 108 108 79
Width: 634
GlyphClass: 2
Flags: HW
LayerCount: 2
Fore
SplineSet
505 -2 m 2,0,1
 269 -2 269 -2 192 82 c 0,2,3
 164 112 164 112 150 135 c 128,-1,4
 136 158 136 158 129 202 c 0,5,6
 120 258 120 258 120 304 c 2,7,-1
 120 1481 l 1,8,-1
 428 1481 l 1,9,-1
 428 340 l 2,10,11
 428 268 428 268 464.5 240 c 128,-1,12
 501 212 501 212 590 212 c 1,13,-1
 590 -2 l 1,14,-1
 505 -2 l 2,0,1
EndSplineSet
EndChar

StartChar: m
Encoding: 109 109 80
Width: 1784
GlyphClass: 2
Flags: HW
LayerCount: 2
Fore
SplineSet
118 0 m 1,0,-1
 118 1035 l 1,1,-1
 427 1035 l 1,2,-1
 427 861 l 1,3,4
 529 1059 529 1059 756 1059 c 0,5,6
 846 1059 846 1059 917.5 1010.5 c 128,-1,7
 989 962 989 962 1027 865 c 1,8,9
 1083 961 1083 961 1174.5 1010 c 128,-1,10
 1266 1059 1266 1059 1364 1059 c 0,11,12
 1508 1059 1508 1059 1598 964 c 128,-1,13
 1688 869 1688 869 1687 680 c 1,14,-1
 1687 0 l 1,15,-1
 1378 0 l 1,16,-1
 1378 573 l 2,17,18
 1378 714 1378 714 1344.5 767 c 128,-1,19
 1311 820 1311 820 1219 820 c 0,20,21
 1166 820 1166 820 1111.5 777.5 c 128,-1,22
 1057 735 1057 735 1057 703 c 2,23,-1
 1057 0 l 1,24,-1
 748 0 l 1,25,-1
 748 598 l 2,26,27
 748 722 748 722 712.5 771 c 128,-1,28
 677 820 677 820 606.5 820 c 128,-1,29
 536 820 536 820 481.5 783.5 c 128,-1,30
 427 747 427 747 427 703 c 2,31,-1
 427 0 l 1,32,-1
 118 0 l 1,0,-1
EndSplineSet
EndChar

StartChar: n
Encoding: 110 110 81
Width: 1184
GlyphClass: 2
Flags: HW
LayerCount: 2
Fore
SplineSet
119 0 m 1,0,-1
 119 1035 l 1,1,-1
 428 1035 l 1,2,-1
 428 855 l 1,3,4
 467 944 467 944 561 1001.5 c 128,-1,5
 655 1059 655 1059 763 1059 c 0,6,7
 890 1058 890 1058 984 970 c 0,8,9
 1086 874 1086 874 1086 696 c 2,10,-1
 1086 0 l 1,11,-1
 777 0 l 1,12,-1
 777 599 l 2,13,14
 777 723 777 723 737 773.5 c 128,-1,15
 697 824 697 824 618 824 c 128,-1,16
 539 824 539 824 483.5 773.5 c 128,-1,17
 428 723 428 723 428 684 c 2,18,-1
 428 0 l 1,19,-1
 119 0 l 1,0,-1
EndSplineSet
EndChar

StartChar: o
Encoding: 111 111 82
Width: 1218
GlyphClass: 2
Flags: HW
LayerCount: 2
Fore
SplineSet
771.5 276 m 128,-1,1
 824 351 824 351 824 516 c 0,2,3
 824 769 824 769 695 820 c 0,4,5
 657 835 657 835 608 835 c 128,-1,6
 559 835 559 835 523 820.5 c 128,-1,7
 487 806 487 806 456.5 771.5 c 128,-1,8
 426 737 426 737 410 673 c 128,-1,9
 394 609 394 609 394 517 c 128,-1,10
 394 425 394 425 409.5 362 c 0,11,12
 425 298 425 298 455 264 c 0,13,14
 510 200 510 200 614.5 200.5 c 129,-1,0
 719 201 719 201 771.5 276 c 128,-1,1
999 116 m 128,-1,16
 860 -22 860 -22 607.5 -22 c 128,-1,17
 355 -22 355 -22 217.5 115.5 c 128,-1,18
 80 253 80 253 80 518.5 c 128,-1,19
 80 784 80 784 218 921.5 c 128,-1,20
 356 1059 356 1059 608 1059 c 128,-1,21
 860 1059 860 1059 999 921 c 128,-1,22
 1138 783 1138 783 1138 518.5 c 128,-1,15
 1138 254 1138 254 999 116 c 128,-1,16
EndSplineSet
EndChar

StartChar: p
Encoding: 112 112 83
Width: 1198
GlyphClass: 2
Flags: HW
LayerCount: 2
Fore
SplineSet
735 1059 m 0,0,1
 1119 1059 1119 1059 1119 522 c 0,2,3
 1119 272 1119 272 1005 125 c 128,-1,4
 891 -22 891 -22 688 -22 c 0,5,6
 540 -22 540 -22 427 58 c 1,7,-1
 427 -391 l 1,8,-1
 118 -391 l 1,9,-1
 118 1035 l 1,10,-1
 427 1035 l 1,11,-1
 427 898 l 1,12,13
 466 967 466 967 553 1013 c 128,-1,14
 640 1059 640 1059 735 1059 c 0,0,1
756.5 746.5 m 128,-1,16
 708 825 708 825 600 825 c 128,-1,17
 492 825 492 825 427 762 c 1,18,-1
 427 238 l 1,19,20
 484 202 484 202 594 202 c 0,21,22
 806 202 806 202 805 520 c 0,23,15
 805 668 805 668 756.5 746.5 c 128,-1,16
EndSplineSet
EndChar

StartChar: q
Encoding: 113 113 84
Width: 1201
GlyphClass: 2
Flags: HW
LayerCount: 2
Fore
SplineSet
775 -391 m 1,0,-1
 775 88 l 1,1,2
 665 -22 665 -22 511 -22 c 0,3,4
 311 -22 311 -22 196 125.5 c 128,-1,5
 81 273 81 273 81 523.5 c 128,-1,6
 81 774 81 774 187 916.5 c 128,-1,7
 293 1059 293 1059 519 1059 c 0,8,9
 599 1059 599 1059 669.5 1022 c 128,-1,10
 740 985 740 985 775 925 c 1,11,-1
 775 1035 l 1,12,-1
 1084 1035 l 1,13,-1
 1084 -391 l 1,14,-1
 775 -391 l 1,0,-1
625 202 m 0,15,16
 673 202 673 202 715 217.5 c 128,-1,17
 757 233 757 233 775 257 c 1,18,-1
 775 781 l 1,19,20
 696 826 696 826 594 826 c 0,21,22
 396 826 396 826 395.5 514 c 128,-1,23
 395 202 395 202 625 202 c 0,15,16
EndSplineSet
EndChar

StartChar: r
Encoding: 114 114 85
Width: 839
GlyphClass: 2
Flags: HW
LayerCount: 2
Fore
SplineSet
428 904 m 1,0,1
 562 1038 562 1038 726 1038 c 0,2,3
 786 1038 786 1038 830 1016 c 1,4,-1
 782 743 l 1,5,6
 716 774 716 774 649 774 c 0,7,8
 485 774 485 774 428 697 c 1,9,-1
 428 0 l 1,10,-1
 119 0 l 1,11,-1
 119 1035 l 1,12,-1
 428 1035 l 1,13,-1
 428 904 l 1,0,1
EndSplineSet
EndChar

StartChar: s
Encoding: 115 115 86
Width: 1032
GlyphClass: 2
Flags: HW
LayerCount: 2
Fore
SplineSet
83 71 m 1,0,-1
 118 289 l 1,1,-1
 165 289 l 1,2,3
 307 196 307 196 486 196 c 0,4,5
 563 196 563 196 617 220 c 128,-1,6
 671 244 671 244 671 291 c 0,7,8
 671 327 671 327 650.5 342 c 128,-1,9
 630 357 630 357 615 364.5 c 128,-1,10
 600 372 600 372 566 381.5 c 128,-1,11
 532 391 532 391 504 397 c 2,12,-1
 422 415 l 2,13,14
 245 453 245 453 163 520.5 c 128,-1,15
 81 588 81 588 81 731 c 128,-1,16
 81 874 81 874 205.5 966.5 c 128,-1,17
 330 1059 330 1059 550 1059 c 128,-1,18
 770 1059 770 1059 918 983 c 1,19,-1
 886 762 l 1,20,-1
 854 762 l 1,21,22
 711 842 711 842 557 842 c 0,23,24
 483 842 483 842 438 816.5 c 128,-1,25
 393 791 393 791 393 749 c 128,-1,26
 393 707 393 707 430.5 690.5 c 128,-1,27
 468 674 468 674 643.5 636 c 128,-1,28
 819 598 819 598 900.5 529.5 c 128,-1,29
 982 461 982 461 982 312.5 c 128,-1,30
 982 164 982 164 848.5 71 c 128,-1,31
 715 -22 715 -22 481 -22 c 128,-1,32
 247 -22 247 -22 83 71 c 1,0,-1
EndSplineSet
EndChar

StartChar: t
Encoding: 116 116 87
Width: 819
GlyphClass: 2
Flags: HW
LayerCount: 2
Fore
SplineSet
749 5 m 1,0,1
 658 -13 658 -13 493 -13 c 128,-1,2
 328 -13 328 -13 244 68 c 128,-1,3
 160 149 160 149 160 328 c 2,4,-1
 160 830 l 1,5,-1
 36 830 l 1,6,-1
 36 1035 l 1,7,-1
 160 1035 l 1,8,-1
 160 1291 l 1,9,-1
 469 1360 l 1,10,-1
 469 1035 l 1,11,-1
 749 1035 l 1,12,-1
 749 830 l 1,13,-1
 469 830 l 1,14,-1
 469 353 l 2,15,16
 469 211 469 211 622 211 c 0,17,18
 681 211 681 211 749 224 c 1,19,-1
 749 5 l 1,0,1
EndSplineSet
EndChar

StartChar: u
Encoding: 117 117 88
Width: 1184
GlyphClass: 2
Flags: HW
LayerCount: 2
Fore
SplineSet
626 23.5 m 128,-1,1
 540 -22 540 -22 456.5 -22 c 128,-1,2
 373 -22 373 -22 313.5 1 c 128,-1,3
 254 24 254 24 206 68 c 0,4,5
 100 164 100 164 99 342 c 2,6,-1
 99 1035 l 1,7,-1
 415 1035 l 1,8,-1
 415 462 l 2,9,10
 415 335 415 335 457.5 276 c 128,-1,11
 500 217 500 217 574 217 c 128,-1,12
 648 217 648 217 703.5 252 c 128,-1,13
 759 287 759 287 759 325 c 2,14,-1
 759 1035 l 1,15,-1
 1068 1035 l 1,16,-1
 1068 0 l 1,17,-1
 759 0 l 1,18,-1
 759 157 l 1,19,0
 712 69 712 69 626 23.5 c 128,-1,1
EndSplineSet
EndChar

StartChar: v
Encoding: 118 118 89
Width: 1062
GlyphClass: 2
Flags: HW
LayerCount: 2
Fore
SplineSet
368 0 m 1,0,-1
 -17 1035 l 1,1,-1
 307 1035 l 1,2,-1
 491 479 l 1,3,-1
 536 327 l 1,4,-1
 538 327 l 1,5,-1
 583 479 l 1,6,-1
 758 1035 l 1,7,-1
 1080 1035 l 1,8,-1
 695 0 l 1,9,-1
 368 0 l 1,0,-1
EndSplineSet
EndChar

StartChar: w
Encoding: 119 119 90
Width: 1690
GlyphClass: 2
Flags: HW
LayerCount: 2
Fore
SplineSet
322 0 m 1,0,-1
 5 1035 l 1,1,-1
 335 1035 l 1,2,-1
 503 311 l 1,3,-1
 504 311 l 1,4,-1
 711 1035 l 1,5,-1
 995 1035 l 1,6,-1
 1155 442 l 1,7,-1
 1191 319 l 1,8,-1
 1359 1035 l 1,9,-1
 1686 1035 l 1,10,-1
 1367 0 l 1,11,-1
 1033 0 l 1,12,-1
 846 709 l 1,13,-1
 844 709 l 1,14,-1
 654 0 l 1,15,-1
 322 0 l 1,0,-1
EndSplineSet
EndChar

StartChar: x
Encoding: 120 120 91
Width: 1131
GlyphClass: 2
Flags: HW
LayerCount: 2
Fore
SplineSet
-6 0 m 1,0,-1
 385 520 l 1,1,-1
 1 1035 l 1,2,-1
 361 1035 l 1,3,-1
 507 824 l 1,4,-1
 567 733 l 1,5,-1
 773 1035 l 1,6,-1
 1132 1035 l 1,7,-1
 749 524 l 1,8,-1
 1138 0 l 1,9,-1
 780 0 l 1,10,-1
 567 307 l 1,11,-1
 352 0 l 1,12,-1
 -6 0 l 1,0,-1
EndSplineSet
EndChar

StartChar: y
Encoding: 121 121 92
Width: 1087
GlyphClass: 2
Flags: HW
LayerCount: 2
Fore
SplineSet
226 -392 m 1,0,1
 329 -190 329 -190 399 7 c 1,2,-1
 0 1035 l 1,3,-1
 324 1035 l 1,4,-1
 561 353 l 1,5,-1
 780 1035 l 1,6,-1
 1106 1035 l 1,7,-1
 681 -103 l 1,8,9
 643 -208 643 -208 595.5 -300.5 c 128,-1,10
 548 -393 548 -393 547 -392 c 1,11,-1
 226 -392 l 1,0,1
EndSplineSet
EndChar

StartChar: z
Encoding: 122 122 93
Width: 995
GlyphClass: 2
Flags: HW
LayerCount: 2
Fore
SplineSet
70 0 m 1,0,-1
 70 209 l 1,1,-1
 557 811 l 1,2,-1
 96 811 l 1,3,-1
 96 1035 l 1,4,-1
 918 1035 l 1,5,-1
 918 831 l 1,6,-1
 436 229 l 1,7,-1
 925 229 l 1,8,-1
 925 0 l 1,9,-1
 70 0 l 1,0,-1
EndSplineSet
EndChar

StartChar: braceleft
Encoding: 123 123 94
Width: 1030
GlyphClass: 2
Flags: HW
LayerCount: 2
Fore
SplineSet
848 -316 m 1,0,1
 618 -316 618 -316 520 -273 c 0,2,3
 432 -234 432 -234 394 -163 c 0,4,5
 350 -82 350 -82 351 49 c 2,6,-1
 351 185 l 2,7,8
 351 348 351 348 276 415 c 128,-1,9
 201 482 201 482 19 482 c 1,10,-1
 19 705 l 1,11,12
 202 705 202 705 276.5 770 c 128,-1,13
 351 835 351 835 351 1003 c 2,14,-1
 351 1180 l 2,15,16
 350 1340 350 1340 436 1416 c 0,17,18
 534 1504 534 1504 822 1504 c 2,19,-1
 963 1504 l 1,20,-1
 963 1301 l 1,21,-1
 877 1301 l 2,22,23
 748 1301 748 1301 698 1259 c 0,24,25
 646 1215 646 1215 646 1068 c 2,26,-1
 646 1009 l 2,27,28
 646 834 646 834 581 739.5 c 128,-1,29
 516 645 516 645 382 602 c 1,30,-1
 382 586 l 1,31,32
 500 549 500 549 573 462.5 c 128,-1,33
 646 376 646 376 646 231 c 2,34,-1
 646 153 l 2,35,36
 646 62 646 62 654.5 11.5 c 128,-1,37
 663 -39 663 -39 690.5 -68 c 128,-1,38
 718 -97 718 -97 757 -105 c 128,-1,39
 796 -113 796 -113 868 -113 c 2,40,-1
 963 -113 l 1,41,-1
 963 -315 l 1,42,-1
 848 -316 l 1,0,1
EndSplineSet
EndChar

StartChar: bar
Encoding: 124 124 95
Width: 951
GlyphClass: 2
Flags: HW
LayerCount: 2
Fore
SplineSet
342 -425 m 1,0,-1
 342 1481 l 1,1,-1
 611 1481 l 1,2,-1
 611 -425 l 1,3,-1
 342 -425 l 1,0,-1
EndSplineSet
EndChar

StartChar: braceright
Encoding: 125 125 96
Width: 1030
GlyphClass: 2
Flags: HW
LayerCount: 2
Fore
SplineSet
21 -315 m 1,0,-1
 21 -113 l 1,1,-1
 107 -113 l 2,2,3
 175 -113 175 -113 215.5 -104.5 c 128,-1,4
 256 -96 256 -96 285 -70 c 0,5,6
 337 -23 337 -23 337 122 c 2,7,-1
 337 181 l 2,8,9
 337 355 337 355 403 449.5 c 128,-1,10
 469 544 469 544 603 587 c 1,11,-1
 603 603 l 1,12,13
 484 641 484 641 410.5 726.5 c 128,-1,14
 337 812 337 812 337 956 c 2,15,-1
 337 1037 l 2,16,17
 337 1127 337 1127 328.5 1177.5 c 128,-1,18
 320 1228 320 1228 292.5 1257 c 128,-1,19
 265 1286 265 1286 226.5 1294 c 128,-1,20
 188 1302 188 1302 116 1302 c 2,21,-1
 21 1302 l 1,22,-1
 21 1504 l 1,23,-1
 135 1504 l 2,24,25
 406 1504 406 1504 502 1442 c 0,26,27
 592 1384 592 1384 618 1277 c 0,28,29
 632 1218 632 1218 632 1139 c 2,30,-1
 632 1004 l 2,31,32
 632 841 632 841 707.5 773 c 128,-1,33
 783 705 783 705 964 705 c 1,34,-1
 964 483 l 1,35,36
 780 483 780 483 706 418.5 c 128,-1,37
 632 354 632 354 632 186 c 2,38,-1
 632 8 l 2,39,40
 632 -224 632 -224 444 -282 c 0,41,42
 338 -314 338 -314 161 -315 c 2,43,-1
 21 -315 l 1,0,-1
EndSplineSet
EndChar

StartChar: asciitilde
Encoding: 126 126 97
Width: 1456
GlyphClass: 2
Flags: HW
LayerCount: 2
Fore
SplineSet
1361 801 m 1,0,1
 1339 310 1339 310 1004 310 c 1,2,3
 860 310 860 310 722 404 c 0,4,5
 664 444 664 444 614 484 c 0,6,7
 494 578 494 578 454 578 c 0,8,9
 393 578 393 578 356.5 506 c 128,-1,10
 320 434 320 434 315 307 c 1,11,-1
 100 351 l 1,12,13
 111 596 111 596 204.5 720.5 c 128,-1,14
 298 845 298 845 461 845 c 0,15,16
 567 844 567 844 693 748 c 0,17,18
 746 708 746 708 798 668 c 0,19,20
 921 572 921 572 1001 571 c 0,21,22
 1068 570 1068 570 1094 616 c 0,23,24
 1109 642 1109 642 1118 658 c 0,25,26
 1126 674 1126 674 1132 718 c 1,27,-1
 1144 840 l 1,28,-1
 1144 847 l 1,29,-1
 1361 801 l 1,0,1
EndSplineSet
EndChar

StartChar: exclamdown
Encoding: 161 161 99
Width: 605
GlyphClass: 2
Flags: HW
LayerCount: 2
Fore
SplineSet
212 1001 m 128,-1,1
 269 1058 269 1058 349.5 1058 c 128,-1,2
 430 1058 430 1058 487 1001 c 128,-1,3
 544 944 544 944 544 863.5 c 128,-1,4
 544 783 544 783 487 726 c 128,-1,5
 430 669 430 669 349.5 669 c 128,-1,6
 269 669 269 669 212 726 c 128,-1,7
 155 783 155 783 155 863.5 c 128,-1,0
 155 944 155 944 212 1001 c 128,-1,1
432 517 m 1,8,-1
 535 -441 l 1,9,-1
 165 -441 l 1,10,-1
 265 517 l 1,11,-1
 432 517 l 1,8,-1
EndSplineSet
EndChar

StartChar: cent
Encoding: 162 162 100
Width: 1147
GlyphClass: 2
Flags: HW
LayerCount: 2
Fore
SplineSet
1010 77 m 1,0,1
 857 -7 857 -7 698 -20 c 1,2,-1
 698 -292 l 1,3,-1
 582 -292 l 1,4,-1
 582 -20 l 1,5,6
 365 -6 365 -6 227 122 c 0,7,8
 81 257 81 257 81 515 c 0,9,10
 81 826 81 826 294 967 c 0,11,12
 414 1047 414 1047 582 1057 c 1,13,-1
 582 1311 l 1,14,-1
 698 1311 l 1,15,-1
 698 1056 l 1,16,17
 857 1043 857 1043 1010 957 c 1,18,-1
 963 739 l 1,19,20
 891 796 891 796 768 824 c 0,21,22
 731 832 731 832 698 834 c 1,23,-1
 698 202 l 1,24,25
 835 209 835 209 962 293 c 1,26,-1
 1010 77 l 1,0,1
582 214 m 1,27,-1
 582 821 l 1,28,29
 496 794 496 794 445.5 717.5 c 128,-1,30
 395 641 395 641 395 514 c 0,31,32
 395 316 395 316 520 240 c 0,33,34
 548 223 548 223 582 214 c 1,27,-1
EndSplineSet
EndChar

StartChar: sterling
Encoding: 163 163 101
Width: 1224
GlyphClass: 2
Flags: HW
LayerCount: 2
Fore
SplineSet
566 1024 m 0,0,1
 566 936 566 936 596 810 c 1,2,-1
 974 810 l 1,3,-1
 974 612 l 1,4,-1
 616 612 l 1,5,6
 617 603 617 603 617 593 c 128,-1,7
 617 583 617 583 617 573 c 0,8,9
 617 487 617 487 588.5 398 c 128,-1,10
 560 309 560 309 513 258 c 1,11,12
 550 257 550 257 654.5 245 c 128,-1,13
 759 233 759 233 805.5 233 c 128,-1,14
 852 233 852 233 882 234.5 c 128,-1,15
 912 236 912 236 934.5 238.5 c 128,-1,16
 957 241 957 241 984 245.5 c 128,-1,17
 1011 250 1011 250 1027.5 253 c 128,-1,18
 1044 256 1044 256 1073 262 c 128,-1,19
 1102 268 1102 268 1118 271 c 1,20,-1
 1166 33 l 1,21,22
 1012 -10 1012 -10 833 -10 c 1,23,-1
 302 11 l 1,24,25
 202 11 202 11 89 -6 c 1,26,-1
 89 233 l 1,27,28
 171 238 171 238 249 252 c 1,29,30
 293 366 293 366 293 497 c 0,31,32
 293 552 293 552 286 612 c 1,33,-1
 99 612 l 1,34,-1
 99 810 l 1,35,-1
 262 810 l 1,36,37
 234 938 234 938 234 1043 c 128,-1,38
 234 1148 234 1148 260.5 1230 c 128,-1,39
 287 1312 287 1312 343 1374 c 0,40,41
 459 1504 459 1504 716 1504 c 0,42,43
 825 1504 825 1504 928 1473.5 c 128,-1,44
 1031 1443 1031 1443 1075 1400 c 1,45,-1
 1092 1119 l 1,46,-1
 1023 1119 l 1,47,48
 977 1175 977 1175 903.5 1211 c 128,-1,49
 830 1247 830 1247 759 1247 c 0,50,51
 566 1246 566 1246 566 1024 c 0,0,1
EndSplineSet
EndChar

StartChar: currency
Encoding: 164 164 102
Width: 942
GlyphClass: 2
Flags: HW
LayerCount: 2
Fore
SplineSet
813 929 m 1,0,1
 890 829 890 829 890 686 c 128,-1,2
 890 543 890 543 813 448 c 1,3,-1
 907 353 l 1,4,-1
 806 253 l 1,5,-1
 711 348 l 1,6,7
 614 273 614 273 475 273 c 0,8,9
 407 273 407 273 342 294.5 c 128,-1,10
 277 316 277 316 235 348 c 1,11,-1
 140 253 l 1,12,-1
 38 353 l 1,13,-1
 132 450 l 1,14,15
 99 489 99 489 78 553.5 c 128,-1,16
 57 618 57 618 57 687 c 0,17,18
 57 834 57 834 132 929 c 1,19,-1
 38 1023 l 1,20,-1
 140 1122 l 1,21,-1
 235 1029 l 1,22,23
 276 1062 276 1062 341 1083 c 128,-1,24
 406 1104 406 1104 475 1104 c 0,25,26
 614 1104 614 1104 711 1031 c 1,27,-1
 806 1122 l 1,28,-1
 907 1023 l 1,29,-1
 813 929 l 1,0,1
277.5 481.5 m 128,-1,31
 352 405 352 405 474.5 405 c 128,-1,32
 597 405 597 405 670.5 481 c 128,-1,33
 744 557 744 557 744 687.5 c 128,-1,34
 744 818 744 818 670.5 894.5 c 128,-1,35
 597 971 597 971 474.5 971 c 128,-1,36
 352 971 352 971 277.5 894 c 128,-1,37
 203 817 203 817 203 687.5 c 128,-1,30
 203 558 203 558 277.5 481.5 c 128,-1,31
EndSplineSet
EndChar

StartChar: yen
Encoding: 165 165 103
Width: 1312
GlyphClass: 2
Flags: HW
LayerCount: 2
Fore
SplineSet
522 0 m 1,0,-1
 522 389 l 1,1,-1
 135 389 l 1,2,-1
 135 575 l 1,3,-1
 521 575 l 1,4,-1
 469 704 l 1,5,-1
 135 704 l 1,6,-1
 135 888 l 1,7,-1
 358 888 l 1,8,-1
 -12 1481 l 1,9,-1
 378 1481 l 1,10,11
 414 1410 414 1410 542.5 1190.5 c 128,-1,12
 671 971 671 971 700 918 c 1,13,14
 732 983 732 983 856.5 1200 c 128,-1,15
 981 1417 981 1417 1013 1481 c 1,16,-1
 1393 1481 l 1,17,-1
 1019 888 l 1,18,-1
 1236 888 l 1,19,-1
 1236 704 l 1,20,-1
 911 704 l 1,21,-1
 862 575 l 1,22,-1
 1236 575 l 1,23,-1
 1236 389 l 1,24,-1
 862 389 l 1,25,-1
 862 0 l 1,26,-1
 522 0 l 1,0,-1
EndSplineSet
EndChar

StartChar: brokenbar
Encoding: 166 166 104
Width: 399
GlyphClass: 2
Flags: HW
LayerCount: 2
Fore
SplineSet
99 -338 m 1,0,-1
 99 338 l 1,1,-1
 301 338 l 1,2,-1
 301 -338 l 1,3,-1
 99 -338 l 1,0,-1
99 628 m 1,4,-1
 99 1303 l 1,5,-1
 301 1303 l 1,6,-1
 301 628 l 1,7,-1
 99 628 l 1,4,-1
EndSplineSet
EndChar

StartChar: section
Encoding: 167 167 105
Width: 1173
GlyphClass: 2
Flags: HW
LayerCount: 2
Fore
SplineSet
932 1188 m 1,0,1
 780 1287 780 1287 605 1287 c 0,2,3
 531 1287 531 1287 486 1261.5 c 128,-1,4
 441 1236 441 1236 441 1193 c 128,-1,5
 441 1150 441 1150 484 1131.5 c 128,-1,6
 527 1113 527 1113 692 1084.5 c 128,-1,7
 857 1056 857 1056 943.5 981 c 128,-1,8
 1030 906 1030 906 1030 760 c 128,-1,9
 1030 614 1030 614 910 526 c 1,10,11
 1030 447 1030 447 1030 288.5 c 128,-1,12
 1030 130 1030 130 895.5 36 c 128,-1,13
 761 -58 761 -58 532 -58 c 0,14,15
 296 -58 296 -58 131 36 c 1,16,-1
 171 286 l 1,17,18
 332 162 332 162 534 162 c 0,19,20
 611 162 611 162 665 186.5 c 128,-1,21
 719 211 719 211 719 258 c 0,22,23
 718 308 718 308 658 331 c 0,24,25
 611 349 611 349 462.5 377 c 128,-1,26
 314 405 314 405 221.5 480 c 128,-1,27
 129 555 129 555 129 702 c 128,-1,28
 129 849 129 849 257 933 c 1,29,30
 129 1015 129 1015 129 1167 c 128,-1,31
 129 1319 129 1319 253.5 1411.5 c 128,-1,32
 378 1504 378 1504 592.5 1504 c 128,-1,33
 807 1504 807 1504 965 1425 c 1,34,-1
 932 1188 l 1,0,1
695 604 m 1,35,36
 769 649 769 649 769 726 c 0,37,38
 768 803 768 803 592 833 c 0,39,40
 562 838 562 838 519.5 845 c 128,-1,41
 477 852 477 852 454 857 c 1,42,43
 417 837 417 837 399.5 801 c 128,-1,44
 382 765 382 765 382 745 c 128,-1,45
 382 725 382 725 388 710.5 c 128,-1,46
 394 696 394 696 403.5 685.5 c 128,-1,47
 413 675 413 675 431 666.5 c 128,-1,48
 449 658 449 658 466 652 c 128,-1,49
 483 646 483 646 512.5 639.5 c 128,-1,50
 542 633 542 633 565 628.5 c 128,-1,51
 588 624 588 624 627 617 c 128,-1,52
 666 610 666 610 695 604 c 1,35,36
EndSplineSet
EndChar

StartChar: dieresis
Encoding: 168 168 106
Width: 799
GlyphClass: 2
Flags: HW
LayerCount: 2
Fore
SplineSet
99 1185 m 1,0,-1
 99 1439 l 1,1,-1
 329 1439 l 1,2,-1
 329 1185 l 1,3,-1
 99 1185 l 1,0,-1
468 1185 m 1,4,-1
 468 1439 l 1,5,-1
 698 1439 l 1,6,-1
 698 1185 l 1,7,-1
 468 1185 l 1,4,-1
EndSplineSet
EndChar

StartChar: copyright
Encoding: 169 169 107
Width: 1817
GlyphClass: 2
Flags: HW
LayerCount: 2
Fore
SplineSet
1102.5 257.5 m 128,-1,1
 1021 231 1021 231 936 231 c 128,-1,2
 851 231 851 231 771 261 c 128,-1,3
 691 291 691 291 629 346 c 128,-1,4
 567 401 567 401 530.5 486.5 c 128,-1,5
 494 572 494 572 494 675 c 0,6,7
 494 876 494 876 619 998.5 c 128,-1,8
 744 1121 744 1121 922 1121 c 128,-1,9
 1100 1121 1100 1121 1249 1016 c 1,10,-1
 1196 899 l 1,11,-1
 1177 912 l 1,12,13
 1074 988 1074 988 951 988 c 128,-1,14
 828 988 828 988 748 900.5 c 128,-1,15
 668 813 668 813 668 675 c 128,-1,16
 668 537 668 537 743 451 c 128,-1,17
 818 365 818 365 951 365 c 0,18,19
 1010 365 1010 365 1066.5 382.5 c 128,-1,20
 1123 400 1123 400 1150 418 c 2,21,-1
 1177 436 l 1,22,-1
 1223 316 l 1,23,0
 1184 284 1184 284 1102.5 257.5 c 128,-1,1
582.5 116 m 128,-1,25
 731 36 731 36 913.5 36 c 128,-1,26
 1096 36 1096 36 1246.5 118 c 128,-1,27
 1397 200 1397 200 1482.5 346 c 128,-1,28
 1568 492 1568 492 1568 672.5 c 128,-1,29
 1568 853 1568 853 1479.5 998.5 c 128,-1,30
 1391 1144 1391 1144 1241 1223.5 c 128,-1,31
 1091 1303 1091 1303 931 1303 c 128,-1,32
 771 1303 771 1303 650 1254 c 128,-1,33
 529 1205 529 1205 443.5 1120.5 c 128,-1,34
 358 1036 358 1036 308.5 918.5 c 128,-1,35
 259 801 259 801 259 644 c 128,-1,36
 259 487 259 487 346.5 341.5 c 128,-1,24
 434 196 434 196 582.5 116 c 128,-1,25
1234.5 -56 m 128,-1,38
 1081 -117 1081 -117 912.5 -117 c 128,-1,39
 744 -117 744 -117 592.5 -59 c 128,-1,40
 441 -1 441 -1 328 100.5 c 128,-1,41
 215 202 215 202 148 350 c 128,-1,42
 81 498 81 498 81 692.5 c 128,-1,43
 81 887 81 887 191 1067.5 c 128,-1,44
 301 1248 301 1248 491 1351.5 c 128,-1,45
 681 1455 681 1455 907.5 1455 c 128,-1,46
 1134 1455 1134 1455 1323.5 1353 c 128,-1,47
 1513 1251 1513 1251 1625.5 1069.5 c 128,-1,48
 1738 888 1738 888 1738 669 c 0,49,50
 1738 506 1738 506 1673.5 360 c 128,-1,51
 1609 214 1609 214 1498.5 109.5 c 128,-1,37
 1388 5 1388 5 1234.5 -56 c 128,-1,38
EndSplineSet
EndChar

StartChar: ordfeminine
Encoding: 170 170 108
Width: 852
GlyphClass: 2
Flags: HW
LayerCount: 2
Fore
SplineSet
536 740 m 1,0,1
 439 645 439 645 272 645 c 0,2,3
 185 645 185 645 114.5 700.5 c 128,-1,4
 44 756 44 756 44 869 c 0,5,6
 44 980 44 980 112 1034 c 0,7,8
 164 1075 164 1075 211 1089.5 c 128,-1,9
 258 1104 258 1104 289.5 1111 c 0,10,11
 322 1118 322 1118 368 1124 c 0,12,13
 426 1132 426 1132 538 1140 c 1,14,15
 538 1206 538 1206 496 1231.5 c 128,-1,16
 454 1257 454 1257 371 1257 c 128,-1,17
 288 1257 288 1257 221 1238.5 c 128,-1,18
 154 1220 154 1220 130 1203 c 1,19,-1
 95 1364 l 1,20,21
 136 1390 136 1390 219 1406 c 128,-1,22
 302 1422 302 1422 393 1422 c 0,23,24
 586 1422 586 1422 677 1359.5 c 128,-1,25
 768 1297 768 1297 768 1157 c 2,26,-1
 768 659 l 1,27,-1
 538 659 l 1,28,-1
 538 740 l 1,29,-1
 536 740 l 1,0,1
306.5 824.5 m 128,-1,31
 334 802 334 802 381.5 802 c 128,-1,32
 429 802 429 802 475.5 823 c 128,-1,33
 522 844 522 844 538 872 c 1,34,-1
 538 992 l 1,35,36
 374 986 374 986 326 960 c 0,37,38
 280 935 280 935 279.5 891 c 128,-1,30
 279 847 279 847 306.5 824.5 c 128,-1,31
EndSplineSet
EndChar

StartChar: guillemotleft
Encoding: 171 171 109
Width: 1045
GlyphClass: 2
Flags: HW
LayerCount: 2
Fore
SplineSet
538 135 m 1,0,-1
 115 525 l 1,1,-1
 115 658 l 1,2,-1
 538 1052 l 1,3,-1
 538 774 l 1,4,-1
 348 591 l 1,5,6
 517 433 517 433 538 415 c 1,7,-1
 538 135 l 1,0,-1
964 135 m 1,8,-1
 539 525 l 1,9,-1
 539 658 l 1,10,-1
 964 1052 l 1,11,-1
 964 774 l 1,12,-1
 773 591 l 1,13,14
 942 433 942 433 964 415 c 1,15,-1
 964 135 l 1,8,-1
EndSplineSet
EndChar

StartChar: logicalnot
Encoding: 172 172 110
Width: 1459
GlyphClass: 2
Flags: HW
LayerCount: 2
Fore
SplineSet
1063 99 m 1,0,-1
 1063 544 l 1,1,-1
 134 544 l 1,2,-1
 134 779 l 1,3,-1
 1323 779 l 1,4,-1
 1323 99 l 1,5,-1
 1063 99 l 1,0,-1
EndSplineSet
EndChar

StartChar: uni00AD
Encoding: 173 173 111
Width: 778
GlyphClass: 2
Flags: HW
LayerCount: 2
Fore
SplineSet
99 436 m 1,0,-1
 99 634 l 1,1,-1
 680 634 l 1,2,-1
 680 436 l 1,3,-1
 99 436 l 1,0,-1
EndSplineSet
EndChar

StartChar: registered
Encoding: 174 174 112
Width: 1817
GlyphClass: 2
Flags: HW
LayerCount: 2
Fore
SplineSet
597 246 m 1,0,-1
 597 1124 l 1,1,-1
 888 1124 l 2,2,3
 1089 1124 1089 1124 1176 1056 c 0,4,5
 1255 994 1255 994 1255 884 c 128,-1,6
 1255 774 1255 774 1213.5 719 c 128,-1,7
 1172 664 1172 664 1076 637 c 1,8,-1
 1303 289 l 1,9,-1
 1303 246 l 1,10,-1
 1150 246 l 1,11,-1
 926 615 l 1,12,-1
 752 615 l 1,13,-1
 752 246 l 1,14,-1
 597 246 l 1,0,-1
938 736 m 2,15,16
 1107 736 1107 736 1107 872 c 0,17,18
 1107 938 1107 938 1059 972 c 128,-1,19
 1011 1006 1011 1006 897 1006 c 2,20,-1
 752 1006 l 1,21,-1
 752 736 l 1,22,-1
 938 736 l 2,15,16
582.5 116 m 128,-1,24
 731 36 731 36 913.5 36 c 128,-1,25
 1096 36 1096 36 1246.5 118 c 128,-1,26
 1397 200 1397 200 1482.5 346 c 128,-1,27
 1568 492 1568 492 1568 672.5 c 128,-1,28
 1568 853 1568 853 1479.5 998.5 c 128,-1,29
 1391 1144 1391 1144 1241 1223.5 c 128,-1,30
 1091 1303 1091 1303 931 1303 c 128,-1,31
 771 1303 771 1303 650 1254 c 128,-1,32
 529 1205 529 1205 443.5 1120.5 c 128,-1,33
 358 1036 358 1036 308.5 918.5 c 128,-1,34
 259 801 259 801 259 644 c 128,-1,35
 259 487 259 487 346.5 341.5 c 128,-1,23
 434 196 434 196 582.5 116 c 128,-1,24
1234.5 -56 m 128,-1,37
 1081 -117 1081 -117 912.5 -117 c 128,-1,38
 744 -117 744 -117 592.5 -59 c 128,-1,39
 441 -1 441 -1 328 100.5 c 128,-1,40
 215 202 215 202 148 350 c 128,-1,41
 81 498 81 498 81 692.5 c 128,-1,42
 81 887 81 887 191 1067.5 c 128,-1,43
 301 1248 301 1248 491 1351.5 c 128,-1,44
 681 1455 681 1455 907.5 1455 c 128,-1,45
 1134 1455 1134 1455 1323.5 1353 c 128,-1,46
 1513 1251 1513 1251 1625.5 1069.5 c 128,-1,47
 1738 888 1738 888 1738 669 c 0,48,49
 1738 506 1738 506 1673.5 360 c 128,-1,50
 1609 214 1609 214 1498.5 109.5 c 128,-1,36
 1388 5 1388 5 1234.5 -56 c 128,-1,37
EndSplineSet
EndChar

StartChar: macron
Encoding: 175 175 113
Width: 540
GlyphClass: 2
Flags: HW
LayerCount: 2
Fore
SplineSet
-3 1138 m 1,0,-1
 -3 1335 l 1,1,-1
 549 1335 l 1,2,-1
 549 1138 l 1,3,-1
 -3 1138 l 1,0,-1
EndSplineSet
EndChar

StartChar: degree
Encoding: 176 176 114
Width: 913
GlyphClass: 2
Flags: HW
LayerCount: 2
Fore
SplineSet
458 870 m 128,-1,1
 545 870 545 870 605.5 929.5 c 0,2,3
 666 988 666 988 666 1072 c 128,-1,4
 666 1156 666 1156 605 1216.5 c 128,-1,5
 544 1277 544 1277 458 1277 c 128,-1,6
 372 1277 372 1277 310.5 1216.5 c 128,-1,7
 249 1156 249 1156 249 1072 c 128,-1,8
 249 988 249 988 310 929 c 128,-1,0
 371 870 371 870 458 870 c 128,-1,1
458 763 m 128,-1,10
 322 763 322 763 226 853.5 c 128,-1,11
 130 944 130 944 130 1074 c 128,-1,12
 130 1204 130 1204 226 1293 c 128,-1,13
 322 1382 322 1382 458 1382 c 128,-1,14
 594 1382 594 1382 689.5 1292 c 128,-1,15
 785 1202 785 1202 785 1072 c 128,-1,16
 785 942 785 942 689.5 852.5 c 128,-1,9
 594 763 594 763 458 763 c 128,-1,10
EndSplineSet
EndChar

StartChar: plusminus
Encoding: 177 177 115
Width: 1398
GlyphClass: 2
Flags: HW
LayerCount: 2
Fore
SplineSet
555 280 m 1,0,-1
 555 616 l 1,1,-1
 159 616 l 1,2,-1
 159 791 l 1,3,-1
 555 791 l 1,4,-1
 555 1129 l 1,5,-1
 738 1129 l 1,6,-1
 738 791 l 1,7,-1
 1136 791 l 1,8,-1
 1136 616 l 1,9,-1
 738 616 l 1,10,-1
 738 280 l 1,11,-1
 555 280 l 1,0,-1
157 0 m 1,12,-1
 157 176 l 1,13,-1
 1135 176 l 1,14,-1
 1135 0 l 1,15,-1
 157 0 l 1,12,-1
EndSplineSet
EndChar

StartChar: uni00B2
Encoding: 178 178 116
Width: 742
GlyphClass: 2
Flags: HW
LayerCount: 2
Fore
SplineSet
90 647 m 1,0,-1
 90 768 l 1,1,2
 341 995 341 995 411 1114 c 0,3,4
 447 1175 447 1175 447 1220 c 0,5,6
 447 1331 447 1331 328 1331 c 0,7,8
 281 1331 281 1331 224 1311 c 128,-1,9
 167 1291 167 1291 140 1271 c 1,10,-1
 102 1405 l 1,11,12
 134 1433 134 1433 209.5 1457 c 128,-1,13
 285 1481 285 1481 350 1481 c 0,14,15
 484 1481 484 1481 557.5 1415.5 c 128,-1,16
 631 1350 631 1350 631 1237 c 0,17,18
 631 1052 631 1052 324 788 c 1,19,-1
 651 788 l 1,20,-1
 651 647 l 1,21,-1
 90 647 l 1,0,-1
EndSplineSet
EndChar

StartChar: uni00B3
Encoding: 179 179 117
Width: 677
GlyphClass: 2
Flags: HW
LayerCount: 2
Fore
SplineSet
555 617.5 m 128,-1,1
 469 548 469 548 312.5 548 c 128,-1,2
 156 548 156 548 63 613 c 1,3,-1
 63 763 l 1,4,-1
 95 763 l 1,5,6
 168 690 168 690 281 689 c 0,7,8
 284 689 284 689 287 689 c 0,9,10
 456 689 456 689 456 815 c 0,11,12
 456 933 456 933 295 933 c 2,13,-1
 221 933 l 1,14,-1
 221 1048 l 1,15,-1
 264 1048 l 2,16,17
 348 1048 348 1048 388 1072 c 128,-1,18
 428 1096 428 1096 428 1147 c 128,-1,19
 428 1198 428 1198 387 1221.5 c 128,-1,20
 346 1245 346 1245 290 1245 c 0,21,22
 182 1245 182 1245 102 1170 c 1,23,-1
 63 1170 l 1,24,-1
 63 1318 l 1,25,26
 102 1346 102 1346 174 1366.5 c 128,-1,27
 246 1387 246 1387 316 1387 c 0,28,29
 458 1387 458 1387 533 1331.5 c 128,-1,30
 608 1276 608 1276 613 1184 c 0,31,32
 613 1178 613 1178 613 1172 c 0,33,34
 613 1043 613 1043 487 988 c 1,35,36
 551 969 551 969 596 922 c 128,-1,37
 641 875 641 875 641 802 c 0,38,0
 641 687 641 687 555 617.5 c 128,-1,1
EndSplineSet
EndChar

StartChar: acute
Encoding: 180 180 118
Width: 748
GlyphClass: 2
Flags: HW
LayerCount: 2
Fore
SplineSet
153 1160 m 1,0,-1
 349 1506 l 1,1,-1
 661 1506 l 1,2,-1
 364 1160 l 1,3,-1
 153 1160 l 1,0,-1
EndSplineSet
EndChar

StartChar: paragraph
Encoding: 182 182 119
Width: 1230
GlyphClass: 2
Flags: HW
LayerCount: 2
Fore
SplineSet
587 -270 m 1,0,-1
 587 691 l 1,1,2
 338 694 338 694 199.5 798.5 c 128,-1,3
 61 903 61 903 61 1088 c 128,-1,4
 61 1273 61 1273 199.5 1377 c 128,-1,5
 338 1481 338 1481 609 1481 c 2,6,-1
 1102 1481 l 1,7,-1
 1102 -270 l 1,8,-1
 915 -270 l 1,9,-1
 915 1325 l 1,10,-1
 781 1325 l 1,11,-1
 781 -270 l 1,12,-1
 587 -270 l 1,0,-1
EndSplineSet
EndChar

StartChar: periodcentered
Encoding: 183 183 120
Width: 627
GlyphClass: 2
Flags: HW
LayerCount: 2
Fore
SplineSet
457 458.5 m 128,-1,1
 400 401 400 401 319.5 401 c 128,-1,2
 239 401 239 401 181.5 458.5 c 128,-1,3
 124 516 124 516 124 596 c 128,-1,4
 124 676 124 676 181.5 733 c 128,-1,5
 239 790 239 790 319.5 790 c 128,-1,6
 400 790 400 790 457 733 c 128,-1,7
 514 676 514 676 514 596 c 128,-1,0
 514 516 514 516 457 458.5 c 128,-1,1
EndSplineSet
EndChar

StartChar: cedilla
Encoding: 184 184 121
Width: 840
GlyphClass: 2
Flags: HW
LayerCount: 2
Fore
SplineSet
361 -512 m 0,0,1
 322 -512 322 -512 264 -499.5 c 128,-1,2
 206 -487 206 -487 169 -469 c 1,3,-1
 197 -341 l 1,4,-1
 259 -341 l 1,5,6
 271 -360 271 -360 301.5 -372.5 c 128,-1,7
 332 -385 332 -385 379 -385 c 128,-1,8
 426 -385 426 -385 463 -355 c 0,9,10
 500 -326 500 -326 500 -284 c 128,-1,11
 500 -242 500 -242 467 -216 c 128,-1,12
 434 -190 434 -190 402 -190 c 128,-1,13
 370 -190 370 -190 346 -195 c 1,14,15
 323 -189 323 -189 297 -184 c 1,16,-1
 363 2 l 1,17,-1
 467 2 l 1,18,-1
 427 -100 l 1,19,20
 551 -101 551 -101 608 -152 c 128,-1,21
 665 -203 665 -203 665 -290 c 128,-1,22
 665 -377 665 -377 583.5 -444.5 c 128,-1,23
 502 -512 502 -512 361 -512 c 0,0,1
EndSplineSet
EndChar

StartChar: uni00B9
Encoding: 185 185 122
Width: 589
GlyphClass: 2
Flags: HW
LayerCount: 2
Fore
SplineSet
92 554 m 1,0,-1
 92 692 l 1,1,-1
 219 692 l 1,2,-1
 219 1195 l 1,3,-1
 59 1162 l 1,4,-1
 59 1276 l 1,5,6
 131 1287 131 1287 171 1310.5 c 128,-1,7
 211 1334 211 1334 224 1378 c 1,8,-1
 404 1378 l 1,9,-1
 404 692 l 1,10,-1
 529 692 l 1,11,-1
 529 554 l 1,12,-1
 92 554 l 1,0,-1
EndSplineSet
EndChar

StartChar: ordmasculine
Encoding: 186 186 123
Width: 923
GlyphClass: 2
Flags: HW
LayerCount: 2
Fore
SplineSet
474 811 m 0,0,1
 548 811 548 811 585 871 c 128,-1,2
 622 931 622 931 622 1036 c 0,3,4
 622 1260 622 1260 470 1260 c 0,5,6
 402 1260 402 1260 360.5 1211.5 c 128,-1,7
 319 1163 319 1163 319 1037 c 0,8,9
 319 811 319 811 474 811 c 0,0,1
470 644 m 128,-1,11
 280 644 280 644 176 746 c 128,-1,12
 72 848 72 848 72 1039 c 0,13,14
 72 1230 72 1230 176.5 1330 c 128,-1,15
 281 1430 281 1430 471 1430 c 0,16,17
 661 1430 661 1430 764.5 1329.5 c 128,-1,18
 868 1229 868 1229 868 1038 c 0,19,20
 868 847 868 847 764 745.5 c 128,-1,10
 660 644 660 644 470 644 c 128,-1,11
EndSplineSet
EndChar

StartChar: guillemotright
Encoding: 187 187 124
Width: 1045
GlyphClass: 2
Flags: HW
LayerCount: 2
Fore
SplineSet
117 135 m 1,0,-1
 117 412 l 1,1,-1
 308 596 l 1,2,3
 139 752 139 752 117 770 c 1,4,-1
 117 1052 l 1,5,-1
 541 660 l 1,6,-1
 541 529 l 1,7,-1
 117 135 l 1,0,-1
541 135 m 1,8,-1
 541 412 l 1,9,-1
 732 596 l 1,10,11
 563 752 563 752 541 770 c 1,12,-1
 541 1052 l 1,13,-1
 966 660 l 1,14,-1
 966 529 l 1,15,-1
 541 135 l 1,8,-1
EndSplineSet
EndChar

StartChar: onequarter
Encoding: 188 188 125
Width: 1513
GlyphClass: 2
Flags: HW
LayerCount: 2
Fore
SplineSet
1187 0 m 1,0,-1
 1187 121 l 1,1,-1
 821 121 l 1,2,-1
 821 241 l 1,3,-1
 1121 819 l 1,4,-1
 1366 819 l 1,5,-1
 1366 241 l 1,6,-1
 1447 241 l 1,7,-1
 1447 121 l 1,8,-1
 1366 121 l 1,9,-1
 1366 0 l 1,10,-1
 1187 0 l 1,0,-1
321 0 m 1,11,-1
 1133 1481 l 1,12,-1
 1262 1481 l 1,13,-1
 448 0 l 1,14,-1
 321 0 l 1,11,-1
971 241 m 1,15,-1
 1187 241 l 1,16,-1
 1187 669 l 1,17,-1
 971 241 l 1,15,-1
84 657 m 1,18,-1
 84 795 l 1,19,-1
 211 795 l 1,20,-1
 211 1298 l 1,21,-1
 51 1265 l 1,22,-1
 51 1379 l 1,23,24
 123 1390 123 1390 163 1413.5 c 128,-1,25
 203 1437 203 1437 216 1481 c 1,26,-1
 396 1481 l 1,27,-1
 396 795 l 1,28,-1
 521 795 l 1,29,-1
 521 657 l 1,30,-1
 84 657 l 1,18,-1
EndSplineSet
EndChar

StartChar: onehalf
Encoding: 189 189 126
Width: 1595
GlyphClass: 2
Flags: HW
LayerCount: 2
Fore
SplineSet
314 0 m 1,0,-1
 1128 1481 l 1,1,-1
 1255 1481 l 1,2,-1
 441 0 l 1,3,-1
 314 0 l 1,0,-1
958 0 m 1,4,-1
 958 121 l 1,5,6
 1209 348 1209 348 1279 467 c 0,7,8
 1315 528 1315 528 1315 573 c 0,9,10
 1315 684 1315 684 1196 684 c 0,11,12
 1149 684 1149 684 1092 664 c 128,-1,13
 1035 644 1035 644 1008 624 c 1,14,-1
 970 758 l 1,15,16
 1002 786 1002 786 1077.5 810 c 128,-1,17
 1153 834 1153 834 1218 834 c 0,18,19
 1352 834 1352 834 1425.5 768.5 c 128,-1,20
 1499 703 1499 703 1499 590 c 0,21,22
 1499 405 1499 405 1192 141 c 1,23,-1
 1519 141 l 1,24,-1
 1519 0 l 1,25,-1
 958 0 l 1,4,-1
113 657 m 1,26,-1
 113 795 l 1,27,-1
 240 795 l 1,28,-1
 240 1298 l 1,29,-1
 80 1265 l 1,30,-1
 80 1379 l 1,31,32
 152 1390 152 1390 192 1413.5 c 128,-1,33
 232 1437 232 1437 245 1481 c 1,34,-1
 425 1481 l 1,35,-1
 425 795 l 1,36,-1
 550 795 l 1,37,-1
 550 657 l 1,38,-1
 113 657 l 1,26,-1
EndSplineSet
EndChar

StartChar: threequarters
Encoding: 190 190 127
Width: 1528
GlyphClass: 2
Flags: HW
LayerCount: 2
Fore
SplineSet
1202 0 m 1,0,-1
 1202 121 l 1,1,-1
 837 121 l 1,2,-1
 837 241 l 1,3,-1
 1136 819 l 1,4,-1
 1381 819 l 1,5,-1
 1381 241 l 1,6,-1
 1462 241 l 1,7,-1
 1462 121 l 1,8,-1
 1381 121 l 1,9,-1
 1381 0 l 1,10,-1
 1202 0 l 1,0,-1
336 0 m 1,11,-1
 1149 1481 l 1,12,-1
 1277 1481 l 1,13,-1
 463 0 l 1,14,-1
 336 0 l 1,11,-1
987 241 m 1,15,-1
 1202 241 l 1,16,-1
 1202 669 l 1,17,-1
 987 241 l 1,15,-1
120 1264 m 1,18,-1
 81 1264 l 1,19,-1
 81 1412 l 1,20,21
 120 1440 120 1440 192 1460.5 c 128,-1,22
 264 1481 264 1481 334 1481 c 0,23,24
 476 1481 476 1481 551 1425.5 c 128,-1,25
 626 1370 626 1370 630 1285 c 0,26,27
 630 1276 630 1276 630 1268 c 0,28,29
 630 1196 630 1196 600 1154 c 0,30,31
 566 1108 566 1108 505 1082 c 1,32,33
 568 1063 568 1063 613.5 1016 c 128,-1,34
 659 969 659 969 659 896 c 0,35,36
 659 781 659 781 572.5 711.5 c 128,-1,37
 486 642 486 642 330 642 c 128,-1,38
 174 642 174 642 81 707 c 1,39,-1
 81 857 l 1,40,-1
 113 857 l 1,41,42
 186 784 186 784 299 783 c 1,43,44
 474 783 474 783 474 909 c 0,45,46
 474 1027 474 1027 313 1027 c 2,47,-1
 239 1027 l 1,48,-1
 239 1142 l 1,49,-1
 282 1142 l 2,50,51
 365 1142 365 1142 405.5 1166 c 128,-1,52
 446 1190 446 1190 446 1233.5 c 128,-1,53
 446 1277 446 1277 424 1299 c 0,54,55
 385 1339 385 1339 292.5 1339 c 128,-1,56
 200 1339 200 1339 120 1264 c 1,18,-1
EndSplineSet
EndChar

StartChar: questiondown
Encoding: 191 191 128
Width: 1123
GlyphClass: 2
Flags: HW
LayerCount: 2
Fore
SplineSet
597 530 m 1,0,-1
 763 513 l 1,1,2
 550 251 550 251 502 119 c 0,3,4
 480 59 480 59 480 7 c 0,5,6
 480 -94 480 -94 539.5 -146 c 128,-1,7
 599 -198 599 -198 689.5 -198 c 128,-1,8
 780 -198 780 -198 884 -153.5 c 128,-1,9
 988 -109 988 -109 1035 -65 c 1,10,-1
 1035 -328 l 1,11,12
 881 -418 881 -418 791.5 -436.5 c 128,-1,13
 702 -455 702 -455 638 -455 c 0,14,15
 413 -455 413 -455 282.5 -346.5 c 128,-1,16
 152 -238 152 -238 152 -68 c 0,17,18
 152 62 152 62 212 161 c 0,19,20
 262 244 262 244 299 281 c 128,-1,21
 336 318 336 318 356 337.5 c 128,-1,22
 376 357 376 357 416.5 390.5 c 0,23,24
 458 424 458 424 476 438 c 0,25,26
 524 476 524 476 597 530 c 1,0,-1
698 1067 m 128,-1,28
 783 1067 783 1067 842 1008 c 128,-1,29
 901 949 901 949 901 864.5 c 128,-1,30
 901 780 901 780 841.5 720 c 128,-1,31
 782 660 782 660 697.5 660 c 128,-1,32
 613 660 613 660 553.5 720 c 128,-1,33
 494 780 494 780 494 864.5 c 128,-1,34
 494 949 494 949 553.5 1008 c 128,-1,27
 613 1067 613 1067 698 1067 c 128,-1,28
EndSplineSet
EndChar

StartChar: AE
Encoding: 198 198 135
Width: 1935
GlyphClass: 2
Flags: HW
LayerCount: 2
Fore
SplineSet
-1 0 m 1,0,-1
 667 1421 l 1,1,-1
 1860 1421 l 1,2,-1
 1860 1177 l 1,3,-1
 1247 1177 l 1,4,-1
 1247 860 l 1,5,-1
 1779 860 l 1,6,-1
 1779 619 l 1,7,-1
 1247 619 l 1,8,-1
 1247 244 l 1,9,-1
 1859 244 l 1,10,-1
 1859 0 l 1,11,-1
 920 0 l 1,12,-1
 920 322 l 1,13,-1
 485 322 l 1,14,-1
 338 0 l 1,15,-1
 -1 0 l 1,0,-1
587 563 m 1,16,-1
 920 563 l 1,17,-1
 920 1187 l 1,18,-1
 876 1187 l 1,19,-1
 587 563 l 1,16,-1
EndSplineSet
EndChar

StartChar: Eth
Encoding: 208 208 145
Width: 1514
GlyphClass: 2
Flags: HW
LayerCount: 2
Fore
SplineSet
0 658 m 1,0,-1
 0 852 l 1,1,-1
 146 852 l 1,2,-1
 146 1481 l 1,3,-1
 596 1481 l 2,4,5
 1210 1481 1210 1481 1360 1083 c 0,6,7
 1414 939 1414 939 1414.5 758 c 128,-1,8
 1415 577 1415 577 1378 452 c 128,-1,9
 1341 327 1341 327 1272.5 242 c 0,10,11
 1204 156 1204 156 1102 102 c 0,12,13
 909 0 909 0 594 0 c 2,14,-1
 146 0 l 1,15,-1
 146 658 l 1,16,-1
 0 658 l 1,0,-1
489 249 m 1,17,-1
 632 249 l 2,18,19
 865 249 865 249 966 361.5 c 128,-1,20
 1067 474 1067 474 1067 728.5 c 128,-1,21
 1067 983 1067 983 967.5 1107.5 c 128,-1,22
 868 1232 868 1232 680 1232 c 2,23,-1
 489 1232 l 1,24,-1
 489 852 l 1,25,-1
 704 852 l 1,26,-1
 704 658 l 1,27,-1
 489 658 l 1,28,-1
 489 249 l 1,17,-1
EndSplineSet
EndChar

StartChar: multiply
Encoding: 215 215 152
Width: 1123
GlyphClass: 2
Flags: HW
LayerCount: 2
Fore
SplineSet
218 41 m 1,0,-1
 113 148 l 1,1,-1
 459 489 l 1,2,-1
 113 835 l 1,3,-1
 218 943 l 1,4,-1
 563 596 l 1,5,-1
 905 943 l 1,6,-1
 1014 835 l 1,7,-1
 667 489 l 1,8,-1
 1014 148 l 1,9,-1
 905 41 l 1,10,-1
 563 387 l 1,11,-1
 218 41 l 1,0,-1
EndSplineSet
EndChar

StartChar: Oslash
Encoding: 216 216 153
Width: 1523
GlyphClass: 2
Flags: HW
LayerCount: 2
Fore
SplineSet
764 -24 m 0,0,1
 558 -24 558 -24 409 56 c 1,2,-1
 360 -16 l 1,3,-1
 167 -16 l 1,4,-1
 279 149 l 1,5,6
 79 343 79 343 79 726 c 128,-1,7
 79 1109 79 1109 252 1306.5 c 128,-1,8
 425 1504 425 1504 764 1504 c 0,9,10
 979 1504 979 1504 1131 1421 c 1,11,-1
 1182 1497 l 1,12,-1
 1379 1497 l 1,13,-1
 1260 1322 l 1,14,15
 1447 1131 1447 1131 1447 752 c 128,-1,16
 1447 373 1447 373 1275.5 174.5 c 128,-1,17
 1104 -24 1104 -24 764 -24 c 0,0,1
469 439 m 1,18,-1
 970 1177 l 1,19,20
 890 1247 890 1247 779.5 1247 c 128,-1,21
 669 1247 669 1247 602 1211 c 0,22,23
 536 1176 536 1176 498 1106 c 0,24,25
 428 977 428 977 428 766 c 128,-1,26
 428 555 428 555 469 439 c 1,18,-1
567 293 m 1,27,28
 644 233 644 233 743 233 c 128,-1,29
 842 233 842 233 900.5 258.5 c 128,-1,30
 959 284 959 284 996 328 c 0,31,32
 1032 372 1032 372 1056 438 c 0,33,34
 1098 556 1098 556 1098.5 730.5 c 128,-1,35
 1099 905 1099 905 1062 1022 c 1,36,-1
 567 293 l 1,27,28
EndSplineSet
EndChar

StartChar: Thorn
Encoding: 222 222 159
Width: 1360
GlyphClass: 2
Flags: HW
LayerCount: 2
Fore
SplineSet
161 0 m 1,0,-1
 161 1481 l 1,1,-1
 505 1481 l 1,2,-1
 505 1286 l 1,3,-1
 737 1286 l 2,4,5
 981 1286 981 1286 1134 1180 c 0,6,7
 1299 1066 1299 1066 1299 829 c 128,-1,8
 1299 592 1299 592 1143 460.5 c 128,-1,9
 987 329 987 329 716 329 c 2,10,-1
 505 329 l 1,11,-1
 505 0 l 1,12,-1
 161 0 l 1,0,-1
505 575 m 1,13,-1
 577 575 l 2,14,15
 800 576 800 576 878 638 c 0,16,17
 950 697 950 697 950 814 c 0,18,19
 950 1006 950 1006 730 1030 c 0,20,21
 688 1034 688 1034 632 1034 c 2,22,-1
 505 1034 l 1,23,-1
 505 575 l 1,13,-1
EndSplineSet
EndChar

StartChar: germandbls
Encoding: 223 223 160
Width: 1234
GlyphClass: 2
Flags: HW
LayerCount: 2
Fore
SplineSet
600 967 m 1,0,1
 808 967 808 967 808 1131 c 0,2,3
 808 1283 808 1283 637 1283 c 0,4,5
 524 1283 524 1283 476 1225.5 c 128,-1,6
 428 1168 428 1168 428 1055 c 2,7,-1
 428 0 l 1,8,-1
 117 0 l 1,9,-1
 117 1031 l 2,10,11
 117 1261 117 1261 245 1382.5 c 128,-1,12
 373 1504 373 1504 612.5 1504 c 128,-1,13
 852 1504 852 1504 984.5 1409.5 c 128,-1,14
 1117 1315 1117 1315 1117 1164 c 0,15,16
 1117 1052 1117 1052 1044 971 c 128,-1,17
 971 890 971 890 866 873 c 1,18,-1
 866 863 l 1,19,20
 978 838 978 838 1064 770 c 0,21,22
 1232 637 1232 637 1233 455 c 0,23,24
 1233 235 1233 235 1095.5 115 c 128,-1,25
 958 -5 958 -5 701 -5 c 0,26,27
 689 -5 689 -5 603 -1 c 1,28,-1
 603 234 l 1,29,30
 610 233 610 233 643 233 c 0,31,32
 781 233 781 233 849.5 293.5 c 128,-1,33
 918 354 918 354 918 464 c 128,-1,34
 918 574 918 574 831 656.5 c 128,-1,35
 744 739 744 739 600 739 c 1,36,-1
 600 967 l 1,0,1
EndSplineSet
EndChar

StartChar: ae
Encoding: 230 230 167
Width: 1768
GlyphClass: 2
Flags: HW
LayerCount: 2
Fore
SplineSet
1016 442 m 1,0,1
 1031 198 1031 198 1319 198 c 0,2,3
 1405 198 1405 198 1487.5 230 c 128,-1,4
 1570 262 1570 262 1607 307 c 1,5,-1
 1654 306 l 1,6,-1
 1704 92 l 1,7,8
 1649 56 1649 56 1605 34.5 c 128,-1,9
 1561 13 1561 13 1472.5 -6 c 128,-1,10
 1384 -25 1384 -25 1286.5 -25 c 128,-1,11
 1189 -25 1189 -25 1121 -8.5 c 0,12,13
 1052 8 1052 8 1004 38 c 0,14,15
 918 92 918 92 862 166 c 1,16,17
 797 77 797 77 685.5 27.5 c 128,-1,18
 574 -22 574 -22 454 -22 c 0,19,20
 261 -22 261 -22 151 59.5 c 128,-1,21
 41 141 41 141 41 296 c 0,22,23
 41 609 41 609 543 645 c 1,24,25
 589 654 589 654 703 654 c 1,26,27
 702 745 702 745 652 792.5 c 128,-1,28
 602 840 602 840 467 840 c 0,29,30
 401 840 401 840 306 816.5 c 128,-1,31
 211 793 211 793 151 759 c 1,32,-1
 95 967 l 1,33,34
 145 1003 145 1003 266.5 1031.5 c 128,-1,35
 388 1060 388 1060 515 1060 c 128,-1,36
 642 1060 642 1060 736.5 1028 c 128,-1,37
 831 996 831 996 887 909 c 1,38,39
 941 986 941 986 1035.5 1023.5 c 128,-1,40
 1130 1061 1130 1061 1233 1061 c 0,41,42
 1466 1061 1466 1061 1592.5 928 c 128,-1,43
 1719 795 1719 795 1719 565 c 2,44,-1
 1719 442 l 1,45,-1
 1016 442 l 1,0,1
507 194 m 0,46,47
 710 194 710 194 710 437 c 0,48,49
 710 451 710 451 709 466 c 1,50,51
 506 456 506 456 460 439.5 c 128,-1,52
 414 423 414 423 391 408 c 0,53,54
 347 379 347 379 347 320 c 0,55,56
 347 194 347 194 507 194 c 0,46,47
1014 630 m 1,57,-1
 1417 630 l 1,58,59
 1415 735 1415 735 1364 795.5 c 128,-1,60
 1313 856 1313 856 1217.5 856 c 128,-1,61
 1122 856 1122 856 1070.5 794.5 c 128,-1,62
 1019 733 1019 733 1014 630 c 1,57,-1
EndSplineSet
EndChar

StartChar: eth
Encoding: 240 240 177
Width: 1244
GlyphClass: 2
Flags: HW
LayerCount: 2
Fore
SplineSet
1013 127.5 m 128,-1,1
 868 -22 868 -22 620 -22 c 128,-1,2
 372 -22 372 -22 226 114 c 128,-1,3
 80 250 80 250 80 487 c 0,4,5
 80 698 80 698 218 827 c 0,6,7
 340 942 340 942 519 942 c 0,8,9
 699 942 699 942 817 824 c 1,10,11
 790 986 790 986 682 1093 c 0,12,13
 656 1119 656 1119 621 1146 c 1,14,-1
 521 1008 l 1,15,-1
 414 1079 l 1,16,-1
 508 1209 l 1,17,18
 403 1253 403 1253 240 1269 c 1,19,-1
 281 1481 l 1,20,21
 490 1472 490 1472 653 1402 c 1,22,-1
 748 1526 l 1,23,-1
 854 1458 l 1,24,-1
 768 1344 l 1,25,26
 960 1229 960 1229 1059 1027 c 128,-1,27
 1158 825 1158 825 1158 551 c 128,-1,0
 1158 277 1158 277 1013 127.5 c 128,-1,1
834 464 m 128,-1,29
 834 533 834 533 814.5 585.5 c 0,30,31
 794 638 794 638 762 668 c 0,32,33
 670 721 670 721 613 727 c 1,34,35
 527 727 527 727 469 662.5 c 128,-1,36
 411 598 411 598 411 477 c 0,37,38
 412 318 412 318 504 244 c 0,39,40
 558 201 558 201 611.5 201 c 128,-1,41
 665 201 665 201 702 216 c 128,-1,42
 739 231 739 231 769 261 c 128,-1,43
 799 291 799 291 816.5 343 c 128,-1,28
 834 395 834 395 834 464 c 128,-1,29
EndSplineSet
EndChar

StartChar: divide
Encoding: 247 247 184
Width: 1460
GlyphClass: 2
Flags: HW
LayerCount: 2
Fore
SplineSet
872 59 m 128,-1,1
 813 0 813 0 729.5 0 c 128,-1,2
 646 0 646 0 587 59 c 128,-1,3
 528 118 528 118 528 201.5 c 128,-1,4
 528 285 528 285 587 344.5 c 128,-1,5
 646 404 646 404 729.5 404 c 128,-1,6
 813 404 813 404 872 344.5 c 128,-1,7
 931 285 931 285 931 201.5 c 128,-1,0
 931 118 931 118 872 59 c 128,-1,1
134 496 m 1,8,-1
 134 732 l 1,9,-1
 1328 732 l 1,10,-1
 1328 496 l 1,11,-1
 134 496 l 1,8,-1
872 886 m 128,-1,13
 813 827 813 827 729.5 827 c 128,-1,14
 646 827 646 827 587 886 c 128,-1,15
 528 945 528 945 528 1029 c 128,-1,16
 528 1113 528 1113 587 1172.5 c 128,-1,17
 646 1232 646 1232 729.5 1232 c 128,-1,18
 813 1232 813 1232 872 1172.5 c 128,-1,19
 931 1113 931 1113 931 1029 c 128,-1,12
 931 945 931 945 872 886 c 128,-1,13
EndSplineSet
EndChar

StartChar: oslash
Encoding: 248 248 185
Width: 1162
GlyphClass: 2
Flags: HW
LayerCount: 2
Fore
SplineSet
581 -22 m 0,0,1
 427 -22 427 -22 325 25 c 1,2,-1
 229 -116 l 1,3,-1
 75 -116 l 1,4,-1
 216 92 l 1,5,6
 53 232 53 232 53 508 c 128,-1,7
 53 784 53 784 191.5 922 c 128,-1,8
 330 1060 330 1060 581 1060 c 0,9,10
 734 1060 734 1060 848 1004 c 1,11,-1
 931 1127 l 1,12,-1
 1087 1127 l 1,13,-1
 955 936 l 1,14,15
 1111 801 1111 801 1111 527 c 128,-1,16
 1111 253 1111 253 972.5 115.5 c 128,-1,17
 834 -22 834 -22 581 -22 c 0,0,1
369 315 m 1,18,-1
 716 798 l 1,19,20
 666 836 666 836 581 836 c 0,21,22
 347 836 347 836 347 517 c 0,23,24
 347 380 347 380 369 315 c 1,18,-1
450 231 m 1,25,26
 499 202 499 202 597.5 202 c 128,-1,27
 696 202 696 202 761 278.5 c 128,-1,28
 826 355 826 355 826 516 c 0,29,30
 826 605 826 605 795 708 c 1,31,-1
 450 231 l 1,25,26
EndSplineSet
EndChar

StartChar: thorn
Encoding: 254 254 191
Width: 1177
GlyphClass: 2
Flags: HW
LayerCount: 2
Fore
SplineSet
119 -391 m 1,0,-1
 119 1430 l 1,1,-1
 429 1430 l 1,2,-1
 429 898 l 1,3,4
 469 968 469 968 554 1013 c 128,-1,5
 639 1058 639 1058 737.5 1058 c 128,-1,6
 836 1058 836 1058 911 1019.5 c 128,-1,7
 986 981 986 981 1031 909 c 0,8,9
 1119 768 1119 768 1119 519.5 c 128,-1,10
 1119 271 1119 271 1005.5 124 c 128,-1,11
 892 -23 892 -23 689 -23 c 0,12,13
 543 -23 543 -23 429 58 c 1,14,-1
 429 -391 l 1,15,-1
 119 -391 l 1,0,-1
429 238 m 1,16,17
 482 204 482 204 593 204 c 0,18,19
 804 204 804 204 804 520 c 0,20,21
 804 668 804 668 756 744.5 c 128,-1,22
 708 821 708 821 598.5 821 c 128,-1,23
 489 821 489 821 429 762 c 1,24,-1
 429 238 l 1,16,17
EndSplineSet
EndChar

StartChar: dcroat
Encoding: 273 273 208
Width: 1219
GlyphClass: 2
Flags: HW
LayerCount: 2
Fore
SplineSet
515 1158 m 1,0,-1
 515 1320 l 1,1,-1
 1219 1320 l 1,2,-1
 1219 1158 l 1,3,-1
 515 1158 l 1,0,-1
795 121 m 1,4,5
 699 -22 699 -22 518 -22 c 0,6,7
 382 -22 382 -22 282 48 c 0,8,9
 80 191 80 191 81 525 c 0,10,11
 81 780 81 780 191 919.5 c 128,-1,12
 301 1059 301 1059 516 1059 c 0,13,14
 666 1059 666 1059 795 961 c 1,15,-1
 795 1481 l 1,16,-1
 1104 1481 l 1,17,-1
 1104 0 l 1,18,-1
 795 0 l 1,19,-1
 795 121 l 1,4,5
456.5 287.5 m 128,-1,21
 519 202 519 202 621.5 202 c 128,-1,22
 724 202 724 202 795 238 c 1,23,-1
 795 776 l 1,24,25
 705 835 705 835 600.5 835 c 128,-1,26
 496 835 496 835 445 747 c 128,-1,27
 394 659 394 659 394 516 c 128,-1,20
 394 373 394 373 456.5 287.5 c 128,-1,21
EndSplineSet
EndChar

StartChar: Hbar
Encoding: 294 294 226
Width: 1512
GlyphClass: 2
Flags: HW
LayerCount: 2
Fore
SplineSet
68 1158 m 1,0,-1
 68 1320 l 1,1,-1
 1445 1320 l 1,2,-1
 1445 1158 l 1,3,-1
 68 1158 l 1,0,-1
146 0 m 1,4,-1
 146 1481 l 1,5,-1
 489 1481 l 1,6,-1
 489 894 l 1,7,-1
 1023 894 l 1,8,-1
 1023 1481 l 1,9,-1
 1367 1481 l 1,10,-1
 1367 0 l 1,11,-1
 1023 0 l 1,12,-1
 1023 646 l 1,13,-1
 489 646 l 1,14,-1
 489 0 l 1,15,-1
 146 0 l 1,4,-1
EndSplineSet
EndChar

StartChar: hbar
Encoding: 295 295 227
Width: 1186
GlyphClass: 2
Flags: HW
LayerCount: 2
Fore
SplineSet
0 1158 m 1,0,-1
 0 1320 l 1,1,-1
 704 1320 l 1,2,-1
 704 1158 l 1,3,-1
 0 1158 l 1,0,-1
119 0 m 1,4,-1
 119 1481 l 1,5,-1
 428 1481 l 1,6,-1
 428 870 l 1,7,8
 450 913 450 913 507 963 c 0,9,10
 619 1059 619 1059 759.5 1059 c 128,-1,11
 900 1059 900 1059 992.5 961 c 128,-1,12
 1085 863 1085 863 1085 684 c 2,13,-1
 1085 0 l 1,14,-1
 776 0 l 1,15,-1
 776 592 l 2,16,17
 776 714 776 714 738 766 c 128,-1,18
 700 818 700 818 621 818 c 128,-1,19
 542 818 542 818 485 768 c 128,-1,20
 428 718 428 718 428 662 c 2,21,-1
 428 0 l 1,22,-1
 119 0 l 1,4,-1
EndSplineSet
EndChar

StartChar: dotlessi
Encoding: 305 305 237
Width: 553
GlyphClass: 2
Flags: HW
LayerCount: 2
Fore
SplineSet
121 0 m 1,0,-1
 121 1035 l 1,1,-1
 431 1035 l 1,2,-1
 431 0 l 1,3,-1
 121 0 l 1,0,-1
EndSplineSet
EndChar

StartChar: kgreenlandic
Encoding: 312 312 244
Width: 1160
GlyphClass: 2
Flags: HW
LayerCount: 2
Fore
SplineSet
118 0 m 1,0,-1
 118 1035 l 1,1,-1
 429 1035 l 1,2,-1
 429 599 l 1,3,-1
 799 1035 l 1,4,-1
 1127 1035 l 1,5,-1
 1127 991 l 1,6,-1
 767 579 l 1,7,-1
 1144 73 l 1,8,-1
 1144 0 l 1,9,-1
 832 0 l 1,10,-1
 528 442 l 1,11,-1
 429 341 l 1,12,-1
 429 0 l 1,13,-1
 118 0 l 1,0,-1
EndSplineSet
EndChar

StartChar: Lslash
Encoding: 321 321 250
Width: 1198
GlyphClass: 2
Flags: HW
LayerCount: 2
Fore
SplineSet
164 0 m 1,0,-1
 164 482 l 1,1,-1
 28 387 l 1,2,-1
 28 593 l 1,3,-1
 164 689 l 1,4,-1
 164 1481 l 1,5,-1
 508 1481 l 1,6,-1
 508 931 l 1,7,-1
 758 1110 l 1,8,-1
 758 903 l 1,9,-1
 508 725 l 1,10,-1
 508 256 l 1,11,-1
 1158 256 l 1,12,-1
 1158 0 l 1,13,-1
 164 0 l 1,0,-1
EndSplineSet
EndChar

StartChar: lslash
Encoding: 322 322 251
Width: 616
GlyphClass: 2
Flags: HW
LayerCount: 2
Fore
SplineSet
500 -2 m 2,0,1
 266 -2 266 -2 190 80 c 0,2,3
 162 110 162 110 148.5 132.5 c 128,-1,4
 135 155 135 155 128 198 c 0,5,6
 119 253 119 253 119 301 c 2,7,-1
 119 583 l 1,8,-1
 0 508 l 1,9,-1
 0 675 l 1,10,-1
 119 749 l 1,11,-1
 119 1434 l 1,12,-1
 427 1434 l 1,13,-1
 428 943 l 1,14,-1
 571 1034 l 1,15,-1
 571 867 l 1,16,-1
 428 777 l 1,17,-1
 428 340 l 2,18,19
 428 274 428 274 458 243 c 128,-1,20
 488 212 488 212 583 212 c 1,21,-1
 583 -2 l 1,22,-1
 500 -2 l 2,0,1
EndSplineSet
EndChar

StartChar: OE
Encoding: 338 338 264
Width: 1992
GlyphClass: 2
Flags: HW
LayerCount: 2
Fore
SplineSet
688 0 m 2,0,1
 393 0 393 0 227.5 190.5 c 128,-1,2
 62 381 62 381 62 737 c 128,-1,3
 62 1093 62 1093 227 1287 c 128,-1,4
 392 1481 392 1481 692 1481 c 2,5,-1
 1885 1481 l 1,6,-1
 1885 1224 l 1,7,-1
 1287 1224 l 1,8,-1
 1287 906 l 1,9,-1
 1804 906 l 1,10,-1
 1804 653 l 1,11,-1
 1287 653 l 1,12,-1
 1287 255 l 1,13,-1
 1885 255 l 1,14,-1
 1885 0 l 1,15,-1
 688 0 l 2,0,1
726 255 m 1,16,-1
 945 255 l 1,17,-1
 945 1224 l 1,18,-1
 731 1224 l 2,19,20
 551 1224 551 1224 473 1109.5 c 0,21,22
 395 994 395 994 395 744 c 128,-1,23
 395 494 395 494 470.5 376 c 128,-1,24
 546 258 546 258 726 255 c 1,16,-1
EndSplineSet
EndChar

StartChar: oe
Encoding: 339 339 265
Width: 1865
GlyphClass: 2
Flags: HW
LayerCount: 2
Fore
SplineSet
579 -26 m 0,0,1
 328 -26 328 -26 188 106.5 c 128,-1,2
 48 239 48 239 48 517.5 c 128,-1,3
 48 796 48 796 188 929 c 128,-1,4
 328 1062 328 1062 579 1062 c 0,5,6
 705 1062 705 1062 805 1020.5 c 128,-1,7
 905 979 905 979 957 901 c 1,8,9
 1018 970 1018 970 1118 1015 c 128,-1,10
 1218 1060 1218 1060 1330 1060 c 0,11,12
 1562 1060 1562 1060 1689.5 928.5 c 128,-1,13
 1817 797 1817 797 1817 565 c 2,14,-1
 1817 446 l 1,15,-1
 1107 446 l 1,16,17
 1114 323 1114 323 1193.5 260.5 c 128,-1,18
 1273 198 1273 198 1413 198 c 0,19,20
 1492 198 1492 198 1582.5 234 c 128,-1,21
 1673 270 1673 270 1718 301 c 1,22,-1
 1752 301 l 1,23,-1
 1802 92 l 1,24,25
 1634 -24 1634 -24 1382 -24 c 0,26,27
 1251 -24 1251 -24 1128 24 c 128,-1,28
 1005 72 1005 72 952 144 c 1,29,30
 900 71 900 71 800.5 22.5 c 128,-1,31
 701 -26 701 -26 579 -26 c 0,0,1
580 196 m 0,32,33
 795 196 795 196 795 515 c 0,34,35
 795 693 795 693 741.5 767 c 128,-1,36
 688 841 688 841 575 841 c 0,37,38
 460 841 460 841 406 750 c 0,39,40
 360 671 360 671 359.5 507.5 c 128,-1,41
 359 344 359 344 415 270 c 128,-1,42
 471 196 471 196 580 196 c 0,32,33
1107 634 m 1,43,-1
 1515 634 l 1,44,45
 1511 736 1511 736 1462.5 796 c 128,-1,46
 1414 856 1414 856 1317 856 c 128,-1,47
 1220 856 1220 856 1165.5 793.5 c 128,-1,48
 1111 731 1111 731 1107 634 c 1,43,-1
EndSplineSet
EndChar

StartChar: florin
Encoding: 402 402 304
Width: 1174
GlyphClass: 2
Flags: HW
LayerCount: 2
Fore
SplineSet
225 -264 m 0,0,1
 121 -264 121 -264 47 -243 c 1,2,-1
 67 -1 l 1,3,4
 76 -2 76 -2 100 -8 c 0,5,6
 175 -22 175 -22 200 -22 c 1,7,8
 342 -22 342 -22 370 259 c 1,9,10
 420 589 420 589 431 655 c 1,11,-1
 263 655 l 1,12,-1
 276 837 l 1,13,-1
 458 837 l 1,14,15
 466 893 466 893 484.5 1012 c 128,-1,16
 503 1131 503 1131 534.5 1201.5 c 128,-1,17
 566 1272 566 1272 608 1316 c 128,-1,18
 650 1360 650 1360 706 1388 c 0,19,20
 805 1438 805 1438 917.5 1438 c 128,-1,21
 1030 1438 1030 1438 1107 1421 c 1,22,-1
 1087 1178 l 1,23,24
 1014 1197 1014 1197 969 1197 c 128,-1,25
 924 1197 924 1197 896.5 1186 c 128,-1,26
 869 1175 869 1175 852.5 1158 c 128,-1,27
 836 1141 836 1141 824 1110 c 0,28,29
 803 1055 803 1055 789 947 c 128,-1,30
 775 839 775 839 775 837 c 1,31,-1
 1008 837 l 1,32,-1
 995 655 l 1,33,-1
 746 655 l 1,34,35
 730 551 730 551 670 176 c 1,36,37
 634 -59 634 -59 522 -161.5 c 128,-1,38
 410 -264 410 -264 225 -264 c 0,0,1
EndSplineSet
EndChar

StartChar: uni0237
Encoding: 567 567 347
Width: 575
GlyphClass: 2
Flags: HW
LayerCount: 2
Fore
SplineSet
105 -383 m 0,0,1
 5 -383 5 -383 -83 -375 c 1,2,-1
 -83 -182 l 1,3,4
 -35 -186 -35 -186 3.5 -186 c 128,-1,5
 42 -186 42 -186 64.5 -182 c 128,-1,6
 87 -178 87 -178 110 -165 c 0,7,8
 134 -152 134 -152 146 -128 c 0,9,10
 174 -73 174 -73 174 39 c 2,11,-1
 174 1041 l 1,12,-1
 459 1041 l 1,13,-1
 459 -22 l 2,14,15
 459 -190 459 -190 367 -286.5 c 128,-1,16
 275 -383 275 -383 105 -383 c 0,0,1
EndSplineSet
EndChar

StartChar: circumflex
Encoding: 710 710 348
Width: 852
GlyphClass: 2
Flags: HW
LayerCount: 2
Fore
SplineSet
30 1171 m 1,0,-1
 318 1514 l 1,1,-1
 532 1514 l 1,2,-1
 822 1171 l 1,3,-1
 578 1171 l 1,4,-1
 424 1356 l 1,5,-1
 270 1171 l 1,6,-1
 30 1171 l 1,0,-1
EndSplineSet
EndChar

StartChar: caron
Encoding: 711 711 349
Width: 885
GlyphClass: 2
Flags: HW
LayerCount: 2
Fore
SplineSet
330 1174 m 1,0,-1
 18 1514 l 1,1,-1
 276 1514 l 1,2,-1
 444 1330 l 1,3,-1
 610 1514 l 1,4,-1
 868 1514 l 1,5,-1
 554 1174 l 1,6,-1
 330 1174 l 1,0,-1
EndSplineSet
EndChar

StartChar: breve
Encoding: 728 728 350
Width: 847
GlyphClass: 2
Flags: HW
LayerCount: 2
Fore
SplineSet
677.5 1235 m 128,-1,1
 585 1150 585 1150 419 1150 c 128,-1,2
 253 1150 253 1150 164.5 1233.5 c 128,-1,3
 76 1317 76 1317 74 1479 c 1,4,-1
 254 1479 l 1,5,6
 262 1401 262 1401 299.5 1358 c 128,-1,7
 337 1315 337 1315 424 1315 c 0,8,9
 578 1315 578 1315 590 1479 c 1,10,-1
 772 1479 l 1,11,0
 770 1320 770 1320 677.5 1235 c 128,-1,1
EndSplineSet
EndChar

StartChar: dotaccent
Encoding: 729 729 351
Width: 363
GlyphClass: 2
Flags: HW
LayerCount: 2
Fore
SplineSet
181 202 m 128,-1,1
 100 202 100 202 57 241 c 128,-1,2
 14 280 14 280 14 342 c 128,-1,3
 14 404 14 404 57 443 c 128,-1,4
 100 482 100 482 181 482 c 128,-1,5
 262 482 262 482 305.5 443.5 c 0,6,7
 349 404 349 404 349 342 c 128,-1,8
 349 280 349 280 305.5 241 c 128,-1,0
 262 202 262 202 181 202 c 128,-1,1
EndSplineSet
EndChar

StartChar: ring
Encoding: 730 730 352
Width: 751
GlyphClass: 2
Flags: HW
LayerCount: 2
Fore
SplineSet
376 257 m 128,-1,1
 458 257 458 257 515 313.5 c 128,-1,2
 572 370 572 370 572 450 c 128,-1,3
 572 530 572 530 514.5 588 c 0,4,5
 458 646 458 646 376 646 c 128,-1,6
 294 646 294 646 236 588 c 128,-1,7
 178 530 178 530 178 450 c 128,-1,8
 178 370 178 370 236 313.5 c 128,-1,0
 294 257 294 257 376 257 c 128,-1,1
376 155 m 128,-1,10
 247 155 247 155 156.5 241 c 128,-1,11
 66 327 66 327 66 451 c 128,-1,12
 66 575 66 575 156.5 660.5 c 128,-1,13
 247 746 247 746 376 746 c 128,-1,14
 505 746 505 746 595.5 660 c 128,-1,15
 686 574 686 574 686 450 c 128,-1,16
 686 326 686 326 595.5 240.5 c 128,-1,9
 505 155 505 155 376 155 c 128,-1,10
EndSplineSet
EndChar

StartChar: ogonek
Encoding: 731 731 353
Width: 759
GlyphClass: 2
Flags: HW
LayerCount: 2
Fore
SplineSet
422 -407 m 1,0,1
 334 -407 334 -407 273.5 -359 c 128,-1,2
 213 -311 213 -311 201 -234 c 1,3,4
 200 -220 200 -220 200 -206 c 0,5,6
 200 -95 200 -95 286 5 c 1,7,-1
 431 5 l 1,8,9
 374 -66 374 -66 370 -134 c 0,10,11
 370 -142 370 -142 370 -149 c 0,12,13
 370 -206 370 -206 397 -238 c 0,14,15
 428 -274 428 -274 480.5 -273.5 c 128,-1,16
 533 -273 533 -273 605 -245 c 1,17,-1
 615 -377 l 1,18,19
 528 -408 528 -408 451 -408 c 0,20,21
 436 -408 436 -408 422 -407 c 1,0,1
EndSplineSet
EndChar

StartChar: tilde
Encoding: 732 732 354
Width: 1079
GlyphClass: 2
Flags: HW
LayerCount: 2
Fore
SplineSet
762 211 m 0,0,1
 700 211 700 211 558 257 c 128,-1,2
 416 303 416 303 387 303 c 128,-1,3
 358 303 358 303 344.5 284 c 128,-1,4
 331 265 331 265 331 211 c 1,5,6
 245 210 245 210 202 210 c 128,-1,7
 159 210 159 210 159 211 c 0,8,9
 159 377 159 377 209.5 450 c 128,-1,10
 260 523 260 523 360 523 c 0,11,12
 414 523 414 523 568 475 c 128,-1,13
 722 427 722 427 742 427 c 128,-1,14
 762 427 762 427 771.5 444.5 c 128,-1,15
 781 462 781 462 781 523 c 1,16,-1
 954 523 l 1,17,18
 952 339 952 339 913 275 c 128,-1,19
 874 211 874 211 762 211 c 0,0,1
EndSplineSet
EndChar

StartChar: hungarumlaut
Encoding: 733 733 355
Width: 807
GlyphClass: 2
Flags: HW
LayerCount: 2
Fore
SplineSet
40 1160 m 1,0,-1
 240 1506 l 1,1,-1
 541 1506 l 1,2,-1
 252 1160 l 1,3,-1
 40 1160 l 1,0,-1
444 1160 m 1,4,-1
 646 1506 l 1,5,-1
 953 1506 l 1,6,-1
 656 1160 l 1,7,-1
 444 1160 l 1,4,-1
EndSplineSet
EndChar

StartChar: uni0307
Encoding: 775 775 356
Width: 363
GlyphClass: 2
Flags: HW
LayerCount: 2
Fore
SplineSet
181 202 m 128,-1,1
 100 202 100 202 57 241 c 128,-1,2
 14 280 14 280 14 342 c 128,-1,3
 14 404 14 404 57 443 c 128,-1,4
 100 482 100 482 181 482 c 128,-1,5
 262 482 262 482 305.5 443.5 c 0,6,7
 349 404 349 404 349 342 c 128,-1,8
 349 280 349 280 305.5 241 c 128,-1,0
 262 202 262 202 181 202 c 128,-1,1
EndSplineSet
EndChar

StartChar: uni030F
Encoding: 783 783 357
Width: 725
GlyphClass: 2
Flags: HW
LayerCount: 2
Fore
SplineSet
278 1137 m 1,0,-1
 -14 1481 l 1,1,-1
 231 1481 l 1,2,-1
 433 1137 l 1,3,-1
 278 1137 l 1,0,-1
585 1137 m 1,4,-1
 321 1481 l 1,5,-1
 547 1481 l 1,6,-1
 739 1137 l 1,7,-1
 585 1137 l 1,4,-1
EndSplineSet
EndChar

StartChar: uni0311
Encoding: 785 785 358
Width: 857
GlyphClass: 2
Flags: HW
LayerCount: 2
Fore
SplineSet
81 1147 m 1,0,1
 83 1305 83 1305 176 1389.5 c 128,-1,2
 269 1474 269 1474 434 1474 c 0,3,4
 599 1474 599 1474 686.5 1391 c 128,-1,5
 774 1308 774 1308 776 1147 c 1,6,-1
 596 1147 l 1,7,8
 589 1225 589 1225 552 1268 c 128,-1,9
 515 1311 515 1311 429 1311 c 0,10,11
 277 1311 277 1311 264 1147 c 1,12,-1
 81 1147 l 1,0,1
EndSplineSet
EndChar

StartChar: uni0326
Encoding: 806 806 359
Width: 470
GlyphClass: 2
Flags: HW
LayerCount: 2
Fore
SplineSet
45 -235 m 1,0,-1
 104 338 l 1,1,-1
 439 338 l 1,2,-1
 216 -235 l 1,3,-1
 45 -235 l 1,0,-1
EndSplineSet
EndChar

StartChar: pi
Encoding: 960 960 360
Width: 1213
GlyphClass: 2
Flags: HW
LayerCount: 2
Fore
SplineSet
157 0 m 1,0,1
 199 120 199 120 212.5 357.5 c 128,-1,2
 226 595 226 595 227 781 c 1,3,4
 114 781 114 781 20 724 c 1,5,-1
 11 924 l 1,6,7
 58 958 58 958 131.5 970.5 c 128,-1,8
 205 983 205 983 328 983 c 2,9,-1
 1165 983 l 1,10,-1
 1160 781 l 1,11,-1
 982 781 l 1,12,-1
 982 360 l 2,13,14
 982 256 982 256 1034 240 c 1,15,16
 1056 175 1056 175 1099 154 c 1,17,-1
 1034 9 l 1,18,19
 1008 3 1008 3 981 3 c 0,20,21
 952 3 952 3 921 10 c 1,22,23
 724 42 724 42 724 326 c 2,24,-1
 724 781 l 1,25,-1
 482 781 l 1,26,27
 479 563 479 563 467.5 338.5 c 128,-1,28
 456 114 456 114 416 0 c 1,29,-1
 157 0 l 1,0,1
EndSplineSet
EndChar

StartChar: endash
Encoding: 8211 8211 383
Width: 1269
GlyphClass: 2
Flags: HW
LayerCount: 2
Fore
SplineSet
-5 469 m 1,0,-1
 -5 715 l 1,1,-1
 1275 715 l 1,2,-1
 1275 469 l 1,3,-1
 -5 469 l 1,0,-1
EndSplineSet
EndChar

StartChar: emdash
Encoding: 8212 8212 384
Width: 1917
GlyphClass: 2
Flags: HW
LayerCount: 2
Fore
SplineSet
-5 469 m 1,0,-1
 -5 715 l 1,1,-1
 1924 715 l 1,2,-1
 1924 469 l 1,3,-1
 -5 469 l 1,0,-1
EndSplineSet
EndChar

StartChar: quoteleft
Encoding: 8216 8216 385
Width: 490
GlyphClass: 2
Flags: HW
LayerCount: 2
Fore
SplineSet
207 962 m 1,0,-1
 25 1481 l 1,1,-1
 315 1481 l 1,2,-1
 418 962 l 1,3,-1
 207 962 l 1,0,-1
EndSplineSet
EndChar

StartChar: quoteright
Encoding: 8217 8217 386
Width: 490
GlyphClass: 2
Flags: HW
LayerCount: 2
Fore
SplineSet
75 993 m 1,0,-1
 174 1481 l 1,1,-1
 463 1481 l 1,2,-1
 274 993 l 1,3,-1
 75 993 l 1,0,-1
EndSplineSet
EndChar

StartChar: quotesinglbase
Encoding: 8218 8218 387
Width: 500
GlyphClass: 2
Flags: HW
LayerCount: 2
Fore
SplineSet
74 -244 m 1,0,-1
 173 243 l 1,1,-1
 473 243 l 1,2,3
 298 -244 l 1,4,-1
 74 -244 l 1,0,-1
EndSplineSet
EndChar

StartChar: quotedblleft
Encoding: 8220 8220 388
Width: 844
GlyphClass: 2
Flags: HW
LayerCount: 2
Fore
SplineSet
207 962 m 1,0,-1
 25 1481 l 1,1,-1
 315 1481 l 1,2,-1
 418 962 l 1,3,-1
 207 962 l 1,0,-1
584 962 m 1,4,-1
 402 1481 l 1,5,-1
 693 1481 l 1,6,-1
 795 962 l 1,7,-1
 584 962 l 1,4,-1
EndSplineSet
EndChar

StartChar: quotedblright
Encoding: 8221 8221 389
Width: 843
GlyphClass: 2
Flags: HW
LayerCount: 2
Fore
SplineSet
75 993 m 1,0,-1
 174 1481 l 1,1,-1
 463 1481 l 1,2,-1
 274 993 l 1,3,-1
 75 993 l 1,0,-1
459 993 m 1,4,-1
 558 1481 l 1,5,-1
 847 1481 l 1,6,-1
 658 993 l 1,7,-1
 459 993 l 1,4,-1
EndSplineSet
EndChar

StartChar: quotedblbase
Encoding: 8222 8222 390
Width: 869
GlyphClass: 2
Flags: HW
LayerCount: 2
Fore
SplineSet
58 -244 m 1,0,-1
 158 243 l 1,1,-1
 468 243 l 1,2,-1
 227 -244 l 1,3,-1
 58 -244 l 1,0,-1
435 -244 m 1,4,-1
 535 243 l 1,5,-1
 844 243 l 1,6,-1
 605 -244 l 1,7,-1
 435 -244 l 1,4,-1
EndSplineSet
EndChar

StartChar: dagger
Encoding: 8224 8224 391
Width: 1162
GlyphClass: 2
Flags: HW
LayerCount: 2
Fore
SplineSet
451 -49 m 1,0,-1
 451 821 l 1,1,-1
 111 821 l 1,2,-1
 111 1028 l 1,3,-1
 455 1028 l 1,4,-1
 455 1436 l 1,5,-1
 711 1436 l 1,6,-1
 711 1026 l 1,7,-1
 1052 1026 l 1,8,-1
 1052 818 l 1,9,-1
 709 818 l 1,10,-1
 709 -49 l 1,11,-1
 451 -49 l 1,0,-1
EndSplineSet
EndChar

StartChar: daggerdbl
Encoding: 8225 8225 392
Width: 1163
GlyphClass: 2
Flags: HW
LayerCount: 2
Fore
SplineSet
453 -47 m 1,0,-1
 453 336 l 1,1,-1
 112 336 l 1,2,-1
 112 543 l 1,3,-1
 458 543 l 1,4,-1
 458 860 l 1,5,-1
 112 860 l 1,6,-1
 112 1067 l 1,7,-1
 456 1067 l 1,8,-1
 456 1436 l 1,9,-1
 712 1436 l 1,10,-1
 712 1064 l 1,11,-1
 1053 1064 l 1,12,-1
 1053 857 l 1,13,-1
 708 857 l 1,14,-1
 708 540 l 1,15,-1
 1053 540 l 1,16,-1
 1053 334 l 1,17,-1
 710 334 l 1,18,-1
 710 -47 l 1,19,-1
 453 -47 l 1,0,-1
EndSplineSet
EndChar

StartChar: bullet
Encoding: 8226 8226 393
Width: 1111
GlyphClass: 2
Flags: HW
LayerCount: 2
Fore
SplineSet
885 339 m 128,-1,1
 748 208 748 208 555.5 208 c 128,-1,2
 363 208 363 208 226 339.5 c 128,-1,3
 89 471 89 471 89 655 c 0,4,5
 89 776 89 776 152 879 c 128,-1,6
 215 982 215 982 322.5 1041.5 c 128,-1,7
 430 1101 430 1101 556 1101 c 128,-1,8
 682 1101 682 1101 790 1041 c 128,-1,9
 898 981 898 981 960 878.5 c 128,-1,10
 1022 776 1022 776 1022 655 c 0,11,0
 1022 470 1022 470 885 339 c 128,-1,1
EndSplineSet
EndChar

StartChar: guilsinglleft
Encoding: 8249 8249 394
Width: 679
GlyphClass: 2
Flags: HW
LayerCount: 2
Fore
SplineSet
607 135 m 1,0,1
 207 456 207 456 105 532 c 1,2,-1
 105 644 l 1,3,4
 607 1052 l 1,5,-1
 607 774 l 1,6,-1
 381 593 l 1,7,8
 555 457 555 457 607 415 c 1,9,-1
 607 135 l 1,0,1
EndSplineSet
EndChar

StartChar: guilsinglright
Encoding: 8250 8250 395
Width: 679
GlyphClass: 2
Flags: HW
LayerCount: 2
Fore
SplineSet
108 135 m 1,0,-1
 108 412 l 1,1,-1
 333 593 l 1,2,3
 180 713 180 713 108 770 c 1,4,-1
 108 1052 l 1,5,6
 508 730 508 730 610 654 c 1,7,-1
 610 542 l 1,8,9
 108 135 l 1,0,-1
EndSplineSet
EndChar

StartChar: fraction
Encoding: 8260 8260 396
Width: 792
GlyphClass: 2
Flags: HW
LayerCount: 2
Fore
SplineSet
-138 -13 m 1,0,-1
 663 1407 l 1,1,-1
 923 1407 l 1,2,-1
 123 -13 l 1,3,-1
 -138 -13 l 1,0,-1
EndSplineSet
EndChar

StartChar: Euro
Encoding: 8364 8364 397
Width: 1171
GlyphClass: 2
Flags: HW
LayerCount: 2
Fore
SplineSet
773 -24 m 1,0,1
 501 -24 501 -24 335 101 c 128,-1,2
 169 226 169 226 108 488 c 1,3,-1
 -42 488 l 1,4,-1
 -2 651 l 1,5,-1
 82 651 l 1,6,7
 80 673 80 673 80 712 c 128,-1,8
 80 751 80 751 83 819 c 1,9,-1
 -38 819 l 1,10,-1
 -4 973 l 1,11,-1
 103 973 l 1,12,13
 154 1231 154 1231 323.5 1367.5 c 128,-1,14
 493 1504 493 1504 758 1504 c 0,15,16
 973 1504 973 1504 1169 1406 c 1,17,-1
 1169 1105 l 1,18,-1
 1066 1105 l 1,19,20
 1030 1181 1030 1181 956 1217.5 c 128,-1,21
 882 1254 882 1254 806 1254 c 0,22,23
 532 1254 532 1254 460 973 c 1,24,-1
 1030 973 l 1,25,-1
 995 819 l 1,26,-1
 432 819 l 1,27,28
 428 729 428 729 428 695.5 c 128,-1,29
 428 662 428 662 429 651 c 1,30,-1
 968 651 l 1,31,-1
 930 488 l 1,32,-1
 469 488 l 1,33,34
 545 235 545 235 793 227 c 1,35,36
 857 227 857 227 919 246 c 0,37,38
 1038 282 1038 282 1079 376 c 1,39,-1
 1169 376 l 1,40,-1
 1169 72 l 1,41,42
 1014 -10 1014 -10 773 -24 c 1,0,1
EndSplineSet
EndChar

StartChar: trademark
Encoding: 8482 8482 398
Width: 1760
GlyphClass: 2
Flags: HW
LayerCount: 2
Fore
SplineSet
788 768 m 1,0,-1
 788 1482 l 1,1,-1
 1068 1482 l 1,2,-1
 1230 1073 l 1,3,-1
 1397 1482 l 1,4,-1
 1664 1482 l 1,5,-1
 1664 768 l 1,6,-1
 1495 768 l 1,7,-1
 1495 1325 l 1,8,-1
 1482 1325 l 1,9,-1
 1292 877 l 1,10,-1
 1165 877 l 1,11,-1
 974 1330 l 1,12,-1
 957 1330 l 1,13,-1
 957 768 l 1,14,-1
 788 768 l 1,0,-1
295 768 m 1,15,-1
 295 1336 l 1,16,-1
 90 1336 l 1,17,-1
 90 1482 l 1,18,-1
 678 1482 l 1,19,-1
 678 1336 l 1,20,-1
 472 1336 l 1,21,-1
 472 768 l 1,22,-1
 295 768 l 1,15,-1
EndSplineSet
EndChar

StartChar: partialdiff
Encoding: 8706 8706 399
Width: 1103
GlyphClass: 2
Flags: HW
LayerCount: 2
Fore
SplineSet
453 -16 m 0,0,1
 269 -16 269 -16 162.5 100 c 128,-1,2
 56 216 56 216 56 385.5 c 128,-1,3
 56 555 56 555 116.5 683 c 128,-1,4
 177 811 177 811 283.5 884.5 c 128,-1,5
 390 958 390 958 521 958 c 0,6,7
 607 958 607 958 671.5 919.5 c 128,-1,8
 736 881 736 881 773 821 c 1,9,-1
 777 821 l 1,10,11
 778 839 778 839 778 870 c 0,12,13
 778 1031 778 1031 720 1128.5 c 128,-1,14
 662 1226 662 1226 552 1244 c 1,15,16
 522 1250 522 1250 490 1250 c 0,17,18
 381 1250 381 1250 265 1179 c 1,19,-1
 286 1382 l 1,20,21
 415 1456 415 1456 564 1456 c 0,22,23
 585 1456 585 1456 607 1454 c 1,24,25
 813 1442 813 1442 925.5 1306 c 128,-1,26
 1038 1170 1038 1170 1049 909 c 0,27,28
 1050 886 1050 886 1050 863 c 0,29,30
 1050 792 1050 792 1041 712 c 1,31,32
 1007 371 1007 371 855.5 177.5 c 128,-1,33
 704 -16 704 -16 453 -16 c 0,0,1
367 246.5 m 128,-1,35
 408 190 408 190 478.5 190 c 0,36,37
 550 190 550 190 606 248 c 0,38,39
 720 365 720 365 747 614 c 1,40,41
 729 682 729 682 684 724 c 128,-1,42
 639 766 639 766 574 766 c 0,43,44
 472 766 472 766 399 656 c 128,-1,45
 326 546 326 546 326 424.5 c 128,-1,34
 326 303 326 303 367 246.5 c 128,-1,35
EndSplineSet
EndChar

StartChar: uni2206
Encoding: 8710 8710 400
Width: 1100
GlyphClass: 2
Flags: HW
LayerCount: 2
Fore
SplineSet
81 202 m 1,0,-1
 82 334 l 1,1,-1
 488 1481 l 1,2,-1
 616 1481 l 1,3,-1
 1019 336 l 1,4,-1
 1019 202 l 1,5,-1
 81 202 l 1,0,-1
861 333 m 1,6,-1
 553 1275 l 1,7,-1
 243 334 l 1,8,-1
 861 333 l 1,6,-1
EndSplineSet
EndChar

StartChar: product
Encoding: 8719 8719 401
Width: 1357
GlyphClass: 2
Flags: HW
LayerCount: 2
Fore
SplineSet
100 0 m 1,0,-1
 100 1481 l 1,1,-1
 1257 1481 l 1,2,-1
 1257 0 l 1,3,-1
 963 0 l 1,4,-1
 963 1234 l 1,5,-1
 395 1234 l 1,6,-1
 395 0 l 1,7,-1
 100 0 l 1,0,-1
EndSplineSet
EndChar

StartChar: summation
Encoding: 8721 8721 402
Width: 1199
GlyphClass: 2
Flags: HW
LayerCount: 2
Fore
SplineSet
89 0 m 1,0,-1
 89 165 l 1,1,-1
 597 783 l 1,2,-1
 110 1317 l 1,3,-1
 110 1481 l 1,4,-1
 1078 1481 l 1,5,-1
 1078 1272 l 1,6,-1
 439 1272 l 1,7,-1
 873 797 l 1,8,-1
 406 216 l 1,9,-1
 1108 216 l 1,10,-1
 1108 0 l 1,11,-1
 89 0 l 1,0,-1
EndSplineSet
EndChar

StartChar: radical
Encoding: 8730 8730 403
Width: 1140
GlyphClass: 2
Flags: HW
LayerCount: 2
Fore
SplineSet
516 -99 m 1,0,-1
 217 653 l 1,1,-1
 54 635 l 1,2,-1
 43 777 l 1,3,-1
 368 817 l 1,4,-1
 537 361 l 1,5,6
 590 212 590 212 603 187 c 1,7,-1
 645 370 l 1,8,9
 693 567 693 567 786 943 c 128,-1,10
 879 1319 879 1319 923 1497 c 1,11,-1
 1096 1497 l 1,12,-1
 698 -99 l 1,13,-1
 516 -99 l 1,0,-1
EndSplineSet
EndChar

StartChar: infinity
Encoding: 8734 8734 404
Width: 1508
GlyphClass: 2
Flags: HW
LayerCount: 2
Fore
SplineSet
1102 204 m 0,0,1
 902 204 902 204 755 431 c 1,2,3
 605 210 605 210 409 210 c 0,4,5
 265 210 265 210 170.5 308 c 128,-1,6
 76 406 76 406 76 556.5 c 128,-1,7
 76 707 76 707 173 807.5 c 128,-1,8
 270 908 270 908 412 908 c 0,9,10
 613 908 613 908 757 682 c 1,11,12
 909 903 909 903 1106 903 c 1,13,14
 1252 901 1252 901 1344.5 805 c 128,-1,15
 1437 709 1437 709 1437 557.5 c 128,-1,16
 1437 406 1437 406 1339 305 c 128,-1,17
 1241 204 1241 204 1102 204 c 0,0,1
430 377 m 0,18,19
 553 377 553 377 671 556 c 1,20,21
 613 648 613 648 554.5 696 c 128,-1,22
 496 744 496 744 423 744 c 128,-1,23
 350 744 350 744 302.5 690.5 c 128,-1,24
 255 637 255 637 255 558 c 128,-1,25
 255 479 255 479 304 428 c 128,-1,26
 353 377 353 377 430 377 c 0,18,19
962.5 414 m 128,-1,28
 1020 370 1020 370 1090.5 370 c 128,-1,29
 1161 370 1161 370 1208.5 423.5 c 128,-1,30
 1256 477 1256 477 1256 555 c 128,-1,31
 1256 633 1256 633 1208 685.5 c 128,-1,32
 1160 738 1160 738 1084 738 c 0,33,34
 961 738 961 738 842 554 c 1,35,27
 905 458 905 458 962.5 414 c 128,-1,28
EndSplineSet
EndChar

StartChar: integral
Encoding: 8747 8747 405
Width: 861
GlyphClass: 2
Flags: HW
LayerCount: 2
Fore
SplineSet
214 -396 m 0,0,1
 175 -396 175 -396 115.5 -385 c 128,-1,2
 56 -374 56 -374 26 -364 c 1,3,-1
 50 -174 l 1,4,5
 59 -178 59 -178 92 -185 c 128,-1,6
 125 -192 125 -192 158.5 -192 c 128,-1,7
 192 -192 192 -192 220 -175 c 0,8,9
 280 -138 280 -138 280 27 c 2,10,-1
 280 1075 l 2,11,12
 280 1274 280 1274 381.5 1384 c 128,-1,13
 483 1494 483 1494 655 1494 c 0,14,15
 695 1494 695 1494 752.5 1486 c 128,-1,16
 810 1478 810 1478 836 1469 c 1,17,-1
 814 1276 l 1,18,19
 806 1280 806 1280 773.5 1286.5 c 128,-1,20
 741 1293 741 1293 712.5 1293 c 128,-1,21
 684 1293 684 1293 659 1279 c 128,-1,22
 634 1265 634 1265 620 1243.5 c 128,-1,23
 606 1222 606 1222 598 1183 c 0,24,25
 586 1123 586 1123 587 1015 c 2,26,-1
 587 81 l 2,27,28
 587 -172 587 -172 497.5 -284 c 128,-1,29
 408 -396 408 -396 214 -396 c 0,0,1
EndSplineSet
EndChar

StartChar: approxequal
Encoding: 8776 8776 406
Width: 1212
GlyphClass: 2
Flags: HW
LayerCount: 2
Fore
SplineSet
276 204 m 1,0,-1
 120 224 l 1,1,2
 138 358 138 358 214.5 436 c 128,-1,3
 291 514 291 514 400 514 c 128,-1,4
 509 514 509 514 630 444 c 0,5,6
 737 381 737 381 793 381 c 0,7,8
 800 381 800 381 807 382 c 0,9,10
 923 399 923 399 936 517 c 1,11,-1
 1092 495 l 1,12,13
 1075 365 1075 365 1000 287 c 128,-1,14
 925 209 925 209 819 209 c 128,-1,15
 713 209 713 209 589 280 c 128,-1,16
 465 351 465 351 419 351 c 0,17,18
 306 351 306 351 276 204 c 1,0,-1
276 593 m 1,19,-1
 120 614 l 1,20,21
 138 746 138 746 215 823 c 128,-1,22
 292 900 292 900 402 900 c 128,-1,23
 512 900 512 900 628 831 c 0,24,25
 739 765 739 765 794 765 c 0,26,27
 796 765 796 765 799 765 c 1,28,29
 919 769 919 769 936 904 c 1,30,-1
 1092 883 l 1,31,32
 1075 752 1075 752 1000 673.5 c 128,-1,33
 925 595 925 595 818.5 595 c 128,-1,34
 712 595 712 595 589 665 c 128,-1,35
 466 735 466 735 419 735 c 0,36,37
 305 735 305 735 276 593 c 1,19,-1
EndSplineSet
EndChar

StartChar: notequal
Encoding: 8800 8800 407
Width: 1218
GlyphClass: 2
Flags: HW
LayerCount: 2
Fore
SplineSet
252 51 m 1,0,-1
 367 271 l 1,1,-1
 157 271 l 1,2,-1
 157 436 l 1,3,-1
 451 436 l 1,4,-1
 568 664 l 1,5,-1
 157 664 l 1,6,-1
 157 830 l 1,7,-1
 651 830 l 1,8,-1
 775 1072 l 1,9,-1
 966 1059 l 1,10,-1
 846 830 l 1,11,-1
 1063 830 l 1,12,-1
 1063 664 l 1,13,-1
 763 664 l 1,14,-1
 644 436 l 1,15,-1
 1063 436 l 1,16,-1
 1063 271 l 1,17,-1
 563 271 l 1,18,-1
 442 39 l 1,19,-1
 252 51 l 1,0,-1
EndSplineSet
EndChar

StartChar: lessequal
Encoding: 8804 8804 408
Width: 1375
GlyphClass: 2
Flags: HW
LayerCount: 2
Fore
SplineSet
1203 254 m 1,0,-1
 204 618 l 1,1,-1
 204 809 l 1,2,-1
 1203 1175 l 1,3,-1
 1203 943 l 1,4,-1
 513 712 l 1,5,-1
 1203 487 l 1,6,-1
 1203 254 l 1,0,-1
199 1 m 1,7,-1
 199 176 l 1,8,-1
 1207 176 l 1,9,-1
 1207 1 l 1,10,-1
 199 1 l 1,7,-1
EndSplineSet
EndChar

StartChar: greaterequal
Encoding: 8805 8805 409
Width: 1364
GlyphClass: 2
Flags: HW
LayerCount: 2
Fore
SplineSet
203 254 m 1,0,-1
 203 487 l 1,1,-1
 886 712 l 1,2,-1
 203 943 l 1,3,-1
 203 1175 l 1,4,-1
 1192 808 l 1,5,-1
 1192 618 l 1,6,-1
 203 254 l 1,0,-1
199 1 m 1,7,-1
 199 176 l 1,8,-1
 1195 176 l 1,9,-1
 1195 1 l 1,10,-1
 199 1 l 1,7,-1
EndSplineSet
EndChar

StartChar: lozenge
Encoding: 9674 9674 410
Width: 1108
GlyphClass: 2
Flags: HW
LayerCount: 2
Fore
SplineSet
452 -30 m 1,0,-1
 66 672 l 1,1,-1
 456 1377 l 1,2,-1
 652 1377 l 1,3,-1
 1042 673 l 1,4,-1
 648 -30 l 1,5,-1
 452 -30 l 1,0,-1
552 177 m 1,6,-1
 820 671 l 1,7,-1
 556 1169 l 1,8,-1
 289 674 l 1,9,-1
 552 177 l 1,6,-1
EndSplineSet
EndChar

StartChar: minus
Encoding: 8722 8722 412
Width: 1158
GlyphClass: 2
Flags: HW
LayerCount: 2
Fore
SplineSet
90 393 m 1,0,-1
 90 630 l 1,1,-1
 1071 630 l 1,2,-1
 1071 393 l 1,3,-1
 90 393 l 1,0,-1
EndSplineSet
EndChar

StartChar: Omega
Encoding: 937 937 413
Width: 1426
GlyphClass: 2
Flags: HW
LayerCount: 2
Fore
SplineSet
373 721 m 0,0,1
 373 402 373 402 614 200 c 1,2,-1
 614 0 l 1,3,-1
 77 0 l 1,4,-1
 77 217 l 1,5,-1
 378 217 l 1,6,7
 244 290 244 290 165.5 437 c 128,-1,8
 87 584 87 584 87 767 c 0,9,10
 87 1034 87 1034 263 1203.5 c 128,-1,11
 439 1373 439 1373 715 1373 c 0,12,13
 855 1373 855 1373 973.5 1326 c 128,-1,14
 1092 1279 1092 1279 1172 1198.5 c 128,-1,15
 1252 1118 1252 1118 1296.5 1008.5 c 128,-1,16
 1341 899 1341 899 1341 776 c 0,17,18
 1341 594 1341 594 1262.5 451.5 c 128,-1,19
 1184 309 1184 309 1042 218 c 1,20,-1
 1115 217 l 1,21,-1
 1348 217 l 1,22,-1
 1348 0 l 1,23,-1
 811 0 l 1,24,-1
 811 200 l 1,25,26
 1054 395 1054 395 1054 730 c 0,27,28
 1054 906 1054 906 961 1025.5 c 128,-1,29
 868 1145 868 1145 717 1145 c 128,-1,30
 566 1145 566 1145 469.5 1028.5 c 128,-1,31
 373 912 373 912 373 721 c 0,0,1
EndSplineSet
EndChar

StartChar: Delta
Encoding: 916 916 414
Width: 1111
GlyphClass: 2
Flags: HW
LayerCount: 2
Fore
SplineSet
36 0 m 1,0,-1
 36 149 l 1,1,-1
 432 1376 l 1,2,-1
 692 1376 l 1,3,-1
 1075 152 l 1,4,-1
 1075 0 l 1,5,-1
 36 0 l 1,0,-1
269 178 m 1,6,-1
 831 178 l 1,7,8
 575 1046 575 1046 559 1135 c 1,9,-1
 554 1135 l 1,10,11
 539 1064 539 1064 336 400 c 1,12,-1
 269 178 l 1,6,-1
EndSplineSet
EndChar

StartChar: perthousand
Encoding: 8240 8240 416
Width: 2901
GlyphClass: 2
Flags: HW
LayerCount: 2
Fore
SplineSet
2372 259 m 128,-1,1
 2409 197 2409 197 2475.5 197 c 128,-1,2
 2542 197 2542 197 2579 263.5 c 128,-1,3
 2616 330 2616 330 2616 419 c 128,-1,4
 2616 508 2616 508 2578.5 572 c 128,-1,5
 2541 636 2541 636 2475.5 636 c 128,-1,6
 2410 636 2410 636 2372.5 566.5 c 128,-1,7
 2335 497 2335 497 2335 409 c 128,-1,0
 2335 321 2335 321 2372 259 c 128,-1,1
2639.5 36.5 m 0,8,9
 2566 0 2566 0 2475.5 0 c 128,-1,10
 2385 0 2385 0 2310.5 35 c 128,-1,11
 2236 70 2236 70 2190 128 c 0,12,13
 2094 248 2094 248 2094 412 c 0,14,15
 2094 578 2094 578 2190 700 c 0,16,17
 2236 760 2236 760 2310.5 795 c 128,-1,18
 2385 830 2385 830 2477 830 c 128,-1,19
 2569 830 2569 830 2642.5 796 c 128,-1,20
 2716 762 2716 762 2761 704 c 0,21,22
 2853 585 2853 585 2853 424 c 0,23,24
 2852 260 2852 260 2758 134 c 0,25,26
 2712 74 2712 74 2639.5 36.5 c 0,8,9
324.5 910.5 m 128,-1,28
 362 848 362 848 428.5 848 c 128,-1,29
 495 848 495 848 533.5 917 c 128,-1,30
 572 986 572 986 572 1074 c 128,-1,31
 572 1162 572 1162 535 1223.5 c 128,-1,32
 498 1285 498 1285 431.5 1285 c 128,-1,33
 365 1285 365 1285 326 1217.5 c 128,-1,34
 287 1150 287 1150 287 1061.5 c 128,-1,27
 287 973 287 973 324.5 910.5 c 128,-1,28
421 651 m 0,35,36
 339 651 339 651 264.5 686 c 0,37,38
 190 722 190 722 144 780 c 0,39,40
 48 900 48 900 48 1063 c 128,-1,41
 48 1226 48 1226 143 1350 c 0,42,43
 189 1410 189 1410 263.5 1445.5 c 128,-1,44
 338 1481 338 1481 430.5 1481 c 128,-1,45
 523 1481 523 1481 596.5 1446.5 c 128,-1,46
 670 1412 670 1412 716 1354 c 0,47,48
 808 1237 808 1237 808 1074 c 0,49,50
 808 867 808 867 671 739 c 0,51,52
 577 651 577 651 421 651 c 0,35,36
496 0 m 1,53,-1
 1259 1481 l 1,54,-1
 1512 1481 l 1,55,-1
 748 0 l 1,56,-1
 496 0 l 1,53,-1
1473 258 m 128,-1,58
 1510 196 1510 196 1576.5 196 c 128,-1,59
 1643 196 1643 196 1680 262.5 c 128,-1,60
 1717 329 1717 329 1717 418 c 128,-1,61
 1717 507 1717 507 1679.5 571 c 128,-1,62
 1642 635 1642 635 1576.5 635 c 128,-1,63
 1511 635 1511 635 1473.5 565.5 c 128,-1,64
 1436 496 1436 496 1436 408 c 128,-1,57
 1436 320 1436 320 1473 258 c 128,-1,58
1740.5 35.5 m 128,-1,66
 1667 -1 1667 -1 1576.5 -1 c 128,-1,67
 1486 -1 1486 -1 1411.5 34 c 0,68,69
 1336 70 1336 70 1290 128 c 0,70,71
 1194 248 1194 248 1195 411 c 0,72,73
 1194 576 1194 576 1290 698 c 0,74,75
 1336 758 1336 758 1411 793.5 c 128,-1,76
 1486 829 1486 829 1578 829 c 128,-1,77
 1670 829 1670 829 1743.5 795 c 128,-1,78
 1817 761 1817 761 1862 703 c 0,79,80
 1954 584 1954 584 1954 423 c 0,81,82
 1954 258 1954 258 1860 132 c 0,83,65
 1814 72 1814 72 1740.5 35.5 c 128,-1,66
EndSplineSet
EndChar

StartChar: Dcroat
Encoding: 272 272 418
Width: 1514
GlyphClass: 2
Flags: HW
LayerCount: 2
Fore
SplineSet
0 658 m 1,0,-1
 0 852 l 1,1,-1
 704 852 l 1,2,-1
 704 658 l 1,3,-1
 0 658 l 1,0,-1
489 249 m 1,4,-1
 632 249 l 2,5,6
 865 249 865 249 966 361.5 c 128,-1,7
 1067 474 1067 474 1067 728.5 c 128,-1,8
 1067 983 1067 983 967.5 1107.5 c 128,-1,9
 868 1232 868 1232 680 1232 c 2,10,-1
 489 1232 l 1,11,-1
 489 249 l 1,4,-1
146 0 m 1,12,-1
 146 1481 l 1,13,-1
 596 1481 l 2,14,15
 1210 1481 1210 1481 1360 1083 c 0,16,17
 1414 939 1414 939 1414.5 758 c 128,-1,18
 1415 577 1415 577 1378 452 c 128,-1,19
 1341 327 1341 327 1272.5 242 c 0,20,21
 1204 156 1204 156 1102 102 c 0,22,23
 909 0 909 0 594 0 c 2,24,-1
 146 0 l 1,12,-1
EndSplineSet
EndChar

StartChar: f_i
Encoding: 65539 -1 420
Width: 1291
GlyphClass: 3
Flags: HW
LayerCount: 2
Fore
SplineSet
167 0 m 1,0,-1
 167 830 l 1,1,-1
 26 830 l 1,2,-1
 26 1036 l 1,3,-1
 167 1036 l 1,4,-1
 167 1076 l 2,5,6
 167 1266 167 1266 256.5 1354.5 c 128,-1,7
 346 1443 346 1443 545 1443 c 0,8,9
 606 1443 606 1443 725 1430 c 1,10,-1
 725 1209 l 1,11,12
 623 1220 623 1220 606 1220 c 0,13,14
 530 1220 530 1220 498.5 1183 c 128,-1,15
 467 1146 467 1146 467 1036 c 1,16,-1
 1146 1036 l 1,17,-1
 1146 0 l 1,18,-1
 835 0 l 1,19,-1
 835 830 l 1,20,-1
 476 830 l 1,21,-1
 476 0 l 1,22,-1
 167 0 l 1,0,-1
990 1169 m 128,-1,24
 904 1169 904 1169 856 1220.5 c 128,-1,25
 808 1272 808 1272 808 1344 c 128,-1,26
 808 1416 808 1416 856 1467 c 128,-1,27
 904 1518 904 1518 990 1518 c 128,-1,28
 1076 1518 1076 1518 1124 1465.5 c 0,29,30
 1172 1412 1172 1412 1172 1342 c 128,-1,31
 1172 1272 1172 1272 1124 1220.5 c 128,-1,23
 1076 1169 1076 1169 990 1169 c 128,-1,24
EndSplineSet
Ligature2: "'liga' Standard Ligatures lookup 0 subtable" f i
EndChar

StartChar: f_l
Encoding: 65540 -1 421
Width: 1355
GlyphClass: 3
Flags: HW
LayerCount: 2
Fore
SplineSet
1229 -2 m 2,0,1
 995 -2 995 -2 918 80 c 0,2,3
 890 110 890 110 876.5 132.5 c 128,-1,4
 863 155 863 155 856 198 c 0,5,6
 847 253 847 253 847 301 c 2,7,-1
 847 1209 l 1,8,9
 742 1220 742 1220 648.5 1220 c 128,-1,10
 555 1220 555 1220 511 1181.5 c 128,-1,11
 467 1143 467 1143 467 1036 c 1,12,-1
 710 1036 l 1,13,-1
 710 830 l 1,14,-1
 476 830 l 1,15,-1
 476 0 l 1,16,-1
 167 0 l 1,17,-1
 167 830 l 1,18,-1
 26 830 l 1,19,-1
 26 1036 l 1,20,-1
 167 1036 l 1,21,-1
 167 1076 l 2,22,23
 167 1443 167 1443 575 1443 c 0,24,25
 747 1443 747 1443 1052 1411 c 2,26,-1
 1156 1400 l 1,27,-1
 1156 340 l 2,28,29
 1156 274 1156 274 1186.5 243 c 128,-1,30
 1217 212 1217 212 1311 212 c 1,31,-1
 1311 -2 l 1,32,-1
 1229 -2 l 2,0,1
EndSplineSet
Ligature2: "'liga' Standard Ligatures lookup 0 subtable" f l
EndChar

StartChar: uni02C9
Encoding: 713 713 424
Width: 540
GlyphClass: 2
Flags: HW
LayerCount: 2
Fore
SplineSet
-8 1168 m 1,0,-1
 -8 1323 l 1,1,-1
 548 1323 l 1,2,-1
 548 1168 l 1,3,-1
 -8 1168 l 1,0,-1
EndSplineSet
EndChar

StartChar: uni2215
Encoding: 8725 8725 425
Width: 994
GlyphClass: 2
Flags: HW
LayerCount: 2
Fore
SplineSet
80 0 m 1,0,-1
 612 1481 l 1,1,-1
 894 1481 l 1,2,-1
 359 0 l 1,3,-1
 80 0 l 1,0,-1
EndSplineSet
EndChar

StartChar: uni2219
Encoding: 8729 8729 426
Width: 363
GlyphClass: 2
Flags: HW
LayerCount: 2
Fore
SplineSet
181 202 m 128,-1,1
 100 202 100 202 57 241 c 128,-1,2
 14 280 14 280 14 342 c 128,-1,3
 14 404 14 404 57 443 c 128,-1,4
 100 482 100 482 181 482 c 128,-1,5
 262 482 262 482 305.5 443.5 c 0,6,7
 349 404 349 404 349 342 c 128,-1,8
 349 280 349 280 305.5 241 c 128,-1,0
 262 202 262 202 181 202 c 128,-1,1
EndSplineSet
EndChar

StartChar: dblgravecmb
Encoding: 65541 -1 427
Width: 807
GlyphClass: 2
Flags: HW
LayerCount: 2
Fore
SplineSet
108 1160 m 1,0,-1
 -142 1506 l 1,1,-1
 158 1506 l 1,2,-1
 319 1160 l 1,3,-1
 108 1160 l 1,0,-1
512 1160 m 1,4,-1
 263 1506 l 1,5,-1
 571 1506 l 1,6,-1
 723 1160 l 1,7,-1
 512 1160 l 1,4,-1
EndSplineSet
EndChar
